<svg id="svg" version="1.1" viewBox="0 0 117.6691729323308 300" width="117.6691729323308" height="300" xmlns="http://www.w3.org/2000/svg"><svg xmlns="http://www.w3.org/2000/svg"><defs><clipPath id="clip-1"><rect x="0" y="0" transform="scale(0.14654,0.14648)" width="803" height="2048" fill="none"/></clipPath><linearGradient x1="55.58484" y1="106.95776" x2="56.41233" y2="140.44395" gradientUnits="userSpaceOnUse" id="color-1"><stop offset="0" stop-color="#f6b342"/><stop offset="1" stop-color="#f07e46"/></linearGradient><linearGradient x1="86.97906" y1="151.48096" x2="85.02953" y2="130.19722" gradientUnits="userSpaceOnUse" id="color-2"><stop offset="0" stop-color="#ee6144"/><stop offset="1" stop-color="#f18845"/></linearGradient><linearGradient x1="73.25485" y1="174.85693" x2="72.88235" y2="180.18018" gradientUnits="userSpaceOnUse" id="color-3"><stop offset="0" stop-color="#e38138"/><stop offset="1" stop-color="#f49d49"/></linearGradient><linearGradient x1="82.52522" y1="159.53906" x2="82.48067" y2="162.12451" gradientUnits="userSpaceOnUse" id="color-4"><stop offset="0" stop-color="#f49649"/><stop offset="1" stop-color="#f9b664"/></linearGradient></defs><g clip-path="url(#clip-1)" fill="none" fill-rule="nonzero" stroke="none" stroke-width="1" stroke-linecap="butt" stroke-linejoin="miter" stroke-miterlimit="10" stroke-dasharray="" stroke-dashoffset="0" font-family="none" font-weight="none" font-size="none" text-anchor="none" style="mix-blend-mode: normal"><path d="M56.46215,102.74707c0.6559,-0.07427 2.46812,-0.0646 3.14981,-0.05098c13.10993,0.25459 25.58726,5.68066 34.71079,15.09492c8.84922,9.05361 13.63556,21.31494 13.2591,33.9668c-0.33088,12.51855 -5.64636,24.38672 -14.76653,32.9707c-7.13943,6.84082 -16.2275,11.29688 -26.00914,12.75293c-1.73837,0.25928 -3.54209,0.55225 -5.29716,0.5127c-3.01016,-0.19775 -6.77235,-0.04395 -9.59832,-0.3457c-8.85625,-0.94629 -17.85494,-5.15479 -24.63198,-10.84863c-9.73254,-8.15625 -15.83251,-19.83691 -16.96246,-32.48145c-0.98786,-12.39873 2.96318,-24.68511 10.99313,-34.18535c9.10727,-10.80688 21.26002,-16.20776 35.15275,-17.38594z" fill="#71242e"/><path d="M28.5621,118.33711c17.25429,-15.18647 42.93635,-15.75498 60.27724,-0.4084c2.04141,1.78286 4.92203,4.69585 6.41788,6.96475c0.68535,0.93354 2.0077,2.8749 2.5411,3.90381c0.5016,0.88857 0.95527,1.68765 1.39005,2.61592c2.82802,6.05068 4.54631,12.23145 4.40153,18.97354c-0.00513,1.22168 0.02916,2.66602 -0.12236,3.86133c-0.1754,1.76953 -0.40268,3.39404 -0.80478,5.12549c-0.07884,0.33984 -0.52182,2.26758 -0.50086,2.50342l-0.22274,0.54932c-0.91146,3.02197 -2.42372,6.86279 -4.06904,9.57275c-0.21131,0.36328 -0.43771,0.73975 -0.63538,1.10742l-0.16295,0.18457c-0.46687,0.71631 -1.00876,1.59668 -1.50581,2.27344c-2.88751,4.13965 -8.72657,9.72363 -13.16561,12.16699c-1.03089,0.68262 -4.14875,2.40674 -5.30244,2.81689c-6.09008,2.4668 -11.48132,3.75439 -18.12999,3.67822c-6.65131,0.38379 -15.16863,-1.99219 -21.06542,-4.9834c-1.07617,-0.47754 -4.05468,-2.3877 -4.97229,-3.08789c-1.09185,-0.7207 -2.13548,-1.61719 -3.14981,-2.44922c-0.66513,-0.41748 -2.49098,-2.28076 -3.10556,-2.89746c-2.29902,-2.17676 -4.64156,-5.40527 -6.26123,-8.12109l-0.59274,-1.03418c-0.65443,-0.99023 -1.5234,-2.89014 -2.00345,-3.97559l-0.48079,-1.16016c-0.92758,-1.90869 -1.8852,-5.68213 -2.3843,-7.71973c-0.01465,-0.54785 -0.55092,-3.60352 -0.66117,-4.30518c-0.23749,-0.60205 -0.27071,-5.42139 -0.09214,-6.41309c0.00739,-1.89917 0.53249,-4.97007 0.93004,-6.83188l0.30831,-1.35439l0.25424,-0.85942c1.19618,-4.48447 4.24884,-11.1832 7.31981,-14.70674c1.21816,-1.84717 3.95371,-4.48301 5.55067,-5.99004z" fill="#71242e"/><path d="M28.5621,118.33711c17.25429,-15.18647 42.93635,-15.75498 60.27724,-0.4084c2.04141,1.78286 4.92203,4.69585 6.41788,6.96475c0.68535,0.93354 2.0077,2.8749 2.5411,3.90381c0.5016,0.88857 0.95527,1.68765 1.39005,2.61592c-7.26574,0.28667 -15.02326,-0.00615 -22.32754,0.17271c-2.76369,0.06782 -5.63259,-0.13989 -8.42793,-0.01421c0.68037,0.92183 7.83196,6.06343 6.63842,7.75532c-1.2397,0.00483 -2.47941,-0.00469 -3.71881,-0.02842c-8.34499,0.21006 -17.55088,0.06709 -25.92913,0.01069c-5.30508,0.07427 -10.61309,-0.01113 -15.91846,0.05845c-0.57032,0.00762 -1.13962,0.01011 -1.70979,-0.00996c0.02594,-0.47227 0.13364,-1.13306 -0.11151,-1.50352c-0.6685,-0.50024 -1.63594,-0.37529 -1.81369,0.46523c-0.21306,1.00693 -0.01729,2.35825 -0.03429,3.40942c-3.08402,-0.16523 -6.74788,0.15381 -9.876,-0.05918c-0.47405,-0.03237 -0.58849,-0.11543 -0.83057,-0.42202l0.30831,-1.35439l0.25424,-0.85942c1.19618,-4.48447 4.24884,-11.1832 7.31981,-14.70674c1.21816,-1.84717 3.95371,-4.48301 5.55067,-5.99004z" fill="url(#color-1)"/><path d="M45.42338,139.30928c0.56241,-1.73672 3.91664,-4.29478 5.5791,-5.14204c3.81143,-1.91982 8.22761,-2.25527 12.28537,-0.93311c2.21432,0.72803 7.32846,3.73228 8.06466,6.06445c-8.34499,0.21006 -17.55088,0.06709 -25.92913,0.01069z" fill="#fde8a0"/><path d="M61.25904,131.49521c4.46205,-1.11797 9.84465,-0.51255 14.38861,-1.31733c2.28964,-0.40532 3.33987,-2.95166 6.0744,-2.97393c2.63635,-0.02153 4.12677,1.06025 6.59695,1.59302c2.8944,0.21929 6.43283,-0.06826 9.47933,0.00029c0.5016,0.88857 0.95527,1.68765 1.39005,2.61592c-7.26574,0.28667 -15.02326,-0.00615 -22.32754,0.17271c-2.76369,0.06782 -5.63259,-0.13989 -8.42793,-0.01421c-2.39046,0.13008 -4.78678,0.10444 -7.17386,-0.07646z" fill="#f9a54e"/><path d="M86.91986,120.052c0.47698,-0.62798 1.28791,-1.73042 1.91949,-2.12329c2.04141,1.78286 4.92203,4.69585 6.41788,6.96475c-0.90941,0.23613 -5.10374,0.29751 -6.33186,0.3356c-6.05696,0.18311 -12.11611,0.28301 -18.17586,0.29985c1.91026,-0.56528 8.15068,-0.87935 8.98447,-1.9248c2.45274,-3.07559 2.50593,-3.22441 7.18588,-3.5521z" fill="#f8b05e"/><path d="M28.5621,118.33711c1.95466,0.28169 4.94211,0.60381 6.06429,2.37803c1.02854,1.62656 2.10969,2.28721 4.12267,2.51646c2.59825,0.29604 5.15825,0.53965 7.79225,0.89399l-0.08997,0.18413c-0.87717,0.09814 -1.6566,0.00864 -2.37463,0.08027c-2.23293,0.00747 -20.15718,0.32358 -21.06527,-0.06284c1.21816,-1.84717 3.95371,-4.48301 5.55067,-5.99004z" fill="#f8b05e"/><path d="M15.43737,139.89331l0.25424,-0.85942c1.40866,0.13726 4.06904,0.51021 5.32633,0.50698c-0.75173,0.46025 -4.72435,-0.14165 -5.58057,0.35244z" fill="#ef7348"/><path d="M46.54131,124.12559c0.39829,0.05142 0.69078,0.00996 0.92743,0.24082c-0.92377,0.16304 -2.44702,0.12041 -3.39204,0.02358c0.71803,-0.07163 1.49746,0.01787 2.37463,-0.08027z" fill="#f9a54e"/><path d="M66.7448,167.44336c-0.42642,1.75342 -1.32894,6.6167 -0.69239,8.09033l0.03839,0.15234c0.45426,0.65332 0.89402,1.31543 1.31927,1.98779c0.77753,1.04736 1.5763,2.56201 2.33126,3.33984c1.48838,1.83984 3.21546,3.94922 4.8196,5.70557c0.99836,1.11182 2.02016,2.40674 2.53699,3.8291c-6.09008,2.4668 -11.48132,3.75439 -18.12999,3.67822c-6.65131,0.38379 -15.16863,-1.99219 -21.06542,-4.9834c-1.07617,-0.47754 -4.05468,-2.3877 -4.97229,-3.08789c1.39826,-0.86865 5.27943,-4.82959 6.57028,-6.16992c0.17731,-2.2207 -0.49383,-4.7373 0.97183,-6.45703l0.5057,0.27686c0.17599,0.93457 1.6758,3.52002 2.05254,5.04199c0.83204,0.13477 1.5634,0.21973 2.40247,0.30469l0.59377,-0.35742c1.2293,-1.03857 5.1011,-3.44971 5.7781,-4.19531l0.82046,0.47314l0.01861,-0.07617c0.32414,-1.29932 -0.39345,-5.31445 -0.62864,-6.77344c4.90327,-0.04688 9.85388,-0.1875 14.72945,-0.7793z" fill="#f9a54e"/><path d="M69.74133,181.01367c1.48838,1.83984 3.21546,3.94922 4.8196,5.70557c0.99836,1.11182 2.02016,2.40674 2.53699,3.8291c-6.09008,2.4668 -11.48132,3.75439 -18.12999,3.67822c-6.65131,0.38379 -15.16863,-1.99219 -21.06542,-4.9834c0.64535,-0.59473 1.3181,-1.61719 2.10837,-2.36572c0.75935,0.57715 9.21439,-0.07764 10.78908,-0.13477c-0.47258,0.01758 4.5784,-0.77197 4.19506,-0.66211l0.05568,-0.15527c-0.87189,-0.68555 -4.74692,-1.32861 -6.27896,-1.91602l0.0633,-0.02051c2.52893,-0.82324 6.1714,-0.97412 8.90578,-1.30957c2.76134,-0.28564 5.51887,-0.6665 8.26967,-1.04004c0.7809,-0.10547 3.12094,-0.30322 3.73083,-0.62549z" fill="#ec8f42"/><path d="M74.56093,186.71924c0.99836,1.11182 2.02016,2.40674 2.53699,3.8291c-6.09008,2.4668 -11.48132,3.75439 -18.12999,3.67822c0.76419,-0.15527 3.15597,-0.89795 3.47893,-1.62744l-0.14536,-0.24902c-1.08218,-0.5332 -4.49956,-0.49365 -4.97581,-1.32275c1.62158,-1.23633 11.80223,-0.18164 14.67875,-1.26562c0.53237,-0.49658 1.97078,-2.33789 2.55648,-3.04248z" fill="#db6f33"/><path d="M67.63838,185.04199c0.99118,-0.07324 1.36323,-0.20654 2.11072,0.43066l0.01495,0.30322c-0.34641,0.33105 -0.67641,0.33252 -1.15706,0.40869c-0.80639,0.104 -1.90952,0.26953 -2.52088,-0.39551l0.08411,-0.28271c0.41997,-0.34717 0.9289,-0.37646 1.46815,-0.46436z" fill="#db6f33"/><path d="M42.19224,189.26953c0.60696,0.03369 0.99074,-0.00293 1.19589,0.62256c-0.31066,0.39697 -0.2516,0.28418 -0.82911,0.44971c-0.73181,-0.00439 -0.87483,0.04395 -1.42463,-0.31787l-0.04836,-0.24609c0.45339,-0.44092 0.43302,-0.33252 1.10621,-0.5083z" fill="#db6f33"/><path d="M40.47233,173.52832l0.5057,0.27686c0.17599,0.93457 1.6758,3.52002 2.05254,5.04199c0.83204,0.13477 1.5634,0.21973 2.40247,0.30469l0.59377,-0.35742c1.2293,-1.03857 5.1011,-3.44971 5.7781,-4.19531l0.82046,0.47314c-0.51625,0.35742 -4.47582,4.54395 -5.40824,5.47559c-2.07071,2.06982 -5.4015,4.4458 -7.20625,6.32959c-0.79027,0.74854 -1.46302,1.771 -2.10837,2.36572c-1.07617,-0.47754 -4.05468,-2.3877 -4.97229,-3.08789c1.39826,-0.86865 5.27943,-4.82959 6.57028,-6.16992c0.17731,-2.2207 -0.49383,-4.7373 0.97183,-6.45703z" fill="#b14a2a"/><path d="M43.03058,178.84717c0.83204,0.13477 1.5634,0.21973 2.40247,0.30469l-3.49432,2.33203c0.39609,-0.71484 1.04305,-1.83545 1.09185,-2.63672z" fill="#f9a54e"/><path d="M66.0908,175.68604c0.45426,0.65332 0.89402,1.31543 1.31927,1.98779c-0.92392,-0.04834 -2.48146,-0.26514 -3.27393,-0.7251l-0.04557,-0.22998c0.47654,-0.38086 1.2696,-0.56836 1.87084,-0.75439z" fill="#ec8f42"/><path d="M56.2696,171.61084c0.89651,-0.08496 4.50425,-0.30176 5.15839,0.07031l-0.07342,0.21973c-0.88596,0.12744 -4.33955,0.26221 -5.10403,-0.06738z" fill="#f8b05e"/><path d="M47.26623,185.12256c0.39257,0.02051 0.45309,0.02197 0.7743,0.27539c0.00484,0.45264 0.02652,0.30029 -0.3659,0.71191c-0.4021,-0.0293 -0.54834,-0.0249 -0.93168,-0.16406l-0.01612,-0.2417z" fill="#db6f33"/><path d="M99.18837,131.41318c2.82802,6.05068 4.54631,12.23145 4.40153,18.97354c-2.12625,0.08643 -3.44494,-0.46289 -5.36223,-0.60059c-1.25978,-0.09082 -4.30496,0.5083 -5.73692,0.72803c-0.0551,-3.2915 0.00073,-6.59839 -0.03268,-9.89092c-0.00952,-0.95259 0.02418,-1.87324 -0.0847,-2.82349c-1.61586,-0.91802 -2.02807,0.05391 -2.04566,1.53237l-15.2564,-0.00513c1.19354,-1.69189 -5.95805,-6.8335 -6.63842,-7.75532c2.79534,-0.12568 5.66424,0.08203 8.42793,0.01421c7.30428,-0.17886 15.0618,0.11396 22.32754,-0.17271z" fill="url(#color-2)"/><path d="M15.12906,141.24771c0.24208,0.30659 0.35652,0.38965 0.83057,0.42202c3.12812,0.21299 6.79199,-0.10605 9.876,0.05918c-0.01055,2.65488 0.08235,6.12363 -0.03429,8.71201c0.00484,1.25684 0.02403,2.5415 0.01392,3.79541l-0.00791,3.22998l0.00029,1.6875c0.02389,1.96436 0.10609,4.34033 0.03942,6.2666l-0.00322,1.36523l-0.00718,1.19238c-0.0085,0.46875 0.00015,1.15869 -0.05261,1.60547c-1.25553,-0.01904 -4.58837,1.66553 -5.96317,2.06982c-0.65443,-0.99023 -1.5234,-2.89014 -2.00345,-3.97559l-0.48079,-1.16016c-0.92758,-1.90869 -1.8852,-5.68213 -2.3843,-7.71973c-0.01465,-0.54785 -0.55092,-3.60352 -0.66117,-4.30518c-0.23749,-0.60205 -0.27071,-5.42139 -0.09214,-6.41309c0.00739,-1.89917 0.53249,-4.97007 0.93004,-6.83188z" fill="#ed6544"/><path d="M14.95234,158.79785c1.30726,0.59619 6.89383,0.54639 8.73419,0.58008h1.67169l0.44943,-0.22412c0.02389,1.96436 0.10609,4.34033 0.03942,6.2666l-0.00322,1.36523l-0.00718,1.19238c-0.0085,0.46875 0.00015,1.15869 -0.05261,1.60547c-1.25553,-0.01904 -4.58837,1.66553 -5.96317,2.06982c-0.65443,-0.99023 -1.5234,-2.89014 -2.00345,-3.97559l-0.48079,-1.16016c-0.92758,-1.90869 -1.8852,-5.68213 -2.3843,-7.71973z" fill="#ec8f42"/><path d="M17.81743,167.67773c2.08493,0.12744 5.95482,0.36621 8.01923,0.30029c-0.0085,0.46875 0.00015,1.15869 -0.05261,1.60547c-1.25553,-0.01904 -4.58837,1.66553 -5.96317,2.06982c-0.65443,-0.99023 -1.5234,-2.89014 -2.00345,-3.97559z" fill="#f9a54e"/><path d="M19.74893,166.27734c2.03393,0.22266 4.03739,0.2666 6.09491,0.5083l-0.00718,1.19238c-2.06441,0.06592 -5.93431,-0.17285 -8.01923,-0.30029l-0.48079,-1.16016l0.09921,-0.11426c0.40693,-0.1626 1.79581,-0.12305 2.31309,-0.12598z" fill="#fde8a0"/><path d="M23.68653,159.37793h1.67169l0.21043,0.34277c0.04777,0.3457 0.07342,0.21094 -0.09188,0.51123c-1.10005,0.39258 -4.41018,0.13184 -5.6597,0c1.18915,-0.2915 2.53582,-0.30469 3.78446,-0.54932z" fill="#f9a54e"/><path d="M23.68653,159.37793h1.67169l0.21043,0.34277c-0.53589,-0.04248 -1.40441,-0.0293 -1.96711,-0.03809z" fill="#db6f33"/><path d="M19.74893,166.27734c2.93382,-0.13916 3.18674,-0.24609 6.09814,-0.85693l-0.00322,1.36523c-2.05753,-0.2417 -4.06098,-0.28564 -6.09491,-0.5083z" fill="#f9a54e"/><path d="M14.29116,154.49268c0.81431,-0.57568 9.72463,-0.26807 11.52411,-0.25635l-0.00791,3.22998l0.00029,1.6875l-0.44943,0.22412h-1.67169c-1.84036,-0.03369 -7.42693,0.01611 -8.73419,-0.58008c-0.01465,-0.54785 -0.55092,-3.60352 -0.66117,-4.30518z" fill="#ec8f42"/><path d="M14.95234,158.79785c0.05818,-0.09961 0.19563,-0.29004 0.28751,-0.30469c1.41628,-0.23437 9.77577,-1.25244 10.56751,-1.02686l0.00029,1.6875l-0.44943,0.22412h-1.67169c-1.84036,-0.03369 -7.42693,0.01611 -8.73419,-0.58008z" fill="#f8b05e"/><path d="M14.19902,148.07959c0.0056,1.18066 0.02381,2.36133 0.05466,3.54053c1.93338,-0.18896 3.824,-0.2168 5.7385,-0.5127c1.60824,-0.24902 2.34928,-1.27295 3.85846,-1.40479c0.86003,-0.07324 1.61601,0.67529 1.9507,0.73828c0.00484,1.25684 0.02403,2.5415 0.01392,3.79541c-1.79947,-0.01172 -10.7098,-0.31934 -11.52411,0.25635c-0.23749,-0.60205 -0.27071,-5.42139 -0.09214,-6.41309z" fill="#b14a2a"/><path d="M79.99965,174.66357c1.49453,0.47021 14.74132,-1.08252 17.07214,-1.37256c-0.46687,0.71631 -1.00876,1.59668 -1.50581,2.27344c-2.88751,4.13965 -8.72657,9.72363 -13.16561,12.16699c-1.03089,0.68262 -4.14875,2.40674 -5.30244,2.81689c-0.51684,-1.42236 -1.53864,-2.71729 -2.53699,-3.8291c-1.60414,-1.75635 -3.33122,-3.86572 -4.8196,-5.70557c-0.75496,-0.77783 -1.55373,-2.29248 -2.33126,-3.33984c-0.42525,-0.67236 -0.86501,-1.33447 -1.31927,-1.98779l-0.03839,-0.15234l0.69297,-0.33838c0.26362,0.36035 0.52255,0.48486 0.90135,0.71777c3.32419,-0.48926 7.58783,-0.53027 11.10765,-0.95508c0.44679,-0.39844 0.70616,-0.33105 1.24527,-0.29443z" fill="#ec8f42"/><path d="M78.75438,174.95801c0.44679,-0.39844 0.70616,-0.33105 1.24527,-0.29443c0.15914,1.66113 -0.83731,4.38721 -1.08481,6.22266c0.41748,1.04297 0.69796,1.57031 1.25949,2.55029c0.76111,1.42236 1.50318,2.85352 2.22604,4.29492c-1.03089,0.68262 -4.14875,2.40674 -5.30244,2.81689c-0.51684,-1.42236 -1.53864,-2.71729 -2.53699,-3.8291c-1.60414,-1.75635 -3.33122,-3.86572 -4.8196,-5.70557c-0.75496,-0.77783 -1.55373,-2.29248 -2.33126,-3.33984c-0.42525,-0.67236 -0.86501,-1.33447 -1.31927,-1.98779l-0.03839,-0.15234l0.69297,-0.33838c0.26362,0.36035 0.52255,0.48486 0.90135,0.71777c3.32419,-0.48926 7.58783,-0.53027 11.10765,-0.95508z" fill="#b14a2a"/><path d="M67.64673,175.91309c3.32419,-0.48926 7.58783,-0.53027 11.10765,-0.95508c-1.05331,1.83398 -2.25491,2.94873 -3.12344,5.03027c-0.89505,0.17285 -1.96242,0.45557 -2.79783,0.59766c-1.75141,-1.53369 -3.41944,-3.19043 -5.18638,-4.67285z" fill="url(#color-3)"/><path d="M69.50467,176.81396c0.79775,-0.01758 1.5445,-0.07471 1.93282,0.68115c-0.94121,0.09082 -1.6503,0.32666 -1.93282,-0.68115z" fill="#ec8f42"/><path d="M72.46736,179.34229c0.43815,-0.03223 1.08848,-0.15381 1.41862,0.0835l0.03224,0.30762c-0.74441,0.14209 -1.14958,0.38086 -1.45086,-0.39111z" fill="#db6f33"/><path d="M72.83312,180.58594c0.83541,-0.14209 1.90278,-0.4248 2.79783,-0.59766c-0.02418,1.1001 0.03781,2.02148 0.27344,3.10254c-0.91336,-0.69873 -2.27293,-1.71387 -3.07127,-2.50488z" fill="#ec8f42"/><path d="M80.17432,183.43652c2.14325,-1.13525 6.91537,-2.27197 8.03228,-4.06787c0.23636,-1.69336 -2.17783,-1.01807 -2.89616,-2.13721l0.18625,-0.24463c1.54611,-0.82764 8.05602,-1.35352 10.06929,-1.42236c-2.88751,4.13965 -8.72657,9.72363 -13.16561,12.16699c-0.72287,-1.44141 -1.46493,-2.87256 -2.22604,-4.29492z" fill="#db6f33"/><path d="M27.8618,167.92822l0.0825,-0.02197c1.12599,0.31787 3.46003,0.20361 4.69695,0.26367c3.89862,0.19043 8.74445,-0.25342 12.54591,-0.03516c-0.60388,2.31445 -4.11798,3.49365 -4.71483,5.39355c-1.46566,1.71973 -0.79452,4.23633 -0.97183,6.45703c-1.29084,1.34033 -5.17202,5.30127 -6.57028,6.16992c-1.09185,-0.7207 -2.13548,-1.61719 -3.14981,-2.44922c-0.66513,-0.41748 -2.49098,-2.28076 -3.10556,-2.89746c-2.29902,-2.17676 -4.64156,-5.40527 -6.26123,-8.12109l-0.59274,-1.03418c1.37481,-0.4043 4.70765,-2.08887 5.96317,-2.06982c0.31505,0.30176 1.24468,0.42627 1.67067,0.44531l0.30201,-0.24023c0.20501,-0.48486 0.12133,-1.30518 0.10507,-1.86035z" fill="#f9a54e"/><path d="M26.67485,180.80859c1.01946,0.06445 6.16715,0.60498 6.71901,1.28467c-0.47712,1.04297 -3.03434,0.81006 -3.61345,1.61279c-0.66513,-0.41748 -2.49098,-2.28076 -3.10556,-2.89746z" fill="#ec8f42"/><path d="M19.82088,171.65332c1.37481,-0.4043 4.70765,-2.08887 5.96317,-2.06982c0.31505,0.30176 1.24468,0.42627 1.67067,0.44531c-1.23018,0.22705 -5.79773,2.03467 -7.0411,2.65869z" fill="#b14a2a"/><path d="M24.54523,174.23145c0.7129,-0.04541 1.11471,-0.06738 1.79215,0.15967l-0.00747,0.19336l-0.42921,0.10547c-0.6685,0.02051 -0.96451,0.04248 -1.63623,-0.08936l-0.05231,-0.16846z" fill="#f8b05e"/><path d="M33.96873,179.08154c0.84508,-0.0835 2.36393,-0.30469 3.10058,0.14063c-0.8228,0.10693 -2.36364,0.25195 -3.10058,-0.14062z" fill="#f8b05e"/><path d="M34.40893,180.80273c0.57047,-0.10547 0.95733,-0.28271 1.34536,0.17139l-0.04557,0.47021l-0.84625,-0.04834c-0.42584,-0.26807 -0.30421,-0.10986 -0.45353,-0.59326z" fill="#db6f33"/><path d="M43.48206,154.08984l-0.10741,0.20068l-0.33586,0.03955c0.48006,0.41162 5.26449,0.59766 5.74557,0.33105l0.92186,0.38379l0.52856,0.34277c-2.3525,0.57422 -4.28357,1.2334 -5.64475,3.41455c-0.70689,1.13232 -1.5952,3.85254 -1.54479,5.14014l0.38319,-0.00146l-0.09481,0.104c1.66847,-1.5 1.53659,-3.82764 3.97174,-5.3877c-0.69796,2.74219 -1.37408,5.05225 -1.80431,7.86035l-0.31388,1.61719c-3.80146,-0.21826 -8.64729,0.22559 -12.54591,0.03516c-1.23692,-0.06006 -3.57096,0.0542 -4.69695,-0.26367l-0.0825,0.02197l-0.02345,-2.53857l-0.00278,-1.76514l-0.01084,-6.56836l-0.00293,-0.98145l0.00528,-1.79736c3.32888,-0.0835 6.77997,-0.04541 10.11896,-0.04834c1.09346,0.10107 4.21982,-0.10693 5.53602,-0.13916z" fill="#f8b05e"/><path d="M27.9443,167.90625c0.02286,-0.51855 -0.0573,-0.43506 0.20574,-0.80273c1.3603,-0.02051 2.86333,0.02637 4.20444,-0.10107c4.40622,-0.42041 8.72041,-0.45117 13.14656,-0.48486l-0.31388,1.61719c-3.80146,-0.21826 -8.64729,0.22559 -12.54591,0.03516c-1.23692,-0.06006 -3.57096,0.0542 -4.69695,-0.26367z" fill="#fde8a0"/><path d="M27.83557,163.62451c0.58747,0.41895 3.3321,0.44238 4.63364,0.84082c-1.18167,0.33252 -4.26173,0.43213 -4.63086,0.92432z" fill="#ec8f42"/><path d="M27.8218,156.07471c1.53322,0.06006 3.11523,0.1084 4.60873,0.4834c-1.29231,0.12744 -3.38896,0.27539 -4.6058,0.49805z" fill="#ec8f42"/><path d="M75.37744,162.43799c0.03238,-0.01172 13.96072,-0.38672 14.92347,-0.32666l-0.01246,1.06348c0.01275,1.97607 -0.10609,4.85596 0.0359,6.70898l0.40532,0.02344c1.01169,0.63281 2.24802,1.1499 3.34441,1.64502c0.48445,0.21973 1.66818,0.72217 2.06925,0.96973c0.5545,0.13477 0.74587,0.11865 1.09141,0.58447l-0.16295,0.18457c-2.33082,0.29004 -15.57761,1.84277 -17.07214,1.37256c-0.53911,-0.03662 -0.79848,-0.104 -1.24527,0.29443c-3.51982,0.4248 -7.78346,0.46582 -11.10765,0.95508c-0.3788,-0.23291 -0.63773,-0.35742 -0.90135,-0.71777c1.4217,-2.85498 1.08789,-4.6626 3.34778,-8.13721c1.29334,3.10547 2.02866,4.48975 5.26683,5.92822c0.71583,0.31787 2.58682,1.56152 3.30133,1.12354c-0.00117,-1.02979 -3.76263,-3.90088 -4.70559,-4.75195c-0.32311,-1.13818 -0.53222,-2.35254 -0.75554,-3.51709c-0.10199,-0.62256 -0.30187,-1.43262 -0.43917,-2.06396c0.52871,-0.10547 1.13757,-0.18604 1.67624,-0.271c0.24633,0.66504 0.32004,0.7793 0.80713,1.29492c0.69107,-0.59473 0.32341,-1.61572 0.13306,-2.36279z" fill="#f9a54e"/><path d="M75.37744,162.43799c0.03238,-0.01172 13.96072,-0.38672 14.92347,-0.32666l-0.01246,1.06348c-5.26874,0.08936 -9.76933,0.18604 -14.82192,1.72559c-0.48709,0.23437 -1.8112,0.92432 -2.26634,0.94043c-0.10199,-0.62256 -0.30187,-1.43262 -0.43917,-2.06396c0.52871,-0.10547 1.13757,-0.18604 1.67624,-0.271c0.24633,0.66504 0.32004,0.7793 0.80713,1.29492c0.69107,-0.59473 0.32341,-1.61572 0.13306,-2.36279z" fill="#fde8a0"/><path d="M94.07409,171.55225c0.48445,0.21973 1.66818,0.72217 2.06925,0.96973c-0.78456,0.34277 -1.93268,0.41602 -2.55311,-0.24902c0.09422,-0.48926 0.05187,-0.33545 0.48387,-0.7207z" fill="#db6f33"/><path d="M81.55558,170.67773c0.65077,-0.04541 1.54421,-0.08496 1.84021,0.5918c-0.31696,0.40283 -0.30685,0.30469 -0.85841,0.51416c-0.70645,0.03662 -1.27077,0.15527 -1.75625,-0.44238c0.22112,-0.47607 0.21541,-0.35742 0.77445,-0.66357z" fill="#db6f33"/><path d="M56.76417,152.24561c1.49438,0.0542 3.34617,-0.00732 4.86752,-0.01611c0.45558,0.82324 0.99323,1.6333 1.50332,2.42725c1.70276,1.771 2.73922,2.83887 3.5015,5.25439c0.36854,1.16895 0.98121,2.39941 1.33378,3.59619c-0.23153,0.87012 -0.42525,1.51758 -0.72946,2.36572c-0.13643,0.42773 -0.39755,1.16162 -0.49603,1.57031c-4.87558,0.5918 -9.82618,0.73242 -14.72945,0.7793c-0.06477,-0.43945 -0.24252,-1.13672 -0.3426,-1.59229c-0.1313,-0.6958 -0.79657,-2.52393 -1.04979,-3.27686l1.14929,-3.11133l0.65707,-1.73438c0.24076,-0.73242 0.34715,-0.9126 0.74309,-1.56006c1.74086,-1.98047 2.28979,-2.4126 3.59177,-4.70215z" fill="#fde8a0"/><path d="M63.13501,154.65674c1.70276,1.771 2.73922,2.83887 3.5015,5.25439c0.36854,1.16895 0.98121,2.39941 1.33378,3.59619c-0.23153,0.87012 -0.42525,1.51758 -0.72946,2.36572c-0.88611,0.09961 -2.13021,0.39697 -3.04416,0.55371c-1.69866,0.29004 -6.54463,0.45996 -8.04473,-0.0791l-0.04294,-0.19043c0.86794,-0.64307 3.80132,-1.09863 4.95778,-1.32715c-0.82588,-0.11279 -2.5493,-0.22852 -2.96503,-0.98877l0.21731,-0.27979c1.41848,-0.66357 4.51979,-0.77344 6.26108,-0.97119c-1.45291,-0.17285 -2.50373,-0.16699 -4.03724,-0.4292c1.56721,-0.271 4.02889,-0.38818 5.76037,-0.59326c-1.45643,-0.30762 -7.37872,-0.73096 -8.5223,-1.64502c0.16632,-0.15967 0.16485,-0.14648 0.21336,-0.36914l-1.67624,-0.96387l0.00454,-0.17871c1.36983,-0.90234 6.49071,-1.33887 8.31524,-1.53662c-2.38386,-0.53906 -5.42333,-0.77637 -7.9659,-1.229c1.29993,-0.25928 5.65589,-0.67236 6.46301,-0.98877z" fill="#f8b05e"/><path d="M51.77224,160.24219c0.85021,0.30469 4.79821,1.45605 5.21774,1.75342l-0.06975,0.14209c-1.03059,0.25195 -5.19386,0.28418 -6.55299,0.38232l0.05319,0.02197c1.32162,0.53467 5.87789,0.94482 6.90863,1.81494c-0.05539,0.9375 -3.39629,1.32861 -4.18949,1.69482c-0.24354,0.11279 -1.24439,0.52441 -1.46683,0.57861c-0.1313,-0.6958 -0.79657,-2.52393 -1.04979,-3.27686z" fill="#f8b05e"/><path d="M52.42931,158.50781c0.24076,-0.73242 0.34715,-0.9126 0.74309,-1.56006c0.73063,0.10986 1.5108,0.21387 2.23366,0.34424c-0.96539,0.38086 -2.0439,0.78223 -2.97675,1.21582z" fill="#f8b05e"/><path d="M92.42994,154.24072c3.6791,-0.02783 7.3585,-0.02637 11.0376,0.00732c-0.1754,1.76953 -0.40268,3.39404 -0.80478,5.12549c-0.07884,0.33984 -0.52182,2.26758 -0.50086,2.50342l-0.22274,0.54932c-0.91146,3.02197 -2.42372,6.86279 -4.06904,9.57275c-0.21131,0.36328 -0.43771,0.73975 -0.63538,1.10742c-0.34553,-0.46582 -0.53691,-0.44971 -1.09141,-0.58447c-0.40107,-0.24756 -1.5848,-0.75 -2.06925,-0.96973c-1.09639,-0.49512 -2.33272,-1.01221 -3.34441,-1.64502c0.55332,-0.14648 0.80654,0.00586 1.48691,-0.29883c0.17453,-1.03711 0.0699,-5.33936 0.11239,-6.72803l0.01114,-0.79395l0.09349,-0.86279c-0.04396,-2.30273 -0.00952,-4.67578 -0.00366,-6.98291z" fill="#ec8f42"/><path d="M101.93916,162.42627c-0.91146,3.02197 -2.42372,6.86279 -4.06904,9.57275c-0.21131,0.36328 -0.43771,0.73975 -0.63538,1.10742c-0.34553,-0.46582 -0.53691,-0.44971 -1.09141,-0.58447c-0.40107,-0.24756 -1.5848,-0.75 -2.06925,-0.96973c-1.09639,-0.49512 -2.33272,-1.01221 -3.34441,-1.64502c0.55332,-0.14648 0.80654,0.00586 1.48691,-0.29883c0.17453,-1.03711 0.0699,-5.33936 0.11239,-6.72803l0.08909,-0.02197l0.03605,0.19336c1.84842,0.03223 7.71869,-0.34424 9.48504,-0.62549z" fill="#f9a54e"/><path d="M92.32898,162.88037l0.08909,-0.02197l0.03605,0.19336c-0.02476,2.15039 -0.07693,4.35791 -0.01172,6.50391c1.70217,0.69434 3.79926,1.59668 5.42773,2.44336c-0.21131,0.36328 -0.43771,0.73975 -0.63538,1.10742c-0.34553,-0.46582 -0.53691,-0.44971 -1.09141,-0.58447c-0.40107,-0.24756 -1.5848,-0.75 -2.06925,-0.96973c-1.09639,-0.49512 -2.33272,-1.01221 -3.34441,-1.64502c0.55332,-0.14648 0.80654,0.00586 1.48691,-0.29883c0.17453,-1.03711 0.0699,-5.33936 0.11239,-6.72803z" fill="#b14a2a"/><path d="M92.4336,161.22363c0.32751,0.02783 0.91307,0.06006 1.20937,0.1582c1.23765,0.41162 2.5833,0.19629 3.82227,0.35596c1.0369,-0.00586 4.09981,-0.28857 4.69666,0.13916l-0.22274,0.54932c-1.76636,0.28125 -7.63663,0.65771 -9.48504,0.62549l-0.03605,-0.19336l-0.08909,0.02197l0.01114,-0.79395z" fill="#fde8a0"/><path d="M92.4336,161.22363c0.32751,0.02783 0.91307,0.06006 1.20937,0.1582c1.23765,0.41162 2.5833,0.19629 3.82227,0.35596c-1.41936,0.1626 -4.22525,-0.20801 -4.98475,0.55225l-0.06242,0.56836l-0.08909,0.02197l0.01114,-0.79395z" fill="#f9a54e"/><path d="M73.45546,153.69727c0.55948,0.82031 3.10673,0.4834 4.14831,0.55225c2.29858,-0.22266 5.37659,0.18164 7.84295,-0.02783l4.84275,-0.00293c-0.00718,1.18945 -0.08616,3.8584 0.04572,4.92334l-0.06301,0.34717l0.02872,2.62207c-0.96275,-0.06006 -14.89109,0.31494 -14.92347,0.32666c-0.11767,-0.49219 -0.4402,-1.40332 -0.60534,-1.91748c-0.23798,-0.55664 -0.59772,-1.1543 -0.89798,-1.6875c-0.26626,-0.35156 -0.79379,-0.86865 -1.11515,-1.20264l-1.04715,-0.80859l-0.57047,-0.31641c-1.76694,-0.80127 -3.17135,-0.6709 -4.68024,-1.66992l0.41104,-0.18457c1.38829,0.86426 2.13929,0.79248 3.3787,-0.26221c0.58542,0.23291 2.26737,0.18457 2.89088,-0.06885c0.19533,-0.0791 0.24516,-0.41602 0.31374,-0.62256z" fill="#ec8f42"/><path d="M74.77209,160.52051c0.70807,-0.44824 7.05956,-0.31348 8.40272,-0.43213c2.19761,-0.19189 4.88129,-0.45703 7.09737,-0.59912l0.02872,2.62207c-0.96275,-0.06006 -14.89109,0.31494 -14.92347,0.32666c-0.11767,-0.49219 -0.4402,-1.40332 -0.60534,-1.91748z" fill="url(#color-4)"/><path d="M73.87411,158.83301c1.06562,-0.74854 11.6768,0.3999 13.70282,0.20654c0.27417,-0.02637 2.44043,0.0542 2.75827,0.10254l-0.06301,0.34717c-2.21608,0.14209 -4.89976,0.40723 -7.09737,0.59912c-1.34316,0.11865 -7.69466,-0.01611 -8.40272,0.43213c-0.23798,-0.55664 -0.59772,-1.1543 -0.89798,-1.6875z" fill="#f8b05e"/><path d="M71.71181,156.82178c0.63597,-0.39551 0.72052,-0.56689 1.5508,-0.5332c4.44403,0.17871 9.17629,0.1377 13.59423,0.36182c-2.39251,0.32227 -4.66163,0.40869 -7.0663,0.54199c-2.28217,0.12598 -4.76348,0.46436 -7.03158,0.43799z" fill="#f8b05e"/><path d="M73.45546,153.69727c0.55948,0.82031 3.10673,0.4834 4.14831,0.55225c-1.2378,0.33252 -2.98525,-0.10986 -3.96295,0.32959c0.52079,0.30469 6.25933,-0.07471 6.43063,0.19482c-1.28366,0.06885 -2.06837,0.10986 -3.33518,0.31787c-0.97139,0.15967 -3.79062,-0.38379 -4.70032,0.09229c-0.24017,0.61523 -0.3196,0.97998 -0.89461,1.32129c-1.76694,-0.80127 -3.17135,-0.6709 -4.68024,-1.66992l0.41104,-0.18457c1.38829,0.86426 2.13929,0.79248 3.3787,-0.26221c0.58542,0.23291 2.26737,0.18457 2.89088,-0.06885c0.19533,-0.0791 0.24516,-0.41602 0.31374,-0.62256z" fill="#f8b05e"/><path d="M48.62843,166.80469c1.44222,2.6499 2.1094,5.96191 3.17648,7.79443c-0.677,0.74561 -4.5488,3.15674 -5.7781,4.19531l-0.59377,0.35742c-0.83907,-0.08496 -1.57044,-0.16992 -2.40247,-0.30469c-0.37675,-1.52197 -1.87655,-4.10742 -2.05254,-5.04199c1.85149,-0.60791 3.98654,-1.66553 5.46861,-2.91797c1.23296,-1.0415 1.68195,-2.61621 2.18179,-4.08252z" fill="#f9a54e"/><path d="M43.03058,178.84717c0.62982,-0.76318 2.7612,-0.96973 2.99624,-0.05273l-0.59377,0.35742c-0.83907,-0.08496 -1.57044,-0.16992 -2.40247,-0.30469z" fill="#f8b05e"/><path d="M92.37338,137.79976c0.10888,0.95024 0.07517,1.8709 0.0847,2.82349c0.03341,3.29253 -0.02242,6.59941 0.03268,9.89092c1.43196,-0.21973 4.47714,-0.81885 5.73692,-0.72803c1.91729,0.1377 3.23598,0.68701 5.36223,0.60059c-0.00513,1.22168 0.02916,2.66602 -0.12236,3.86133c-3.6791,-0.03369 -7.3585,-0.03516 -11.0376,-0.00732c-0.00586,2.30713 -0.0403,4.68018 0.00366,6.98291l-0.09349,0.86279c-0.1924,-2.83154 -0.01773,-7.53516 0.01597,-10.48682c0.04762,-4.19531 -0.23475,-9.6936 0.01729,-13.79985z" fill="#b14a2a"/><path d="M27.80612,152.25146c3.80835,0.04688 7.69876,-0.06299 11.5433,-0.03662l3.2562,0.03662c0.73503,-0.01758 4.78106,-0.1377 5.39754,0.00439c-0.03869,1.2041 -0.0444,1.44873 0.78119,2.40527c-0.48108,0.2666 -5.26551,0.08057 -5.74557,-0.33105l0.33586,-0.03955l0.10741,-0.20068c-1.31619,0.03223 -4.44256,0.24023 -5.53602,0.13916c-3.33899,0.00293 -6.79008,-0.03516 -10.11896,0.04834c-0.04425,-0.45117 -0.0192,-1.52637 -0.02095,-2.02588z" fill="#b14a2a"/><path d="M42.80374,152.33789c1.354,-0.00293 3.94815,0.06006 5.19942,-0.08203c-0.03869,1.2041 -0.0444,1.44873 0.78119,2.40527c-0.48108,0.2666 -5.26551,0.08057 -5.74557,-0.33105l0.33586,-0.03955l0.10741,-0.20068z" fill="#fde8a0"/><path d="M42.60562,152.25146c0.73503,-0.01758 4.78106,-0.1377 5.39754,0.00439c-1.25128,0.14209 -3.84542,0.0791 -5.19942,0.08203l0.67832,1.75195c-1.31619,0.03223 -4.44256,0.24023 -5.53602,0.13916c0.84977,-0.1582 1.59857,0.00439 2.41376,-0.18896l0.01846,-0.13623l-0.74485,-0.39404c-0.03136,-0.23291 -0.02828,-0.56836 -0.0337,-0.81006c0.67759,-0.9126 2.18047,0.12158 3.00591,-0.44824z" fill="#db6f33"/><path d="M39.34942,152.21484l3.2562,0.03662c-0.82544,0.56982 -2.32833,-0.46436 -3.00591,0.44824c0.00542,0.2417 0.00234,0.57715 0.0337,0.81006c-1.09815,-0.33398 -2.97236,-0.56396 -4.17,-0.77637c-0.87395,-0.15527 -2.25828,0.49951 -3.14336,-0.10254l0.07254,-0.1626c0.48211,-0.18457 5.4141,-0.03076 6.95684,-0.25342z" fill="#ed6544"/><path d="M72.38134,152.21924c4.10113,-0.1333 8.41825,0.05273 12.54283,0.01465c1.91656,-0.01758 3.52788,0.104 5.48415,-0.02197l0.01714,11.65723c0.0022,1.27148 0.06858,4.97314 -0.10111,6.01465c-0.14199,-1.85303 -0.02315,-4.73291 -0.0359,-6.70898l0.01246,-1.06348l-0.02872,-2.62207l0.06301,-0.34717c-0.13188,-1.06494 -0.0529,-3.73389 -0.04572,-4.92334l-4.84275,0.00293c-2.46636,0.20947 -5.54437,-0.19482 -7.84295,0.02783c-1.04158,-0.06885 -3.58884,0.26807 -4.14831,-0.55225c0.13599,-0.42627 0.24017,-0.91846 0.34407,-1.35791c-0.43097,0.00146 -0.98063,-0.07471 -1.41818,-0.12012z" fill="#b14a2a"/><path d="M73.79953,152.33936l4.52418,0.0293c0.59479,0.11426 1.15955,0.0791 1.4387,0.44238l0.03546,0.99902c-0.23505,0.17871 -0.42466,0.15088 -0.75379,0.19775c0.30656,0.03223 1.1169,0.14209 1.37921,0.09814c1.35561,0.01611 3.75604,-0.02344 5.02343,0.11572c-2.46636,0.20947 -5.54437,-0.19482 -7.84295,0.02783c-1.04158,-0.06885 -3.58884,0.26807 -4.14831,-0.55225c0.13599,-0.42627 0.24017,-0.91846 0.34407,-1.35791z" fill="#ef7348"/><path d="M78.32371,152.36865c2.5496,-0.08643 5.65457,-0.03662 8.23904,-0.00293c-2.11995,1.61865 -4.20415,0.3252 -6.13946,1.74023c-0.2623,0.04395 -1.07265,-0.06592 -1.37921,-0.09814c0.32912,-0.04687 0.51874,-0.01904 0.75379,-0.19775l-0.03546,-0.99902c-0.27915,-0.36328 -0.84391,-0.32812 -1.4387,-0.44238z" fill="#ed6544"/><path d="M72.38134,152.21924c0.43756,0.04541 0.98722,0.12158 1.41818,0.12012c-0.10389,0.43945 -0.20808,0.93164 -0.34407,1.35791c-0.06858,0.20654 -0.1184,0.54346 -0.31374,0.62256c-0.62351,0.25342 -2.30547,0.30176 -2.89088,0.06885c0.46994,-1.02979 0.12192,-1.18799 0.43624,-1.96729c0.39858,-0.2915 1.16629,-0.20654 1.69426,-0.20215z" fill="#fde8a0"/><path d="M71.32921,158.96191c1.55871,1.06641 1.83772,1.76221 2.64485,3.41455l0.07591,0.31201c-0.54072,0.33545 -0.89373,0.2124 -1.60224,0.15088l-0.23226,-0.43799c0.00703,-0.2168 -0.77474,-3 -0.88626,-3.43945z" fill="#f9a54e"/><path d="M72.21546,162.40137c0.56138,-0.13916 1.1764,-0.06299 1.75859,-0.0249l0.07591,0.31201c-0.54072,0.33545 -0.89373,0.2124 -1.60224,0.15088z" fill="#fde8a0"/><path d="M63.66254,152.30859c0.75789,-0.04395 2.22678,-0.26074 2.72354,0.16553c0.10624,1.03711 0.00322,1.23047 0.48606,2.17676l-0.41104,0.18457c-1.20673,-0.78809 -1.84988,-1.45605 -2.79856,-2.52686z" fill="#fde8a0"/><path d="M51.77634,154.38867c0.92773,-2.49316 -0.38803,-2.19727 3.02174,-2.0918c-0.85988,0.87598 -1.34081,1.36963 -2.33829,2.1167z" fill="#fde8a0"/><path d="M74.04996,162.68848l0.3873,0.81738c-0.53867,0.08496 -1.14753,0.16553 -1.67624,0.271l-0.3133,-0.9375c0.70851,0.06152 1.06151,0.18457 1.60224,-0.15088z" fill="#f9a54e"/><path d="M49.70621,155.04492c0.79877,-0.03955 1.35752,-0.30322 2.07013,-0.65625l0.68345,0.0249c-0.79701,0.53467 -1.23663,0.854 -2.22502,0.97412z" fill="#f9a54e"/><path d="M67.59882,140.46943l0.32868,0.00747l2.46622,0.02124c0.58893,-0.02168 1.17786,-0.05581 1.76577,-0.01538l-0.04337,0.11426l0.37001,0.06328l0.43404,-0.05889c0.06448,0.45454 -0.23534,0.33354 -0.20588,0.84038c0.43023,0.4125 0.43448,1.21714 0.47918,1.82153l-0.12734,0.3063l0.46232,0.1377c0.03737,1.41577 -0.00322,0.73887 0.61121,1.72236l-0.17013,0.25005c0.26538,0.66196 0.32267,1.28804 0.42393,1.99116l-0.06858,0.15088c0.00308,0.58594 0.03209,1.40332 -0.02814,1.96875l-0.04513,0.12451c-0.55332,0.15381 -0.43302,0.03076 -0.69561,0.43652c0.01846,0.33252 0.01202,0.56982 0.1376,0.8833l-0.49192,-0.03955l-2.52674,-0.01318l-0.35154,-0.00586l-1.08174,-0.02051c-0.55699,0.05566 -1.15149,0.01025 -1.71346,-0.01465l-2.46871,0.0542l-0.36605,0.00293c-1.43562,0.03076 -1.79801,0.28564 -2.51736,-1.06055c-0.01026,-0.24902 -0.38217,-0.65039 -0.56431,-0.88623c-0.17306,-0.31641 -0.34539,-0.82178 -0.47654,-1.1748c-0.04206,-0.75146 -0.16588,-1.87544 0.08572,-2.54912c-0.30729,-0.38394 -0.24208,-0.44414 -0.60652,-0.49233l-0.07078,0.32183l-0.12353,0.42319l-0.31535,1.90825l-0.04425,0.15234c0.08367,0.64893 0.12705,1.19824 0.35491,1.81494l0.02784,0.18457c0.28707,0.37939 0.4547,0.55078 0.55494,1.01367c-0.36517,0.49805 -1.06767,0.36768 -1.64781,0.3457l-0.29073,0.00586c-0.60915,-0.01758 -1.18871,0.06152 -1.63521,-0.24463c-0.05979,-0.39404 0.20149,-0.67529 0.43287,-1.01953l0.108,-0.49072c0.06887,-0.47461 0.06565,-1.08838 0.07781,-1.57764l-0.13423,-0.32959c0.02579,-0.52588 -0.12602,-1.23281 -0.21761,-1.76689l-0.00909,-0.37456c-0.08851,-0.09272 -0.27652,-0.23818 -0.38349,-0.32607l-0.38202,0.10459c-0.03297,1.16689 0.07825,2.68667 -0.1291,3.83218c-0.04147,0.22998 -0.56475,0.76025 -0.57838,1.00635c-0.68037,1.47363 -0.99645,1.22461 -2.54373,1.1543l-0.36751,0.01318l-2.48278,-0.03076l-0.35271,-0.11426c-0.76243,0.04688 -1.74819,0.14209 -2.48834,0.15527l-0.39668,-0.00586l-2.45801,-0.02051l-0.3152,0.0542c-0.62645,-0.06006 -1.64033,-0.0498 -2.29843,-0.06299l-0.06008,-1.17627l-0.04206,-0.30176c-0.03825,-0.38965 -0.017,-1.18213 -0.01861,-1.604l0.06917,-0.59473c-0.02374,-0.73828 -0.03077,-0.95947 0.11518,-1.70259l0.02227,-0.38745c0.06242,-0.5001 0.24545,-1.46074 0.55508,-1.85039l0.02945,-0.2335l0.15181,-0.06504c0.08953,-0.41265 0.43829,-1.21348 0.60754,-1.63521l0.19636,-0.12642l0.03268,-0.27451c-0.53471,-0.21885 -0.77152,0.09976 -1.58582,-0.00718c-0.34363,-0.29253 -0.24208,-0.19087 -0.31212,-0.74443c0.80683,0.00879 2.0584,-0.01875 2.82728,0.03779l2.5622,-0.01113l0.36532,0.00293c0.734,0.00571 1.72474,-0.01685 2.43662,0.029l0.32502,-0.01934c0.8105,0.00073 1.78863,-0.02505 2.58433,0.00996l0.28399,-0.02695l2.70771,-0.00952l0.19372,0.00938l2.66873,-0.02446l0.16485,0.02695l2.48058,-0.0022l0.23636,0.00659l2.68031,0.00923l0.2538,-0.0123z" fill="#c08e5f"/><path d="M73.06611,143.56963c0.05217,0.2146 0.10199,1.51699 0.11723,1.81743l-2.47091,0.00015l-0.01509,-1.72148z" fill="#fde8a0"/><path d="M56.56429,143.65195c0.81035,-0.01421 1.67155,-0.04409 2.47662,-0.00513c0.0255,0.53774 0.13833,1.24966 -0.14522,1.67344c-0.39536,0.23232 -0.75247,0.13638 -1.21347,0.08174c-0.08851,-0.09272 -0.27652,-0.23818 -0.38349,-0.32607l-0.38202,0.10459l-0.29307,0.00161c-0.15196,-0.52134 -0.09071,-0.99111 -0.05935,-1.53018z" fill="#fde8a0"/><path d="M42.38508,148.07959c0.45514,-0.25195 1.78555,-0.18018 2.37829,-0.18457c0.01333,0.66211 0.02242,1.12354 -0.04206,1.79004l-2.31763,-0.00146c-0.03825,-0.38965 -0.017,-1.18213 -0.01861,-1.604z" fill="#fde8a0"/><path d="M59.35963,143.62031l2.43456,0.01304c0.03341,0.53276 0.14082,1.23003 -0.0803,1.69146c-0.17819,0.10005 -0.28912,0.18369 -0.49295,0.20273c-0.30729,-0.38394 -0.24208,-0.44414 -0.60652,-0.49233l-0.07078,0.32183c-0.62747,0.04849 -0.62293,0.1478 -1.09785,-0.10137c-0.21585,-0.43799 -0.11488,-1.12485 -0.08616,-1.63535z" fill="#fde8a0"/><path d="M72.71427,141.4418c0.43023,0.4125 0.43448,1.21714 0.47918,1.82153l-2.51135,0.01392l-0.04689,-1.74639c0.79657,0.00864 1.28909,0.01934 2.07907,-0.08906z" fill="#fde8a0"/><path d="M42.56942,145.78228l2.22179,-0.03765l-0.04176,1.75195l-2.29521,-0.01172c-0.02374,-0.73828 -0.03077,-0.95947 0.11518,-1.70259z" fill="#fde8a0"/><path d="M43.14678,143.54443c0.51156,0.01143 1.14768,-0.05537 1.50244,0.27568c0.2116,0.44033 0.12338,1.09292 0.10008,1.6002c-0.57736,-0.00161 -1.61704,0.02476 -2.15761,-0.02549c0.06242,-0.5001 0.24545,-1.46074 0.55508,-1.85039z" fill="#fde8a0"/><path d="M73.21821,149.98535c-0.00571,0.37793 -0.02623,0.84082 -0.01656,1.20996l-2.52674,-0.01318c0.00015,-0.68848 -0.10946,-0.6167 0.22772,-1.07666c0.57047,-0.28564 1.57337,-0.09229 2.31558,-0.12012z" fill="#fde8a0"/><path d="M65.05948,151.19531c0.01495,-0.31348 -0.04396,-0.89648 0.22303,-1.03125c1.11822,-0.56543 2.34943,-0.52734 2.24568,0.97705z" fill="#fde8a0"/><path d="M50.81521,151.15576c0.01641,-0.30322 -0.04748,-0.80127 0.20237,-0.97119c0.72668,-0.49512 1.72533,-0.49658 2.26883,0.23877l0.01158,0.76318z" fill="#fde8a0"/><path d="M45.11946,151.17041c0.05803,-1.021 0.05671,-1.16748 1.31619,-1.3374c0.17878,-0.02344 0.73811,0.23584 0.92406,0.3208c0.31608,0.41309 0.20955,0.39844 0.21775,1.03711z" fill="#fde8a0"/><path d="M42.44575,149.98535c0.70909,-0.01611 1.73265,-0.17432 2.23264,0.21387c0.18434,0.37354 0.14258,0.60938 0.12588,1.02539c-0.62645,-0.06006 -1.64033,-0.0498 -2.29843,-0.06299z" fill="#fde8a0"/><path d="M53.6655,151.17334c-0.02667,-0.41016 -0.06345,-0.59473 0.09422,-0.97705c0.62029,-0.44824 1.62509,-0.23291 2.44951,-0.17725c-0.68037,1.47363 -0.99645,1.22461 -2.54373,1.1543z" fill="#fde8a0"/><path d="M69.24164,151.15576c-0.66059,-0.07764 -0.74646,0.01611 -1.22637,-0.36621c-0.17497,-1.00342 1.52003,-1.0957 2.11394,-0.65625c0.29718,0.21973 0.22332,0.71924 0.19416,1.04297z" fill="#fde8a0"/><path d="M47.97415,151.19678c0.01714,-0.83496 0.21087,-1.29785 1.11104,-1.34033c1.15383,-0.05273 1.31693,0.36914 1.3773,1.18506c-0.76243,0.04688 -1.74819,0.14209 -2.48834,0.15527z" fill="#fde8a0"/><path d="M62.17607,150.1377c0.76097,-0.23877 1.88578,-0.44824 2.49406,0.17578c0.05099,0.38818 0.04616,0.50391 0.0233,0.88477c-1.43562,0.03076 -1.79801,0.28564 -2.51736,-1.06055z" fill="#fde8a0"/><path d="M57.69131,145.77656c0.6833,-0.00937 0.711,-0.11602 1.23252,0.2127c0.59157,1.06934 0.12309,1.56885 -1.01491,1.5542c0.02579,-0.52588 -0.12602,-1.23281 -0.21761,-1.76689z" fill="#fde8a0"/><path d="M44.13195,141.48428c0.67202,0.19028 0.7447,0.40854 0.66982,1.12354c-0.49661,0.81958 -0.44943,0.72803 -1.47372,0.63809c0.08953,-0.41265 0.43829,-1.21348 0.60754,-1.63521z" fill="#fde8a0"/><path d="M60.44327,149.84033c0.28707,0.37939 0.4547,0.55078 0.55494,1.01367c-0.36517,0.49805 -1.06767,0.36768 -1.64781,0.3457c0.00791,-0.32959 0.03033,-0.67383 0.04718,-1.00488c0.3492,-0.36328 0.44796,-0.26953 1.04569,-0.35449z" fill="#fde8a0"/><path d="M57.85733,149.94141c0.57853,0.01465 0.82793,-0.09229 1.17288,0.2373c0.01978,0.34717 0.04499,0.67969 0.02945,1.02686c-0.60915,-0.01758 -1.18871,0.06152 -1.63521,-0.24463c-0.05979,-0.39404 0.20149,-0.67529 0.43287,-1.01953z" fill="#fde8a0"/><path d="M58.04314,147.87305c0.66455,-0.01611 0.53032,-0.11572 0.96245,0.22412c0.29395,0.61377 0.18537,1.28174 -0.42862,1.63037c-0.4336,-0.0835 -0.38129,-0.00146 -0.61165,-0.27686c0.06887,-0.47461 0.06565,-1.08838 0.07781,-1.57764z" fill="#fde8a0"/><path d="M62.10339,140.48716l2.68031,0.00923c-0.08968,0.48691 0.00571,0.33501 -0.32048,0.61875c-0.92597,0.23203 -2.00682,0.45146 -2.35983,-0.62798z" fill="#fde8a0"/><path d="M56.55286,140.48027l2.66873,-0.02446l-0.15562,0.47871c-0.42437,0.44092 -1.98455,0.46069 -2.47222,0.04922z" fill="#fde8a0"/><path d="M65.0375,140.48408l2.56132,-0.01465l-0.10155,0.49146c-0.50086,0.4519 -1.78702,0.3999 -2.32071,0.04819c-0.08441,-0.05566 -0.11738,-0.40562 -0.13906,-0.525z" fill="#fde8a0"/><path d="M53.65143,140.48042l2.70771,-0.00952c-0.12514,0.35508 -0.13965,0.40928 -0.44034,0.63032c-0.93578,0.22251 -1.99979,0.53057 -2.26737,-0.6208z" fill="#fde8a0"/><path d="M50.78311,140.49741c0.8105,0.00073 1.78863,-0.02505 2.58433,0.00996l-0.0633,0.34058c-0.49398,0.52002 -1.87113,0.52676 -2.43911,0.1314z" fill="#fde8a0"/><path d="M59.38644,140.48276l2.48058,-0.0022l-0.07034,0.36328c-0.42774,0.41689 -1.77984,0.58286 -2.34034,0.17095c-0.06492,-0.0479 -0.06257,-0.41235 -0.0699,-0.53203z" fill="#fde8a0"/><path d="M45.09396,140.49595l2.5622,-0.01113l-0.04748,0.26309c-0.47126,0.52075 -1.75493,0.63062 -2.38885,0.27334c-0.06975,-0.0394 -0.10785,-0.41719 -0.12588,-0.52529z" fill="#fde8a0"/><path d="M67.9275,140.4769l2.46622,0.02124l-0.05056,0.3c-0.43346,0.51665 -1.78116,0.55122 -2.32481,0.18018z" fill="#fde8a0"/><path d="M60.10477,147.68848c-0.18596,-0.04395 -0.38818,-0.14941 -0.56549,-0.23145c-0.58791,-1.01675 -0.34817,-1.64385 0.88083,-1.67681z" fill="#fde8a0"/><path d="M48.02148,140.48774c0.734,0.00571 1.72474,-0.01685 2.43662,0.029c-0.05568,0.36328 0.0022,0.22603 -0.22933,0.5209c-0.72272,0.16963 -1.43621,0.34849 -2.12684,-0.06123z" fill="#fde8a0"/><path d="M60.41543,149.65576c-0.30362,0.03662 -0.47463,0.01025 -0.77181,-0.01904c-0.50702,-0.55518 -0.46848,-1.20117 0.00806,-1.76953l0.40884,-0.02637c0.08367,0.64893 0.12705,1.19824 0.35491,1.81494z" fill="#fde8a0"/><path d="M74.29673,149.79053l-0.45851,-0.09521c-0.69107,-0.68994 -0.5627,-1.62598 0.48665,-1.87354c0.00308,0.58594 0.03209,1.40332 -0.02814,1.96875z" fill="#fde8a0"/><path d="M73.96951,145.67974c0.26538,0.66196 0.32267,1.28804 0.42393,1.99116c-0.21775,-0.06152 -0.43683,-0.14502 -0.65033,-0.22266c-0.39712,-0.66504 -0.40093,-1.2731 0.2264,-1.76851z" fill="#fde8a0"/><path d="M72.48612,140.6603c-0.41807,0.6271 -1.5253,0.77988 -1.76152,0.03369c0.36077,-0.16655 0.97081,-0.10693 1.39151,-0.09697z" fill="#fde8a0"/><path d="M61.13522,148.07666l0.28106,-0.22119l0.23124,0.03223c0.24179,0.39844 0.18977,0.96973 -0.03576,1.36377c-0.17306,-0.31641 -0.34539,-0.82178 -0.47654,-1.1748z" fill="#fde8a0"/><path d="M73.19374,147.90381v1.7915l-2.5008,-0.02637l-0.02125,-1.74316z" fill="#fde8a0"/><path d="M50.80378,147.92871c0.78339,-0.03223 1.67917,-0.01611 2.47208,-0.01904c0.0252,0.51123 0.00865,1.23926 0.01143,1.76514c-0.7787,0.0293 -1.69866,0.00732 -2.48981,0.01025z" fill="#fde8a0"/><path d="M70.70276,145.77334l2.49626,0.00601l0.03927,1.70991l-2.56117,-0.00293z" fill="#fde8a0"/><path d="M62.17812,143.6729c0.75525,-0.05215 1.75625,-0.01479 2.53348,-0.00586c0.02843,0.46523 0.12309,1.32788 -0.11782,1.69116l-2.38313,0.05039z" fill="#fde8a0"/><path d="M46.64769,149.76562c-0.35726,-0.04395 -0.71525,-0.08203 -1.07368,-0.11279c-0.40034,-0.27246 -0.4273,-0.34277 -0.63451,-0.78516c0.12837,-1.11768 1.0536,-1.021 1.9148,-1.00635c1.08086,0.25195 1.08188,1.23193 0.33953,1.84717z" fill="#fde8a0"/><path d="M46.85431,147.86133c1.08086,0.25195 1.08188,1.23193 0.33953,1.84717l-0.54614,0.05713c0.1102,-0.67969 0.15489,-1.22168 0.20662,-1.9043z" fill="#fde8a0"/><path d="M62.15218,145.78066c0.74441,-0.02476 1.87318,-0.19189 2.43559,0.17754c0.29923,0.41382 0.16573,1.01543 0.11855,1.54424l-2.51912,-0.01172c0.02052,-0.48779 -0.02139,-1.20527 -0.03502,-1.71006z" fill="#fde8a0"/><path d="M51.61779,143.6083c0.4846,-0.00117 0.74236,0.0271 1.22388,0.09331c0.67803,0.47812 0.74441,0.93105 0.33894,1.62656l-0.39067,0.06899c-0.98106,0.052 -1.75566,0.24814 -2.1582,-0.83042c0.06975,-0.74209 0.3936,-0.84009 0.98605,-0.95845z" fill="#fde8a0"/><path d="M53.67209,143.69604c0.79115,-0.05273 1.76929,-0.25957 2.35192,0.19775c0.25336,0.43477 0.14375,0.96885 0.10067,1.48242l-2.46695,0.04834z" fill="#fde8a0"/><path d="M62.22018,147.95508l2.48746,-0.04395c0.02345,0.47754 -0.03326,1.2583 -0.05393,1.75928c-0.71979,0.03369 -1.67155,0.20361 -2.20274,-0.16846c-0.32018,-0.41455 -0.23754,-1.00488 -0.2308,-1.54687z" fill="#fde8a0"/><path d="M65.06446,147.94189l2.42328,-0.03369c0.02872,0.5083 0.01656,1.23633 0.02271,1.76074c-0.77855,0.0293 -1.65118,0.01611 -2.43823,0.02197z" fill="#fde8a0"/><path d="M57.10355,141.554c0.62278,-0.0189 1.31238,-0.00659 1.94118,-0.00835c0.02301,0.56602 0.0762,1.06201 -0.07928,1.61001l-0.31403,0.13799c-0.88772,0.03105 -1.72078,0.22969 -2.21388,-0.63882c-0.10316,-0.63428 0.08895,-0.92124 0.66601,-1.10083z" fill="#fde8a0"/><path d="M50.83675,145.76821l2.45713,-0.00249l0.00674,1.72061c-0.68286,0.02783 -1.79097,0.19775 -2.27704,-0.1377c-0.32018,-0.39111 -0.20882,-1.0478 -0.18683,-1.58042z" fill="#fde8a0"/><path d="M62.17299,141.55693c0.81167,-0.03677 1.71946,-0.00513 2.54007,0.00674l-0.02052,1.70171l-2.51311,0.01538z" fill="#fde8a0"/><path d="M45.11243,145.7707l2.47266,-0.02373l0.00484,1.72031c-0.75144,0.04395 -1.77295,0.24609 -2.31426,-0.17285c-0.27241,-0.41162 -0.18185,-1.01206 -0.16324,-1.52373z" fill="#fde8a0"/><path d="M53.66139,147.91992c0.72609,-0.04834 1.67741,0.00146 2.42343,0.02051l0.02374,1.72705c-0.76976,0.03076 -1.64517,0.01758 -2.42431,0.02344z" fill="#fde8a0"/><path d="M45.1284,143.68564l2.47574,-0.05815l0.02095,1.76001c-0.68535,0.01714 -1.76709,0.17578 -2.28217,-0.16772c-0.33498,-0.58169 -0.21775,-0.79702 -0.21453,-1.53413z" fill="#fde8a0"/><path d="M65.06548,145.76191c0.62982,-0.02285 1.79713,-0.15352 2.27337,0.15864c0.31901,0.38013 0.21673,1.03989 0.20207,1.56431c-0.70953,0.02344 -1.7835,0.19043 -2.2933,-0.17578c-0.29395,-0.42187 -0.20061,-1.01514 -0.18215,-1.54717z" fill="#fde8a0"/><path d="M65.07091,143.69517c0.72477,-0.04146 1.76738,-0.2313 2.29858,0.15381c0.28765,0.40283 0.20413,0.98188 0.19182,1.49297c-0.65707,0.02432 -1.85223,0.1979 -2.29887,-0.11367c-0.3218,-0.38789 -0.21365,-1.00591 -0.19152,-1.53311z" fill="#fde8a0"/><path d="M65.59815,141.54287c0.85651,-0.04482 1.53981,-0.24946 2.01869,0.57993c0.08587,0.48999 0.04074,0.56792 -0.15035,1.03403l-0.31593,0.12583c-1.06869,0.02666 -2.05005,0.26895 -2.22722,-1.05366c0.30128,-0.60293 0.12617,-0.46582 0.6748,-0.68613z" fill="#fde8a0"/><path d="M45.49079,141.53892c0.81225,0.00146 1.43987,-0.21606 2.01371,0.25151c0.1902,0.4853 0.25556,1.15298 -0.1713,1.49971c-0.62762,-0.00029 -1.41936,0.15923 -1.94821,-0.10327c-0.36795,-0.53862 -0.30612,-0.75425 -0.20764,-1.44448z" fill="#fde8a0"/><path d="M48.00756,143.66001c0.73796,-0.02314 1.73793,-0.18208 2.28275,0.20493c0.28003,0.39258 0.15445,0.98965 0.11313,1.49253l-2.40071,0.04424c-0.02975,-0.55649 -0.00484,-1.17949 0.00484,-1.7417z" fill="#fde8a0"/><path d="M50.8388,141.57451c0.75906,-0.07061 1.68767,-0.03281 2.46431,-0.02051l-0.02594,1.7291c-0.69078,0.02695 -1.75581,0.19189 -2.25813,-0.1563c-0.31652,-0.41279 -0.20706,-1.01133 -0.18024,-1.55229z" fill="#fde8a0"/><path d="M53.66344,145.76851c0.62674,-0.00967 1.83391,-0.15117 2.25374,0.13228c0.32692,0.39624 0.21819,1.04648 0.19826,1.58555l-2.45098,0.02783z" fill="#fde8a0"/><path d="M67.94596,141.52705c0.78236,-0.02051 1.61498,-0.15674 2.24026,0.19966c0.26582,0.40649 0.16485,1.02568 0.14009,1.53193l-2.41976,0.02021c-0.00967,-0.52441 0.02594,-1.21494 0.03942,-1.75181z" fill="#fde8a0"/><path d="M67.98303,147.95068c0.62952,-0.02344 1.73558,-0.19043 2.18106,0.14063c0.30392,0.41016 0.19504,1.06055 0.17116,1.59521c-0.68447,0.01025 -1.76137,0.1582 -2.22091,-0.20215c-0.27285,-0.40723 -0.16222,-1.02393 -0.1313,-1.53369z" fill="#fde8a0"/><path d="M48.05152,147.9375c0.62908,-0.02344 1.73661,-0.18457 2.18487,0.15234c0.30318,0.41162 0.18962,1.06201 0.16222,1.59814l-2.37463,-0.00293z" fill="#fde8a0"/><path d="M48.26209,141.53716l2.16963,-0.0104c0.00659,0.50801 0.09584,1.4168 -0.19211,1.777c-0.44034,0.01069 -1.73573,0.1415 -2.05049,-0.1626c-0.34949,-0.33765 -0.24061,-1.22314 0.07298,-1.604z" fill="#fde8a0"/><path d="M48.02968,145.77334c0.81519,-0.02153 1.60165,-0.1645 2.25799,0.19453c0.25981,0.41382 0.15211,1.01602 0.11972,1.52139l-2.395,0.00732c-0.04557,-0.54346 -0.00352,-1.17158 0.01729,-1.72324z" fill="#fde8a0"/><path d="M53.96795,141.54624l2.15453,-0.01523c0.02125,0.58184 0.15225,1.39658 -0.28985,1.77114l-2.13153,-0.01172c-0.0381,-0.59341 -0.20325,-1.37124 0.26684,-1.74419z" fill="#fde8a0"/><path d="M67.94552,143.65254c0.69737,-0.02065 1.72357,-0.17886 2.21491,0.18164c0.28897,0.41763 0.19489,0.9835 0.17321,1.50703l-2.39163,0.02021c-0.02594,-0.53452 -0.00264,-1.16616 0.00352,-1.70889z" fill="#fde8a0"/><path d="M59.36725,141.55371c0.78705,-0.02329 1.64517,-0.00923 2.43896,-0.01245c0.0107,0.51401 -0.02125,1.20059 -0.03151,1.72705l-2.40277,0.01831z" fill="#fde8a0"/><path d="M67.97073,145.77407c0.68228,-0.01582 1.75639,-0.17139 2.22209,0.19248c0.27212,0.41104 0.18083,1.00854 0.16148,1.51978c-0.69473,0.01758 -1.73558,0.17285 -2.22179,-0.19922c-0.2812,-0.4043 -0.18376,-1.00225 -0.16178,-1.51304z" fill="#fde8a0"/><path d="M61.28161,145.66128l0.35711,0.15806c0.23006,0.42363 0.15621,1.18066 0.14976,1.69043c-0.2878,0.08789 -0.16691,0.08203 -0.46438,-0.00879c-0.2094,-0.51709 -0.08748,-1.26138 -0.0425,-1.8397z" fill="#fde8a0"/><path d="M74.13217,140.49199c0.80097,-0.05845 1.23472,-0.0939 2.03598,-0.02432c0.68594,0.0082 1.58685,0.04365 2.25462,0.01113c0.84303,0.03032 1.90278,-0.06313 2.67195,0.02036l0.53852,0.00483l0.33953,-0.00776l0.25307,0.0019c2.50827,-0.16846 5.61295,-0.00557 8.22541,-0.06694c-0.05407,2.56743 -0.00689,5.13135 -0.05861,7.65864c0.01377,0.46289 0.01202,1.2334 0.0614,1.66992l-0.05056,0.1626c-0.0233,0.67236 0.09012,0.69141 -0.27256,1.13818c-0.70396,0.32373 -1.65557,0.01904 -2.60675,0.1377l-0.25937,-0.03955l-2.53787,0.00293l-0.31696,0.02051l-2.45816,-0.03369l-0.37338,0.01758l-2.62653,0.01611l-0.18097,0.0542c-0.61355,-0.08057 -1.86732,-0.06006 -2.5326,-0.06592l-0.26816,0.08203c-0.88845,-0.09814 -1.37891,-0.06592 -2.2766,-0.01758c-0.12558,-0.31348 -0.11913,-0.55078 -0.1376,-0.8833c0.26259,-0.40576 0.14229,-0.28271 0.69561,-0.43652l0.04513,-0.12451c0.06023,-0.56543 0.03121,-1.38281 0.02814,-1.96875l0.06858,-0.15088c-0.10126,-0.70312 -0.15855,-1.3292 -0.42393,-1.99116l0.17013,-0.25005c-0.61443,-0.9835 -0.57384,-0.30659 -0.61121,-1.72236l-0.46232,-0.1377l0.12734,-0.3063c-0.04469,-0.60439 -0.04894,-1.40903 -0.47918,-1.82153c-0.02945,-0.50684 0.27036,-0.38584 0.20588,-0.84038l-0.43404,0.05889l-0.37001,-0.06328l0.04337,-0.11426c0.42393,-0.0145 1.15515,-0.06035 1.55124,-0.0145z" fill="#b14a2a"/><path d="M87.48622,147.82178c0.63421,0.02783 2.43413,0.03662 2.90641,0.26807c0.01377,0.46289 0.01202,1.2334 0.0614,1.66992c-0.75335,-0.08936 -2.14208,-0.07031 -2.94598,-0.08203z" fill="#ed6544"/><path d="M73.52843,143.70732c0.91263,-0.07764 1.51094,-0.09639 2.42695,-0.07925l-0.05876,1.77319c-0.39111,0.01318 -1.41818,0.07251 -1.75698,0.02842c-0.61443,-0.9835 -0.57384,-0.30659 -0.61121,-1.72236z" fill="#db6f33"/><path d="M87.52418,151.19824c0.01641,-0.67676 -0.09627,-0.64014 0.2475,-1.06934c0.65136,-0.25195 1.80167,-0.16113 2.6318,-0.20654c-0.0233,0.67236 0.09012,0.69141 -0.27256,1.13818c-0.70396,0.32373 -1.65557,0.01904 -2.60675,0.1377z" fill="#ed6544"/><path d="M73.96951,145.67974c0.6474,0.0334 1.28352,0.07236 1.93224,0.06929c-0.00689,0.65244 0.10038,1.13525 -0.19445,1.62598c-0.6115,0.25928 -0.92714,0.14502 -1.31385,0.2959c-0.10126,-0.70312 -0.15855,-1.3292 -0.42393,-1.99116z" fill="#ef7348"/><path d="M78.95191,151.18213c0.02872,-0.29297 0.0044,-0.8833 0.25937,-0.99902c1.15837,-0.52441 2.47765,-0.6123 2.36716,0.98291z" fill="#ef7348"/><path d="M76.23834,151.17041c0.00352,-0.2168 -0.04557,-0.83496 0.10653,-0.93311c1.20893,-0.78662 2.36481,-0.48926 2.42607,0.99902c-0.61355,-0.08057 -1.86732,-0.06006 -2.5326,-0.06592z" fill="#ef7348"/><path d="M84.72693,151.16162c0.03414,-0.43506 -0.06843,-0.85254 0.36693,-1.06201c0.90179,-0.43359 1.15999,-0.34424 2.03804,0.08057c0.21438,0.29883 0.15386,0.6123 0.13291,0.97852z" fill="#ef7348"/><path d="M83.90281,149.9458l0.45983,0.14063c0.17159,0.41162 0.08323,0.45703 0.01524,0.96826l0.03209,0.12744l-2.45816,-0.03369c-0.02623,-0.39697 -0.06345,-0.56543 0.08191,-0.9375c0.50804,-0.27979 1.18226,-0.20508 1.86908,-0.26514z" fill="#ed6544"/><path d="M83.90281,149.9458l0.45983,0.14063c0.17159,0.41162 0.08323,0.45703 0.01524,0.96826c-0.50394,-0.08203 -0.4273,0.01318 -0.66103,-0.30615z" fill="#ef7348"/><path d="M74.25159,149.91504c0.62982,0.04834 1.21464,-0.02197 1.60605,0.36035c0.04645,0.3252 0.08397,0.65039 0.11254,0.97705c-0.88845,-0.09814 -1.37891,-0.06592 -2.2766,-0.01758c-0.12558,-0.31348 -0.11913,-0.55078 -0.1376,-0.8833c0.26259,-0.40576 0.14229,-0.28271 0.69561,-0.43652z" fill="#ef7348"/><path d="M74.32486,147.82178c0.82002,0.09082 1.39078,0.04395 1.75405,0.90381c-0.27021,1.1748 -0.90325,0.89795 -1.78218,1.06494c0.06023,-0.56543 0.03121,-1.38281 0.02814,-1.96875z" fill="#ef7348"/><path d="M76.16815,140.46768c0.68594,0.0082 1.58685,0.04365 2.25462,0.01113l0.20544,0.25532l-0.12045,0.23496c-0.15562,0.04937 -0.31227,0.0958 -0.46965,0.13916c-0.89915,0.24902 -1.63184,0.37896 -1.86996,-0.64058z" fill="#db6f33"/><path d="M73.71072,140.46826l0.42144,0.02373c0.51053,0.10532 1.11441,-0.02007 1.77471,0.14927l0.07649,0.28872c-0.36898,0.36533 -1.90293,0.30908 -2.39266,0.10664l-0.09276,-0.25869z" fill="#db6f33"/><path d="M82.22584,140.49814c0.69444,0.02959 1.38785,0.08013 2.07921,0.15161l-0.05275,0.15601c-0.69063,0.39536 -1.58524,0.66504 -2.28598,0.17402l0.00645,-0.48354z" fill="#db6f33"/><path d="M81.09472,140.49917l0.53852,0.00483l-0.05979,0.47812c-0.61487,0.43857 -1.75683,0.20493 -2.34884,-0.22178c0.19988,-0.179 1.51065,-0.23203 1.8701,-0.26118z" fill="#ef7348"/><path d="M87.49502,143.60845c0.88171,-0.03091 1.85706,0.01963 2.74669,0.04775l0.00147,1.77012l-2.75489,0.03574z" fill="#ef7348"/><path d="M87.47699,145.74287c0.82588,0.03574 2.01195,-0.18354 2.59649,0.22837c0.30905,0.39814 0.20911,0.9731 0.18683,1.49458c-0.8461,0.01465 -1.99627,0.28564 -2.6044,-0.15527c-0.29263,-0.4248 -0.19768,-1.03257 -0.17892,-1.56768z" fill="#ed6544"/><path d="M87.51216,141.54902l2.78098,-0.00967l-0.04982,1.71211c-0.88274,0.03618 -1.84094,0.02637 -2.73057,0.03413z" fill="#ef7348"/><path d="M80.22297,143.61064c0.42891,-0.01992 0.61062,-0.01597 1.03734,0.03003c0.3492,0.30732 0.37557,0.35669 0.49383,0.80713c-0.05935,0.45381 -0.0548,0.55723 -0.32634,0.92227l-0.50277,0.05039c-1.02459,0.05918 -1.36807,0.24697 -1.97136,-0.65391c-0.06155,-1.0188 0.42408,-1.09263 1.2693,-1.15591z" fill="#ef7348"/><path d="M79.09083,145.77568l2.5285,-0.02622l-0.0104,1.76763c-0.83804,0.02637 -1.73837,0.01465 -2.58227,0.02051z" fill="#ef7348"/><path d="M84.84607,143.62236l2.43383,-0.03208l-0.01861,1.83896l-2.49948,-0.02344z" fill="#ef7348"/><path d="M79.03632,147.95361l2.54872,-0.01318l-0.00791,1.72998l-2.59165,0.01318z" fill="#ef7348"/><path d="M79.05888,141.56074c0.78939,-0.00498 1.85223,-0.26675 2.40321,0.15952c0.26758,0.41147 0.16705,1.04487 0.14331,1.55698c-0.70221,0.01128 -1.8342,0.1645 -2.32657,-0.16523c-0.33396,-0.39844 -0.23475,-1.00796 -0.21995,-1.55127z" fill="#ef7348"/><path d="M86.68423,147.87158c0.35946,-0.01172 0.22171,-0.0498 0.52343,0.13916c0.64769,1.67139 -0.57179,1.74902 -1.81237,1.68164c-0.1798,0.00732 -0.34773,-0.05713 -0.52328,-0.10693l-0.25058,-0.5332c0.15577,-1.30371 0.98502,-1.17187 2.0628,-1.18066z" fill="#ef7348"/><path d="M76.22149,141.44956c0.66074,0.03179 1.83743,-0.06123 2.25095,0.22617c0.23666,0.35508 0.2541,0.57173 0.22464,1.00034c-0.06345,0.92563 -1.13976,0.58359 -1.83069,0.70518c-0.22816,-0.03486 -0.33601,-0.10181 -0.54644,-0.20054c-0.25703,-0.4998 -0.14024,-1.15386 -0.09847,-1.73115z" fill="#ef7348"/><path d="M76.8664,143.38125c-0.22816,-0.03486 -0.33601,-0.10181 -0.54644,-0.20054c-0.25703,-0.4998 -0.14024,-1.15386 -0.09847,-1.73115c1.26051,0.45645 0.69268,0.67236 0.64491,1.93169z" fill="#db6f33"/><path d="M77.76819,145.75737c0.78954,0.05259 0.83204,0.00806 1.03411,0.85444c-0.07078,0.41162 -0.0677,0.55957 -0.34084,0.87891l-0.56138,0.09375c-1.01521,0.01172 -1.23985,0.17432 -1.82673,-0.73535c-0.06682,-1.20762 0.83101,-1.08911 1.69485,-1.09175z" fill="#ef7348"/><path d="M77.76819,145.75737c0.78954,0.05259 0.83204,0.00806 1.03411,0.85444c-0.07078,0.41162 -0.0677,0.55957 -0.34084,0.87891l-0.56138,0.09375c0.017,-0.43359 -0.09071,-1.35864 -0.13188,-1.8271z" fill="#ed6544"/><path d="M84.84109,145.77715l2.51516,-0.01802c-0.10008,0.52119 -0.08631,1.20718 -0.0951,1.75063c-0.80815,0.01318 -1.67785,-0.00879 -2.49186,-0.01465c-0.01729,-0.57568 0.03224,-1.14287 0.0718,-1.71797z" fill="#ed6544"/><path d="M81.91694,143.60229c0.67099,-0.01509 1.85223,-0.16553 2.31939,0.2124c0.27549,0.43755 0.16515,1.03521 0.13086,1.56943c-0.78939,-0.00117 -1.661,0.04146 -2.45713,0.06313z" fill="#ef7348"/><path d="M73.4981,141.46113c0.7573,0.19922 1.69499,0.05464 2.49274,-0.01802l-0.05422,1.85054c-0.78852,0.02461 -1.64297,0.01113 -2.4375,0.01421z" fill="#db6f33"/><path d="M82.40037,147.63428l-0.29923,-0.12744c-0.34846,-0.39404 -0.3596,-1.12515 -0.06858,-1.54409c0.22362,-0.32197 0.53076,-0.23862 0.88713,-0.25928c0.45353,0.02227 0.80126,0.03838 1.25011,0.10884c0.36414,0.53188 0.3662,1.2668 -0.17247,1.67988c-0.42642,0.02197 -1.2101,0.04688 -1.59696,0.14209z" fill="#ed6544"/><path d="M82.40037,147.63428l-0.29923,-0.12744c-0.34846,-0.39404 -0.3596,-1.12515 -0.06858,-1.54409c0.22362,-0.32197 0.53076,-0.23862 0.88713,-0.25928c-0.13452,0.69346 -0.216,1.28921 -0.51933,1.93081z" fill="#ef7348"/><path d="M76.21533,145.43643c-0.03854,-0.66401 -0.20794,-1.31089 0.26596,-1.79561l0.58234,-0.00645c0.67319,0.0104 0.96993,-0.09185 1.50288,0.22134c0.21131,0.41133 0.13086,1.05937 0.1143,1.54277z" fill="#ef7348"/><path d="M76.21533,145.43643c-0.03854,-0.66401 -0.20794,-1.31089 0.26596,-1.79561l0.58234,-0.00645c0.0403,0.74766 0.26391,1.17744 -0.03121,1.61147z" fill="#db6f33"/><path d="M81.91269,141.50977c0.69356,-0.02402 1.8175,-0.19233 2.30635,0.20728c0.27153,0.41426 0.1694,1.01733 0.14243,1.53062l-2.4246,0.05566z" fill="#ef7348"/><path d="M81.92969,147.95361l2.41083,-0.01465c0.04557,0.4834 0.0422,1.21729 0.05612,1.72266l-2.46563,0.01611z" fill="#ed6544"/><path d="M85.60015,141.54448c0.43609,-0.0186 0.74734,-0.01509 1.18373,0.00527c0.4591,0.30806 0.31359,0.15542 0.57604,0.66299c0.00147,0.47871 -0.02828,0.53833 -0.24633,0.96738l-0.32707,0.09185c-0.98766,0.04541 -1.71829,0.2439 -2.16054,-0.81665c0.06829,-0.73052 0.38832,-0.80947 0.97418,-0.91084z" fill="#ef7348"/><path d="M76.22896,147.94336c0.6178,-0.01904 1.76885,-0.1377 2.24114,0.16992c0.32678,0.38379 0.2283,1.03418 0.21644,1.56445l-2.45933,0.01318z" fill="#ef7348"/><path d="M84.45496,140.69004c0.90706,-0.10005 2.3717,-0.40488 2.9788,0.32095c-0.86662,0.21563 -2.26033,0.2502 -2.9788,-0.32095z" fill="#ef7348"/><path d="M36.23243,140.49609c0.90223,-0.0416 5.21217,-0.13887 6.03425,-0.03794c0.07004,0.55356 -0.03151,0.4519 0.31212,0.74443c0.81431,0.10693 1.05111,-0.21167 1.58582,0.00718l-0.03268,0.27451l-0.19636,0.12642c-0.16925,0.42173 -0.51801,1.22256 -0.60754,1.63521l-0.15181,0.06504l-0.02945,0.2335c-0.30963,0.38965 -0.49266,1.35029 -0.55508,1.85039l-0.02227,0.38745c-0.14595,0.74312 -0.13892,0.96431 -0.11518,1.70259l-0.06917,0.59473c0.00161,0.42188 -0.01964,1.21436 0.01861,1.604l0.04206,0.30176l0.06008,1.17627l-0.57369,-0.01172l-2.49684,0.03516l-0.2116,0.08057l-0.74822,-0.10547l-1.79947,0.01172l-0.38847,-0.00586l-2.53729,0.01318l-0.2094,0.04102c-0.6093,-0.07031 -1.89018,-0.04102 -2.55018,-0.04395l-0.40957,-0.03809l-2.8182,0.03223c-0.15196,-0.68555 -0.07781,-5.01167 0.05495,-5.73809l0.00894,-1.79604l-0.06799,-0.36621c0.05598,-0.38716 0.03913,-1.32832 0.04308,-1.75884l-0.04279,-0.15952l-0.06404,-0.81753c0.78353,-0.16011 5.1181,-0.104 6.02516,-0.03574z" fill="#b14a2a"/><path d="M36.23243,140.49609c0.03048,0.23262 0.06975,0.34805 -0.00909,0.56133c0.01246,0.74692 0.02931,1.4937 0.05041,2.24048c-0.7636,0.02256 -1.65528,-0.01172 -2.42914,-0.02271c-0.01524,-0.7812 0.01304,-1.33096 0.07327,-2.11025l-0.19768,-0.6665z" fill="#ef7348"/><path d="M36.23243,140.49609c0.03048,0.23262 0.06975,0.34805 -0.00909,0.56133c-0.61414,0.08613 -1.65074,0.08892 -2.30547,0.10752l-0.19768,-0.6665z" fill="#f9a54e"/><path d="M27.80187,141.51123c0.86618,-0.12642 1.93824,-0.08716 2.83007,-0.07998l-0.0211,1.8665c-1.05243,0.03633 -1.80123,0.03135 -2.85205,-0.02769c0.05598,-0.38716 0.03913,-1.32832 0.04308,-1.75884z" fill="#ef7348"/><path d="M27.82678,143.63628c0.89065,-0.01289 1.90366,-0.05156 2.78391,-0.02842l0.01128,1.78726l-2.80413,0.03721z" fill="#ef7348"/><path d="M27.76289,151.17041c0.05598,-0.42334 0.02945,-0.86426 0.29205,-1.11182c0.90487,-0.17139 1.52208,-0.27393 2.40819,0.1377c0.21819,0.43359 0.14068,0.39258 0.11796,0.94189z" fill="#ed6544"/><path d="M30.99066,151.17627c0.0044,-0.67529 -0.10712,-0.61816 0.23402,-1.04004c0.82412,-0.34277 1.63271,-0.50977 2.28627,0.28711l0.02989,0.79688c-0.6093,-0.07031 -1.89018,-0.04102 -2.55018,-0.04395z" fill="#ef7348"/><path d="M39.43529,151.18506c0.00542,-0.646 -0.1017,-0.62549 0.21585,-1.04736c0.69796,-0.29004 1.70554,-0.53174 2.24802,0.22266l0.03297,0.78955z" fill="#ef7348"/><path d="M33.75024,151.1792c0.04543,-0.31787 0.04191,-0.87598 0.31359,-1.00635c1.14226,-0.54932 2.23,-0.4248 2.2237,0.99316z" fill="#ed6544"/><path d="M43.17623,143.31094c-0.32429,0.01406 -0.39609,0.02944 -0.68799,-0.10562c-0.09789,-0.14956 -0.27314,-0.40884 -0.29747,-0.58154c-0.04396,-0.31318 0.0614,-0.629 0.28472,-0.85312c0.32751,-0.33501 0.96392,-0.18794 1.46009,-0.15996c-0.16925,0.42173 -0.51801,1.22256 -0.60754,1.63521z" fill="#ec8f42"/><path d="M27.69504,140.53418c1.30052,0.02021 1.73016,-0.02417 2.98481,0.3019c-0.4402,0.53701 -2.27909,0.3646 -2.92077,0.51563z" fill="#f9a54e"/><path d="M37.72022,150.01172c0.63143,0.00146 0.92142,-0.11133 1.37261,0.20947c0.06755,0.38672 0.10067,0.65186 0.13086,1.04443l-0.74822,-0.10547c-0.77474,-0.25195 -0.66513,-0.41602 -0.75525,-1.14844z" fill="#ef7348"/><path d="M36.676,151.17187c-0.03282,-0.41895 -0.02066,-0.53027 0.03502,-0.94629c0.40884,-0.29004 0.41338,-0.19336 1.0092,-0.21387c0.09012,0.73242 -0.01949,0.89648 0.75525,1.14844z" fill="#ed6544"/><path d="M27.85052,147.93604c0.83687,-0.01172 1.96066,-0.24463 2.58022,0.18018c0.30963,0.38525 0.20002,1.02246 0.17716,1.54102c-0.79965,0.0498 -1.93649,0.02637 -2.76266,0.03516z" fill="#ed6544"/><path d="M27.87074,145.79912c0.87834,-0.01187 1.98177,-0.29429 2.61305,0.18062c0.27212,0.39873 0.17628,0.9895 0.15416,1.49048c-0.8612,0.00293 -2.01254,0.25342 -2.63532,-0.18604c-0.27388,-0.3999 -0.16427,-0.98291 -0.13188,-1.48506z" fill="#ef7348"/><path d="M36.61372,141.43081l2.51663,0.03149l-0.02022,1.81494l-2.46988,0.06914z" fill="#ef7348"/><path d="M30.94626,141.45542l2.57099,0.06006l-0.03473,1.75444c-0.82061,0.01099 -1.7032,0.06196 -2.52864,0.09419z" fill="#ef7348"/><path d="M36.65094,147.94482c0.81328,-0.05273 1.67345,-0.05566 2.49201,-0.07178l0.01744,1.83398l-2.49787,-0.02051z" fill="#ef7348"/><path d="M36.64186,143.62559l2.5027,0.02959l-0.01275,1.73379l-2.50139,0.04658z" fill="#ef7348"/><path d="M31.00136,147.93311l2.49084,0.01318c0.03004,0.46582 0.01246,1.24951 0.01568,1.73877l-2.5348,0.01904z" fill="#ef7348"/><path d="M30.9656,145.76982l2.55238,0.0627l-0.02257,1.67725c-0.80434,0.04248 -1.74496,0.02197 -2.56088,0.0249z" fill="#ed6544"/><path d="M39.74859,141.54229l2.23557,-0.10312c0.01333,0.5439 0.09027,1.29067 -0.12001,1.76689l-0.3577,0.09961c-0.64169,0.01904 -1.31971,0.00645 -1.96462,0.00557c-0.02989,-0.55854 -0.04484,-1.00137 -0.03165,-1.56372z" fill="#db6f33"/><path d="M33.40808,143.68052c0.17907,0.31479 0.09144,1.27544 0.08001,1.69761l-2.37859,0.05801c-0.26963,-0.34688 -0.15518,-1.27266 -0.13716,-1.74551c0.80698,-0.0123 1.62729,-0.00718 2.43574,-0.01011z" fill="#ed6544"/><path d="M36.62545,145.75063c0.67773,0 1.85706,-0.13301 2.31455,0.19468c0.31124,0.4248 0.21365,1.02539 0.1946,1.57178l-2.52512,-0.00586z" fill="#ef7348"/><path d="M39.44921,147.91699l2.42357,-0.00146l0.00513,1.75195l-2.45156,0.03955z" fill="#ef7348"/><path d="M40.03917,143.63833l0.08558,-0.00747c0.93652,-0.08027 1.11339,-0.20596 1.79185,0.36431c0.20354,0.51929 0.13174,1.09541 -0.32942,1.42559c-0.98106,0.03984 -1.75507,0.25737 -2.21798,-0.76187c0.02491,-0.44238 0.10155,-0.54683 0.30245,-0.93647z" fill="#ef7348"/><path d="M34.57745,143.61182c0.44093,-0.02402 0.90545,-0.07998 1.32411,0.04893c0.45514,0.40635 0.33147,0.21284 0.52563,0.77915c-0.05437,0.41616 -0.04894,0.54727 -0.28736,0.89692l-0.35462,0.05405c-0.99191,0.0542 -1.7772,0.24478 -2.10295,-0.91128c0.16866,-0.66387 0.25468,-0.74341 0.89519,-0.86777z" fill="#ef7348"/><path d="M33.82893,147.95215l2.45479,-0.0249l-0.09671,1.72119c-0.85797,0.0542 -1.5275,0.22412 -2.22443,-0.16992c-0.26758,-0.4043 -0.16163,-1.021 -0.13364,-1.52637z" fill="#ed6544"/><path d="M35.18865,145.71226c0.63538,0.04922 0.59626,-0.05508 1.01008,0.28125c0.16617,0.47666 0.06741,1.01968 0.01876,1.52944c-0.87336,-0.09814 -1.70686,0.35596 -2.30957,-0.32959c-0.14727,-0.53174 -0.13613,-0.60791 -0.04411,-1.15474c0.32297,-0.37134 0.70968,-0.27656 1.32484,-0.32637z" fill="#ed6544"/><path d="M35.18865,145.71226c0.63538,0.04922 0.59626,-0.05508 1.01008,0.28125c0.16617,0.47666 0.06741,1.01968 0.01876,1.52944c-0.76859,-0.44678 -0.7828,-0.94629 -1.02884,-1.81069z" fill="#ef7348"/><path d="M39.48526,145.76089l2.42299,-0.00513c-0.05832,0.54639 -0.0592,1.17832 -0.07371,1.73496l-2.38738,0.00879z" fill="#ef7348"/><path d="M30.72191,140.67612c0.61795,-0.11938 2.0014,-0.25459 2.6044,-0.04014c0.2264,0.08057 0.24208,0.26265 0.3618,0.52778c-1.12101,0.08848 -2.29931,0.46069 -2.9662,-0.48765z" fill="#f9a54e"/></g></svg></svg>