<?xml version="1.0" encoding="utf-8"?>
<!DOCTYPE svg PUBLIC "-//W3C//DTD SVG 1.0//EN" "http://www.w3.org/TR/2001/REC-SVG-20010904/DTD/svg10.dtd">
<svg version="1.0" xmlns="http://www.w3.org/2000/svg" width="500px" height="500px" viewBox="0 0 500 500" preserveAspectRatio="xMidYMid meet">
 <g fill="#ffffff">
  <path d="M0 250 l0 -250 250 0 250 0 0 250 0 250 -250 0 -250 0 0 -250z m270.8 50.6 c7.1 -1.9 9.7 -3.8 12.4 -8.9 2.1 -3.8 2.3 -5.9 2.6 -20.9 l0.4 -16.8 21.4 0 21.4 0 0 -7 0 -7 -21.5 0 -21.5 0 0 -5.7 0 -5.8 10.3 -6.7 c10.4 -6.9 21 -15.7 26.9 -22.3 l3.2 -3.7 -4.2 -3.7 -4.3 -3.6 -48.5 0.3 -48.4 0.2 0 7 0 7 35.5 0 35.5 0 0 3.5 c0 3 -0.7 4 -6.2 8.4 -5.5 4.4 -6.9 5 -11 5.1 l-4.8 0 0 9.5 c0 9.5 -0.8 11.4 -3.4 8 -0.8 -1 -1.5 -1.2 -2.6 -0.5 -1.3 0.9 -1.3 1.2 0.3 2.4 1.4 1.1 1.6 2.5 1.3 8 -0.4 5.9 -0.2 6.6 1.4 6.6 1 0 2.1 0.7 2.4 1.6 0.8 2 0.8 18.4 0 25 -0.8 6.8 -2.3 7.4 -16.9 7.4 -6.3 0 -11.5 0.3 -11.5 0.8 0 0.4 1 3.5 2.2 7 l2.2 6.2 10 0 c5.6 0 12.5 -0.7 15.4 -1.4z m-96 -42.3 c-2.1 -0.2 -5.7 -0.2 -8 0 -2.4 0.2 -0.7 0.4 3.7 0.4 4.4 0 6.3 -0.2 4.3 -0.4z m28.7 -0.3 c-0.3 -0.5 -2.6 -1 -5 -1 -2.4 0 -4.7 0.5 -5 1 -0.4 0.6 1.5 1 5 1 3.5 0 5.4 -0.4 5 -1z m-46 -16 c0.4 -0.6 -1.5 -1 -5 -1 -3.5 0 -5.4 0.4 -5 1 0.3 0.6 2.6 1 5 1 2.4 0 4.7 -0.4 5 -1z m43.5 0 c0 -0.6 -5 -1 -13.1 -1 -8.4 0 -12.8 0.4 -12.4 1 0.4 0.6 5.8 1 13.1 1 7.6 0 12.4 -0.4 12.4 -1z m63.6 -8.1 c0.3 -0.6 0.2 -1.5 -0.2 -1.9 -1.2 -1.2 -3.8 0.5 -3 1.9 0.9 1.4 2.3 1.4 3.2 0z m-2.3 -6.5 c-0.3 -0.8 -0.9 -1.4 -1.3 -1.4 -1.3 0 -2.2 1.9 -1.5 3 0.9 1.4 3.4 0 2.8 -1.6z m-60 -2.1 c-1.8 -0.2 -4.8 -0.2 -6.5 0 -1.8 0.2 -0.4 0.4 3.2 0.4 3.6 0 5 -0.2 3.3 -0.4z m202.3 -105.3 c1.2 -3 2.5 -6.4 2.8 -7.4 0.4 -1.6 0.7 -1.7 2 -0.6 1.4 1.1 1.6 0.4 1.6 -6.5 0 -4.3 -0.2 -7.6 -0.4 -7.4 -2.4 2.4 -8.6 10.5 -8.6 11.1 0 0.5 0.6 0.8 1.4 0.8 1.2 0 1 1.1 -0.7 6 -1.2 3.3 -2.5 6 -2.8 6 -0.3 0 -1.3 -1.8 -2.2 -4 -1.1 -2.8 -2 -3.8 -3 -3.4 -1.2 0.4 -1.1 1.4 0.7 6 1.8 4.7 2.4 5.4 4.5 5.2 2 -0.2 3 -1.5 4.7 -5.8z m-9.6 -9.4 c0 -0.8 -0.4 -1.7 -0.8 -2 -1.3 -0.8 -3.5 1.1 -2.8 2.3 1 1.6 3.6 1.4 3.6 -0.3z m-2.4 -4.7 c0.3 -0.6 0.2 -1.5 -0.2 -1.9 -1.2 -1.2 -3.8 0.5 -3 1.9 0.9 1.4 2.3 1.4 3.2 0z m-2.3 -6.5 c-0.3 -0.8 -0.9 -1.4 -1.3 -1.4 -1.3 0 -2.2 1.9 -1.5 3 0.9 1.4 3.4 0 2.8 -1.6z m-241.7 -43.4 c1.2 -3 2.5 -6.4 2.8 -7.4 0.4 -1.6 0.7 -1.7 2 -0.6 1.4 1.1 1.6 0.4 1.6 -6.5 0 -4.3 -0.2 -7.6 -0.4 -7.4 -2.4 2.4 -8.6 10.5 -8.6 11.1 0 0.5 0.6 0.8 1.4 0.8 1.2 0 1 1.1 -0.7 6 -1.2 3.3 -2.5 6 -2.8 6 -0.3 0 -1.3 -1.8 -2.2 -4 -1.1 -2.8 -2 -3.8 -3 -3.4 -1.2 0.4 -1.1 1.4 0.7 6 1.8 4.7 2.4 5.4 4.5 5.2 2 -0.2 3 -1.5 4.7 -5.8z m-9.6 -9.4 c0 -0.8 -0.4 -1.7 -0.8 -2 -1.3 -0.8 -3.5 1.1 -2.8 2.3 1 1.6 3.6 1.4 3.6 -0.3z m-2.4 -4.7 c0.3 -0.6 0.2 -1.5 -0.2 -1.9 -1.2 -1.2 -3.8 0.5 -3 1.9 0.9 1.4 2.3 1.4 3.2 0z m-2.3 -6.5 c-0.3 -0.8 -0.9 -1.4 -1.3 -1.4 -1.3 0 -2.2 1.9 -1.5 3 0.9 1.4 3.4 0 2.8 -1.6z"/>
 </g>
 <g fill="#602725">
  <path d="M238.8 294.7 l-3.6 -10.4 12.4 0.5 c8.4 0.3 13.3 0.1 15.3 -0.7 2.6 -1.2 2.9 -1.8 3.4 -7.4 0.8 -9.2 0.9 -15.6 0.2 -17.8 -1.1 -3.3 -4.8 -2.2 -10.2 3 -14 13.5 -36.6 9.8 -44.8 -7.5 -5.7 -12 -4 -23 5 -32 8.9 -8.9 21.7 -10.9 33.1 -5.1 5.5 2.8 10.8 8.2 9.8 9.9 -0.4 0.6 -0.9 0.7 -1.3 0 -0.7 -1 -5.5 -3.6 -8.7 -4.6 -1.7 -0.5 -2.4 -0.1 -3.4 2.4 -0.7 1.7 -1.1 3.2 -0.9 3.3 0.2 0.1 2.5 1.2 5 2.4 2.6 1.2 6.4 3.6 8.4 5.4 4.4 3.9 8.7 5 8.5 2.2 -0.1 -1 -0.2 -6.2 -0.1 -11.5 l0.1 -9.8 4.8 0 c4.2 -0.1 5.4 -0.7 11.2 -5.3 l6.5 -5.2 -35.7 -0.3 -35.8 -0.2 0 -10 0 -10 47.3 0 c25.9 0 48.7 -0.4 50.4 -0.9 3 -0.9 3.7 -0.5 10.3 4.6 l7 5.6 -5.3 5.6 c-8.7 9.3 -17.6 16.8 -28.4 23.9 -8.9 5.8 -10.3 7.1 -10.3 9.5 l0 2.7 21.5 0 21.5 0 0 10 0 10 -21.4 0 -21.4 0 -0.4 16.8 c-0.3 15 -0.5 17.1 -2.6 20.9 -4.2 7.9 -11.2 10.3 -30.8 10.3 l-13.1 0 -3.5 -10.3z m1.4 -30 c4.3 -3.3 10.8 -11.8 10.8 -14.2 0 -1.4 -3.3 -3.8 -6.6 -4.9 -1.8 -0.5 -2.4 0 -3.8 3.8 -1.9 4.9 -8.8 11.9 -13.9 14.1 l-3.2 1.4 3.5 1.5 c5.3 2.3 8.4 1.9 13.2 -1.7z m8.3 0.8 c1.7 -0.9 4.4 -2.8 5.8 -4.3 2.5 -2.6 2.6 -2.8 1 -6 l-1.6 -3.4 -1.5 2.9 c-0.8 1.5 -3.2 4.9 -5.4 7.6 -4.1 4.9 -3.7 5.7 1.7 3.2z m-24.6 -3.6 c3.5 -1.2 4.1 -2.9 1.1 -2.9 -1.1 0 -3.7 -0.7 -5.7 -1.5 -2 -0.8 -3.8 -1.3 -4.1 -1 -0.4 0.4 4.6 6.5 5.3 6.5 0.1 0 1.6 -0.5 3.4 -1.1z m11 -7.8 c1.1 -1.5 2.5 -4 3.1 -5.5 l1 -2.7 -5 0.7 c-7.7 1 -13.4 -0.3 -18.5 -4.2 -2.5 -1.9 -4.7 -3.4 -5 -3.4 -0.8 0 -0.5 4.3 0.5 8.2 1.5 5.3 9.3 9.5 18.2 9.7 2.9 0.1 4.1 -0.5 5.7 -2.8z m25.9 -1.8 c2.4 -6.4 2.4 -6.8 -1.9 -11.7 -4.4 -4.9 -13.5 -10.4 -15 -8.9 -0.5 0.5 -1.1 2.9 -1.5 5.3 l-0.6 4.5 5.8 3 c3.5 1.8 6.7 4.4 8.3 6.7 1.4 2 2.9 3.7 3.2 3.8 0.4 0 1.1 -1.2 1.7 -2.7z m15.8 -4.3 c1.2 -3 2.5 -6.4 2.8 -7.4 0.4 -1.6 0.7 -1.7 2 -0.6 1.4 1.1 1.6 0.4 1.6 -6.5 0 -4.3 -0.2 -7.6 -0.4 -7.4 -2.4 2.4 -8.6 10.5 -8.6 11.1 0 0.5 0.6 0.8 1.4 0.8 1.2 0 1 1.1 -0.7 6 -1.2 3.3 -2.5 6 -2.8 6 -0.3 0 -1.3 -1.8 -2.2 -4 -1.1 -2.8 -2 -3.8 -3 -3.4 -1.2 0.4 -1.1 1.4 0.7 6 1.8 4.7 2.4 5.4 4.5 5.2 2 -0.2 3 -1.5 4.7 -5.8z m-38.5 -5.1 c1.2 -0.6 1.8 -2.6 2.1 -6.6 0.2 -3.4 1.5 -8.3 3.1 -11.7 1.5 -3.3 2.4 -6.3 1.9 -6.8 -0.5 -0.5 -2.4 -1.1 -4.3 -1.4 -3 -0.5 -3.7 -0.1 -5.7 2.9 -3.9 5.8 -6.2 13.3 -6.2 19.8 l0 6.1 3.7 -0.7 c2.1 -0.4 4.5 -1.1 5.4 -1.6z m-11.8 -6.1 c0.5 -5.4 1.5 -9 4 -14 3.7 -7.6 3.3 -8.2 -3.8 -4.9 -5.1 2.3 -5.9 3.3 -8.4 10.8 -3 8.8 -2.8 10.9 1.2 13.3 5.6 3.4 6.3 2.9 7 -5.2z m-11.7 -5.8 c0.6 -2.7 0.9 -5 0.7 -5 -0.8 0 -4.3 8.2 -3.8 9 1.2 2 2.1 0.9 3.1 -4z"/>
  <path d="M158.9 260.4 c-0.9 -1.1 -1 -2 -0.2 -3.2 0.8 -1.4 2.8 -1.7 11.8 -1.7 9 0 11 0.3 11.8 1.7 0.8 1.2 0.7 2.1 -0.2 3.2 -1.1 1.3 -3.5 1.6 -11.6 1.6 -8.1 0 -10.5 -0.3 -11.6 -1.6z"/>
  <path d="M189 260.1 c-1.3 -2.5 -1.3 -2.7 0.6 -4.5 1.1 -1.2 3.5 -1.6 8.8 -1.6 l7.3 0 2.7 4 2.6 4 -10.5 0 c-9.3 0 -10.5 -0.2 -11.5 -1.9z"/>
  <path d="M143.6 244.4 c-1.9 -1.9 -2 -3.6 -0.4 -5.2 1.6 -1.6 17 -1.6 18.6 0 1.8 1.8 1.4 4.6 -0.7 5.8 -3.2 1.7 -15.7 1.3 -17.5 -0.6z"/>
  <path d="M171.8 244.9 c-1 -0.5 -1.8 -1.8 -1.8 -2.7 0 -3.8 1.9 -4.2 18.2 -4.2 l15.8 0 0 4 0 4 -15.2 0 c-8.5 0 -16.1 -0.5 -17 -1.1z"/>
  <path d="M166.5 227 c-1.1 -3.4 1.2 -5 7.1 -5 3.4 0 5.8 0.5 6.8 1.6 3.4 3.4 0.8 5.4 -7 5.4 -5.4 0 -6.4 -0.3 -6.9 -2z"/>
  <path d="M188.6 227.4 c-0.3 -0.8 -0.1 -2.4 0.4 -3.5 1 -1.7 2.2 -1.9 11.1 -1.9 9.2 0 10.1 0.2 9.4 1.8 -0.4 0.9 -1 2.5 -1.2 3.5 -0.5 1.5 -1.8 1.7 -9.8 1.7 -7.5 0 -9.4 -0.3 -9.9 -1.6z"/>
  <path d="M181.3 211.4 c-1.4 -3.8 3.5 -6.4 9.2 -5 2.8 0.7 4 3.3 2.4 5.2 -1.7 2.1 -10.8 1.9 -11.6 -0.2z"/>
 </g>
</svg>