<svg version="1.1" id="Layer_1" xmlns="http://www.w3.org/2000/svg" xmlns:xlink="http://www.w3.org/1999/xlink" x="0px" y="0px"
	 width="100%" viewBox="0 0 612 408" enable-background="new 0 0 612 408" xml:space="preserve">
<path fill="#000000" opacity="1.000000" stroke="none" 
	d="
M1.000000,150.000000 
	C1.000000,100.012131 1.000000,50.524258 1.000000,1.018194 
	C204.937881,1.018194 408.875763,1.018194 612.906860,1.018194 
	C612.906860,136.904510 612.906860,272.809082 612.906860,408.856842 
	C409.000092,408.856842 205.000046,408.856842 1.000000,408.856842 
	C1.000000,322.790924 1.000000,236.645462 1.000000,150.000000 
M220.981995,229.824463 
	C221.180862,230.928787 221.229172,232.086929 221.601730,233.129181 
	C225.706406,244.612289 232.373367,254.457108 241.256027,263.682465 
	C249.103256,271.352325 257.969208,277.514984 268.835144,281.990417 
	C270.435059,282.669037 271.976501,283.618866 273.645172,283.978790 
	C280.437836,285.443939 287.225433,287.501160 294.097412,287.892944 
	C303.710449,288.440979 313.491730,288.449463 323.020020,287.250488 
	C329.706421,286.409149 336.434906,283.855347 342.514984,280.809479 
	C348.768280,277.676788 354.257416,273.018738 360.769012,268.941956 
	C364.554474,265.008942 368.339966,261.075958 372.830170,257.013000 
	C381.134003,247.159546 381.771240,246.897049 392.991333,248.339203 
	C392.991333,258.485565 392.991577,268.541748 392.991272,278.597931 
	C392.990875,291.457947 392.724335,304.325958 393.111450,317.174286 
	C393.282135,322.839508 389.761902,326.701141 385.004456,327.819794 
	C379.792419,329.045319 374.341980,329.969055 369.016052,329.873627 
	C347.324310,329.484894 325.637115,328.744720 303.955963,327.928223 
	C298.260345,327.713715 296.612122,328.325958 299.121613,335.320526 
	C301.661499,342.399902 304.452057,349.390137 306.941498,356.486542 
	C310.085327,365.448151 313.474304,374.359253 315.943939,383.511688 
	C318.343384,392.404144 322.670074,395.867279 332.584015,396.484436 
	C349.752411,397.553192 366.801300,398.838531 383.952728,397.012573 
	C399.302887,395.378357 414.744202,394.209900 429.448975,388.966370 
	C431.553986,388.215729 433.420013,386.784088 435.532074,386.066132 
	C441.889099,383.905243 447.368347,380.434326 451.836090,375.459351 
	C456.224854,370.572266 459.046936,364.809784 460.917419,358.526764 
	C462.518646,353.148163 465.193329,347.924683 465.810120,342.454132 
	C466.863434,333.111847 466.904022,323.631317 466.966095,314.206177 
	C467.109741,292.401337 467.011719,270.594879 467.011719,248.010376 
	C469.577301,248.010376 471.324463,248.010391 473.071655,248.010391 
	C512.561462,248.010391 552.051514,247.941864 591.540833,248.078903 
	C598.007812,248.101334 600.151550,248.370148 599.998779,239.694016 
	C599.700562,222.767532 599.127380,205.841827 599.145996,188.916336 
	C599.151489,183.885376 597.458618,182.878250 592.832825,182.896637 
	C552.677124,183.056305 512.520630,182.989044 472.364319,182.989288 
	C470.618225,182.989304 468.872131,182.989304 467.011597,182.989304 
	C467.011597,178.722412 466.935913,175.222885 467.057343,171.730179 
	C467.094208,170.670090 467.346832,169.168045 468.063171,168.657272 
	C471.529205,166.185730 475.164734,163.947357 478.780884,161.691635 
	C488.770172,155.460358 499.233826,149.877716 508.681519,142.914581 
	C525.425049,130.574265 542.083862,118.011200 557.780029,104.391129 
	C570.800659,93.092674 582.467041,80.218994 594.527222,67.842300 
	C596.554688,65.761612 597.535034,62.660549 599.749268,59.967327 
	C604.924561,57.025002 601.146240,53.903149 599.155212,52.266121 
	C588.991150,43.909458 578.469971,35.987202 567.766235,27.287731 
	C565.761536,25.918140 563.138123,24.962896 561.884277,23.090496 
	C559.461365,19.472330 555.906616,20.408907 553.569824,21.380697 
	C543.762573,25.459167 533.398438,25.813368 523.227844,25.841320 
	C432.949005,26.089453 342.669128,26.023481 252.389832,25.879908 
	C247.461212,25.872072 245.762405,26.968498 245.860001,32.186985 
	C246.187027,49.670448 246.166763,67.166916 245.869461,84.651428 
	C245.784485,89.647995 247.078445,91.141479 252.226074,91.128464 
	C320.518250,90.955856 388.811035,91.012665 457.103668,91.012222 
	C458.834625,91.012207 460.565582,91.012215 462.214417,91.012215 
	C461.601349,92.315224 461.229675,93.105217 460.251892,94.207191 
	C455.491302,98.143181 450.730713,102.079178 445.247253,106.041710 
	C441.966064,108.387772 438.362640,110.395477 435.470612,113.150085 
	C429.384430,118.947128 423.308899,123.757202 413.962738,122.135262 
	C409.125732,121.295837 404.022217,122.042557 399.040680,121.968407 
	C395.425385,121.914589 393.852905,123.210045 393.903809,127.177956 
	C394.106110,142.953735 393.987549,158.733627 393.987823,174.512009 
	C393.987854,176.925140 393.987823,179.338257 393.987823,181.751389 
	C393.431824,181.913742 392.875824,182.076096 392.319824,182.238449 
	C391.552765,180.192581 390.859406,178.115326 390.003845,176.107162 
	C388.000183,171.404190 385.918762,166.734360 383.967743,161.293518 
	C380.767303,156.159592 377.945923,150.734055 374.274780,145.962250 
	C369.178223,139.337616 364.056396,132.544449 355.798553,128.273178 
	C354.854950,127.339417 354.076599,125.992897 352.941162,125.538376 
	C345.118011,122.406738 338.001495,117.936829 329.726440,115.435379 
	C321.337311,112.899460 313.105011,112.170815 304.632385,112.029724 
	C295.134186,111.871559 285.938904,112.719246 276.586609,115.652748 
	C264.273773,119.514870 253.552536,125.615593 243.928604,133.715012 
	C232.893066,143.002457 225.645401,154.978729 220.574860,168.541687 
	C217.176270,177.632431 214.239777,186.570175 214.951187,196.410507 
	C215.190720,199.723953 215.145706,203.078949 214.948563,206.398193 
	C214.641296,211.571411 215.183395,216.492065 218.012939,221.694412 
	C218.991531,224.138733 219.970123,226.583038 220.981995,229.824463 
M167.725266,90.318787 
	C165.659485,89.550507 163.619507,88.215218 161.523102,88.119804 
	C155.120621,87.828369 148.682419,87.774384 142.288498,88.148125 
	C140.137711,88.273842 138.078064,89.958839 135.302200,91.188370 
	C128.603317,97.869125 130.080246,109.366295 138.860703,112.796150 
	C148.439758,116.537949 158.528732,116.939758 168.234039,112.318382 
	C172.651825,110.214783 174.886887,106.113579 174.775681,101.757080 
	C174.663879,97.376961 173.140244,92.781067 167.725266,90.318787 
M86.195007,144.365067 
	C84.776505,152.511826 85.973953,159.479034 94.621368,163.104202 
	C95.204735,163.348770 95.772758,163.985382 96.306328,163.940887 
	C107.538948,163.004364 119.140938,166.553818 130.001053,161.854141 
	C135.491760,159.478043 138.813034,155.938049 137.020447,146.746109 
	C136.179489,142.433884 129.804077,137.012466 125.227158,136.997253 
	C115.750687,136.965759 106.260094,136.705444 96.806274,137.169693 
	C94.110947,137.302063 91.522163,139.604050 88.338860,141.209930 
	C87.853806,142.081635 87.368759,142.953354 86.195007,144.365067 
M157.039413,258.809540 
	C160.140930,263.377197 164.725754,264.067505 169.803452,264.031311 
	C185.466660,263.919586 201.131165,263.991547 216.795166,263.990326 
	C219.461365,263.990143 222.170273,264.261627 224.776733,263.864563 
	C226.200150,263.647766 228.178925,262.532898 228.560440,261.378082 
	C228.899536,260.351685 227.524811,258.608795 226.642181,257.370605 
	C225.728821,256.089325 224.390121,255.117477 223.425079,253.865646 
	C220.630447,250.240479 217.930069,246.542664 215.036316,242.087234 
	C214.892426,237.044174 212.299011,235.730164 207.391953,235.860870 
	C193.959152,236.218658 180.503128,236.250061 167.071442,235.872391 
	C160.487274,235.687241 156.694962,239.936340 154.688278,244.389069 
	C152.880508,248.400360 152.126404,254.203995 157.039413,258.809540 
M97.819489,195.636353 
	C95.314751,200.529541 96.667450,205.290665 102.241966,210.708420 
	C105.609467,211.808868 108.956085,213.777786 112.348083,213.859344 
	C126.985954,214.211334 141.637115,214.010193 156.283432,214.010788 
	C170.929749,214.011383 185.576187,214.044769 200.222351,213.998474 
	C206.703247,213.977997 207.997803,212.630997 208.010437,206.314270 
	C208.019760,201.654099 207.765045,196.977081 208.081024,192.338455 
	C208.392609,187.764069 206.263947,185.995667 202.080948,185.994049 
	C170.957520,185.982056 139.833954,185.945129 108.710762,186.032333 
	C103.209518,186.047745 99.686661,189.286499 97.819489,195.636353 
M220.306458,136.987488 
	C202.517975,136.987762 184.727570,137.130692 166.942368,136.889511 
	C162.413269,136.828079 159.488464,138.254089 156.556381,141.720520 
	C152.580414,146.421036 152.836807,152.220795 154.613068,156.320328 
	C156.408722,160.464523 161.192444,164.049149 167.007523,164.027145 
	C181.304611,163.973007 195.604187,163.872498 209.897919,164.098251 
	C213.916077,164.161743 215.898529,162.239410 217.465393,159.084366 
	C219.933914,154.113708 222.549728,149.214188 224.923080,144.199326 
	C225.783493,142.381317 226.126785,140.318542 226.706024,138.367462 
	C224.887955,137.907501 223.069901,137.447540 220.306458,136.987488 
M131.849243,238.019562 
	C112.532570,238.009140 93.213760,237.855042 73.901466,238.140671 
	C70.948708,238.184341 67.470947,239.609985 65.212112,241.539307 
	C61.265602,244.910065 59.751019,249.665283 62.059204,254.746094 
	C64.420700,259.944275 67.719406,264.018188 74.286545,264.048126 
	C92.035782,264.128967 109.783943,264.422485 127.533035,264.572113 
	C132.375656,264.612915 140.301285,259.119781 140.995956,255.421432 
	C142.668381,246.517899 140.001587,240.992065 131.849243,238.019562 
M19.000313,186.985779 
	C12.445469,192.245728 10.162831,197.843521 12.053469,204.021759 
	C13.600748,209.077972 21.746761,214.008453 28.556347,214.008987 
	C41.703018,214.010025 54.850422,214.095749 67.996124,213.983002 
	C77.929497,213.897797 83.802513,203.810669 79.968781,194.768097 
	C76.907272,187.546967 70.810509,186.064362 63.980671,186.014664 
	C51.666725,185.925064 39.351433,185.951050 27.037245,186.022079 
	C24.616575,186.036026 22.198343,186.472092 19.000313,186.985779 
z"/>
<path fill="#506F86" opacity="1.000000" stroke="none" 
	d="
M568.073669,27.912971 
	C578.469971,35.987202 588.991150,43.909458 599.155212,52.266121 
	C601.146240,53.903149 604.924561,57.025002 599.012817,60.013199 
	C596.101624,61.728695 593.750366,63.213600 591.779724,65.096764 
	C573.750122,82.325951 556.382446,100.305023 537.637512,116.712463 
	C518.616089,133.361832 497.399872,147.212173 475.471924,159.911011 
	C463.803528,166.668396 463.986908,166.985077 464.229706,179.578873 
	C464.344116,185.512863 464.960114,186.121964 470.903290,186.125580 
	C501.383087,186.144135 531.862915,186.157242 562.342712,186.178482 
	C572.315186,186.185440 582.289307,186.322006 592.259338,186.174820 
	C596.375183,186.114059 596.248230,188.683807 596.279968,191.461044 
	C596.454834,206.765457 596.681335,222.069336 596.821350,237.374039 
	C596.890015,244.881256 596.822754,244.897278 589.438538,244.900650 
	C550.797302,244.918274 512.156067,244.926804 473.514862,244.940002 
	C464.792023,244.942993 464.792175,244.945755 464.794647,253.381592 
	C464.800354,272.702179 465.298584,292.039581 464.638641,311.337402 
	C464.197266,324.243561 462.109558,337.093384 460.467102,350.059021 
	C459.761261,351.424164 459.346893,352.698639 458.919037,354.321350 
	C458.588440,355.776337 458.271332,356.883057 457.598541,358.040222 
	C455.569336,361.216125 453.895752,364.341583 452.215332,367.727844 
	C452.109711,368.321320 452.010864,368.654022 451.590271,369.073853 
	C450.489624,370.389069 449.710724,371.617126 448.785095,373.119934 
	C447.705933,374.173126 446.773468,374.951599 445.606659,375.511047 
	C442.665619,373.555176 439.674500,372.137024 437.304901,370.022430 
	C429.807953,363.332275 421.688110,357.847687 412.053864,354.643433 
	C410.269226,354.049835 407.630524,351.918396 407.682892,350.587067 
	C407.978333,343.074860 402.869965,342.740051 397.665344,342.172363 
	C396.352570,342.029144 394.909882,341.958099 393.798462,341.354156 
	C392.199249,340.485229 390.848602,339.158875 389.391907,338.027710 
	C390.551300,336.847107 391.710083,335.665894 392.870209,334.486053 
	C393.750244,333.591034 394.631927,332.697693 395.512878,331.803589 
	C394.339081,331.201538 393.165253,330.599457 391.998352,329.679382 
	C392.011139,328.938019 392.017029,328.514648 392.217041,327.869843 
	C392.983551,327.112000 393.555939,326.575592 394.485657,326.033508 
	C395.557709,326.013824 396.272369,325.999878 397.153076,326.108704 
	C397.600952,326.206085 397.882874,326.180695 398.164764,326.155304 
	C397.780304,325.771088 397.395844,325.386871 397.014099,324.590698 
	C397.679962,316.309265 398.781372,308.447205 398.915924,300.568695 
	C399.205872,283.590271 398.933868,266.602936 399.037872,249.620163 
	C399.066162,245.006302 397.254486,242.780655 392.531891,242.979691 
	C389.374207,243.112747 386.204834,243.043365 383.042542,242.976562 
	C377.852539,242.866928 377.317505,241.819351 379.283875,236.943268 
	C381.741882,230.848099 384.512207,224.794067 386.075378,218.457748 
	C386.887604,215.165390 385.978119,211.095383 384.790070,207.752029 
	C383.313660,203.597275 380.745087,199.830627 378.521881,195.659317 
	C386.310425,198.234680 386.551941,198.244675 386.901520,189.791351 
	C387.036652,186.523575 389.192017,186.772415 391.393341,185.999222 
	C393.534851,185.652542 395.282562,185.328995 397.267334,184.945740 
	C397.708923,184.273209 397.913391,183.660370 398.085999,182.576889 
	C398.096344,163.751801 398.138580,145.397339 398.584290,127.034531 
	C406.681274,127.003395 414.380432,127.130882 422.063782,126.840225 
	C423.747253,126.776550 425.374420,125.223618 427.284515,124.162582 
	C428.398773,123.330200 429.256012,122.691742 430.493530,122.040932 
	C433.824341,122.179634 435.653595,120.965050 436.136475,117.604683 
	C438.411377,115.533508 440.704468,113.916107 442.498077,111.862495 
	C443.964569,110.183403 444.835297,107.983940 445.970123,106.015175 
	C450.730713,102.079178 455.491302,98.143181 460.696259,94.337700 
	C465.331848,96.791389 466.183868,92.672874 468.430389,90.441277 
	C466.199951,89.301170 463.973785,88.522430 461.717773,88.423309 
	C458.741547,88.292519 455.741974,88.844238 452.752289,88.846237 
	C387.430420,88.889954 322.108521,88.898224 256.786652,88.911537 
	C255.620377,88.911774 254.452972,88.918953 253.288040,88.873405 
	C250.747269,88.774048 249.523483,87.879189 249.564560,84.890198 
	C249.783966,68.926041 249.744064,52.958344 249.800385,36.991894 
	C249.828903,28.907866 249.835129,28.935741 258.083069,28.934752 
	C348.900421,28.923861 439.717834,28.952332 530.534851,28.772959 
	C536.393433,28.761387 542.252991,27.154022 548.104370,26.239866 
	C553.291565,25.429489 558.506592,23.413059 563.179749,28.092073 
	C563.964539,28.877838 566.400574,28.014387 568.073669,27.912971 
z"/>
<path fill="#5B788F" opacity="1.000000" stroke="none" 
	d="
M396.987061,325.985962 
	C396.272369,325.999878 395.557709,326.013824 394.545044,325.656372 
	C395.246857,318.919586 396.950989,312.571594 397.108978,306.185364 
	C397.516724,289.703552 397.236267,273.204865 397.240204,256.712921 
	C397.242981,245.038315 397.249908,245.038300 385.588196,244.853851 
	C379.413055,244.756180 372.799469,249.622833 371.313538,255.470245 
	C371.196838,255.929382 371.837006,256.580872 372.125427,257.142944 
	C368.339966,261.075958 364.554474,265.008942 360.123657,268.836670 
	C356.978607,269.707458 354.196442,270.265381 352.027344,271.730774 
	C341.661194,278.733826 330.296051,283.109497 318.017609,285.096619 
	C302.800537,287.559296 287.940735,285.924103 273.359192,280.963623 
	C271.872253,280.457794 269.859589,281.497314 268.090881,281.819702 
	C257.969208,277.514984 249.103256,271.352325 241.351868,263.151581 
	C240.962677,260.883667 240.849609,258.912384 239.928558,257.449982 
	C235.824188,250.933243 231.423691,244.603760 227.265793,238.119659 
	C225.337189,235.112061 223.718216,231.905914 221.964096,228.397858 
	C221.266617,225.165863 220.563919,222.325760 219.826904,219.109573 
	C218.894669,211.642380 217.433212,204.562347 217.293457,197.456345 
	C217.197525,192.578705 219.192261,187.696686 219.808731,182.761200 
	C221.462280,169.522232 227.150085,157.968338 235.129562,147.664093 
	C245.983307,133.648163 260.136108,124.054871 277.115936,118.613800 
	C291.751495,113.923943 306.426910,113.897583 321.441620,116.591309 
	C332.507294,118.576569 342.136627,123.467316 351.681519,128.920319 
	C352.785339,129.550919 354.598694,128.939575 356.083069,128.904053 
	C364.056396,132.544449 369.178223,139.337616 374.274780,145.962250 
	C377.945923,150.734055 380.767303,156.159592 383.633820,161.828583 
	C383.366211,164.155899 383.064148,166.060806 383.571014,167.718338 
	C384.853912,171.913376 386.420563,176.028748 388.034363,180.112473 
	C388.841217,182.154175 389.999969,184.056808 390.999542,186.022354 
	C389.192017,186.772415 387.036652,186.523575 386.901520,189.791351 
	C386.551941,198.244675 386.310425,198.234680 378.521881,195.659317 
	C380.745087,199.830627 383.313660,203.597275 384.790070,207.752029 
	C385.978119,211.095383 386.887604,215.165390 386.075378,218.457748 
	C384.512207,224.794067 381.741882,230.848099 379.283875,236.943268 
	C377.317505,241.819351 377.852539,242.866928 383.042542,242.976562 
	C386.204834,243.043365 389.374207,243.112747 392.531891,242.979691 
	C397.254486,242.780655 399.066162,245.006302 399.037872,249.620163 
	C398.933868,266.602936 399.205872,283.590271 398.915924,300.568695 
	C398.781372,308.447205 397.679962,316.309265 397.007324,324.836487 
	C396.997803,325.494232 396.987061,325.985962 396.987061,325.985962 
M225.233444,218.510681 
	C225.922760,220.514954 226.022064,223.203888 227.408768,224.398880 
	C232.118668,228.457642 237.063934,232.336288 242.317337,235.653259 
	C255.784012,244.156052 270.835236,247.280380 286.546387,247.236145 
	C289.172119,247.228745 292.365875,245.790268 294.314209,243.964249 
	C302.240448,236.535690 306.980225,227.033508 310.462036,216.876190 
	C310.969086,215.397049 311.057007,213.774246 311.338898,212.217926 
	C309.654327,212.197815 307.870575,211.800980 306.300079,212.214279 
	C283.956573,218.094833 262.476868,217.204971 242.739426,203.873260 
	C237.686127,200.459991 233.160217,196.254517 228.466949,192.323517 
	C225.174088,189.565491 223.063766,189.666214 222.727478,193.047333 
	C221.954269,200.821304 221.338562,208.673828 225.309952,216.566940 
	C225.373001,216.967026 225.436035,217.367111 225.233444,218.510681 
M272.157837,193.720688 
	C272.372437,192.253693 272.704620,190.793015 272.783813,189.318726 
	C273.873596,169.033157 279.410004,150.119370 290.074615,132.759293 
	C292.424530,128.934052 294.644073,125.028725 297.183105,120.719963 
	C295.204834,120.305260 294.261566,119.947853 293.312897,119.932884 
	C281.371155,119.744400 271.050598,124.979492 260.794830,130.098938 
	C258.672668,131.158264 256.997345,133.874496 255.958099,136.202896 
	C252.387436,144.202820 248.497452,152.165421 246.034714,160.526764 
	C243.250198,169.980576 241.657501,179.814102 240.070328,189.567734 
	C239.751663,191.525970 241.222977,194.502289 242.829651,195.922028 
	C250.046921,202.299500 258.641602,206.237198 268.001160,208.364914 
	C271.467712,209.153015 273.186798,207.758942 271.613098,203.154816 
	C271.627594,200.190063 271.642090,197.225311 272.157837,193.720688 
M313.138367,120.514084 
	C310.640564,121.319054 307.158081,121.358353 305.826813,123.070396 
	C301.576935,128.535751 297.866272,134.473434 294.413879,140.496140 
	C283.088318,160.253540 278.732117,181.568115 280.470825,204.250168 
	C280.775818,208.229218 282.305634,209.784714 286.044037,208.968979 
	C292.337433,207.595749 298.538940,205.739807 304.875153,204.640106 
	C312.798157,203.265015 314.305573,198.308105 313.898956,191.280609 
	C312.925751,174.460587 319.390930,159.353149 325.671814,144.330109 
	C328.127747,138.455902 331.723541,133.058258 335.526886,126.117310 
	C327.902863,124.169960 320.930054,122.388939 313.138367,120.514084 
M313.850067,230.219955 
	C313.311249,231.061081 312.725433,231.876038 312.240570,232.747208 
	C302.756439,249.787292 287.956543,260.549286 270.500549,268.217590 
	C269.420624,268.691986 268.586029,269.724792 267.637299,270.497803 
	C268.625702,271.706024 269.380096,273.547455 270.642578,274.013916 
	C276.414276,276.146423 282.226044,278.377380 288.219666,279.645203 
	C294.429993,280.958832 300.897614,281.217865 306.398773,276.882568 
	C312.907410,271.753357 319.729858,266.940186 325.725342,261.260590 
	C335.585846,251.919678 343.251984,240.856674 347.882721,227.990494 
	C348.550262,226.135864 347.920746,222.296860 346.604614,221.499084 
	C339.553619,217.225082 332.158203,213.489853 324.696716,209.959595 
	C323.759247,209.516052 320.862335,211.017029 320.356354,212.233780 
	C318.006592,217.884445 316.179321,223.752380 313.850067,230.219955 
M354.222961,217.273529 
	C362.649353,223.557541 367.501984,232.518250 372.101532,242.471039 
	C373.700317,240.794571 375.113556,239.930344 375.599701,238.699829 
	C378.208832,232.096207 380.495422,225.365585 383.076996,218.750473 
	C384.837250,214.239960 384.038391,209.938461 381.284302,206.482956 
	C375.313171,198.991104 369.742157,190.746109 362.334137,184.946609 
	C353.599640,178.108688 343.128906,173.472076 333.347137,167.994995 
	C328.200684,165.113327 325.529602,166.138718 324.433655,171.981812 
	C323.057892,179.316864 322.467865,186.795914 321.373291,194.188324 
	C320.704926,198.702164 322.824677,201.372162 326.858154,202.293335 
	C337.185028,204.651764 345.732056,210.155716 354.222961,217.273529 
M332.765442,149.185394 
	C329.283447,156.817184 329.669250,158.056061 334.858185,160.265732 
	C351.879974,167.514297 368.310638,175.690079 379.958008,190.902054 
	C380.905731,192.139847 382.298706,193.036743 383.484772,194.092041 
	C383.933563,193.937927 384.382355,193.783813 384.831116,193.629700 
	C384.708221,191.283859 384.872375,188.877838 384.396240,186.606018 
	C383.649445,183.042847 382.744293,179.463593 381.425507,176.078415 
	C376.610840,163.719696 372.566071,150.716614 357.656647,146.309433 
	C354.512329,145.379974 351.614410,143.639816 348.563171,142.368652 
	C338.035431,137.982742 336.619263,138.549820 332.765442,149.185394 
M322.810638,276.670807 
	C325.081940,276.799774 327.574310,277.605804 329.588745,276.948120 
	C342.913269,272.597656 354.492798,265.371796 363.878143,254.865097 
	C364.811768,253.819916 365.919678,252.008881 365.614899,250.929276 
	C363.708374,244.176056 361.819366,237.316910 356.270050,232.397095 
	C351.858063,239.579590 348.212280,246.876907 343.293335,253.180771 
	C337.025696,261.213013 329.728271,268.441742 322.810638,276.670807 
M274.676575,256.302338 
	C272.642639,255.071335 270.747803,253.424973 268.548309,252.688339 
	C262.320068,250.602463 255.945892,248.957123 249.671143,247.003510 
	C245.835968,245.809464 242.078110,244.367126 237.651443,242.813782 
	C237.879822,244.679077 237.650131,245.908798 238.159561,246.484665 
	C243.404892,252.414001 248.706238,258.298431 254.180191,264.015137 
	C254.880264,264.746246 256.873749,264.973083 257.892151,264.543121 
	C263.485107,262.181854 268.960999,259.543243 274.676575,256.302338 
M236.028381,154.631683 
	C233.641113,158.776169 230.597778,162.693542 229.061203,167.132492 
	C227.676315,171.133179 223.635345,175.450241 227.933990,180.017014 
	C229.187531,181.348755 230.941528,182.209427 232.466141,183.286026 
	C233.193802,181.741638 234.216507,180.265671 234.593613,178.639969 
	C235.711380,173.820877 236.532425,168.933884 237.550400,164.090469 
	C238.400314,160.046646 239.364273,156.026810 240.545166,150.816345 
	C238.490738,152.525848 237.505920,153.345322 236.028381,154.631683 
M350.934357,173.778122 
	C354.543488,175.858643 358.152588,177.939163 361.761719,180.019684 
	C362.154480,179.305679 362.547272,178.591675 362.940033,177.877655 
	C358.437927,175.250534 353.935791,172.623413 349.433685,169.996292 
	C349.121826,170.459946 348.809937,170.923584 348.498077,171.387238 
	C349.111237,172.080963 349.724396,172.774689 350.934357,173.778122 
M345.813080,168.828751 
	C345.739716,169.212585 345.666351,169.596405 345.592957,169.980240 
	C345.856628,169.988144 346.120331,169.996048 346.384003,170.003952 
	C346.328125,169.616684 346.272217,169.229431 345.813080,168.828751 
M236.529434,241.532837 
	C236.529434,241.532837 236.504105,241.515915 236.529434,241.532837 
z"/>
<path fill="#96AAB9" opacity="1.000000" stroke="none" 
	d="
M372.477783,257.077972 
	C371.837006,256.580872 371.196838,255.929382 371.313538,255.470245 
	C372.799469,249.622833 379.413055,244.756180 385.588196,244.853851 
	C397.249908,245.038300 397.242981,245.038315 397.240204,256.712921 
	C397.236267,273.204865 397.516724,289.703552 397.108978,306.185364 
	C396.950989,312.571594 395.246857,318.919586 394.187714,325.662109 
	C393.555939,326.575592 392.983551,327.112000 391.914642,327.922119 
	C390.608612,328.789307 389.799133,329.382751 388.674011,330.020294 
	C387.572571,330.376251 386.786774,330.688141 385.645905,331.060120 
	C383.543823,331.785126 381.796844,332.449982 379.578491,333.097137 
	C368.773651,333.218719 358.440155,333.358032 347.652863,333.395813 
	C344.431396,333.353058 341.663696,333.411774 338.439056,333.406708 
	C331.969360,333.272675 325.956604,333.202423 319.627869,332.921875 
	C315.867126,332.234070 312.422455,331.756531 308.613281,331.231628 
	C307.515137,331.196228 306.781464,331.208221 305.680481,331.151489 
	C300.667236,331.234589 302.105469,333.672760 303.497742,336.314423 
	C303.635925,336.704407 303.714783,336.851379 303.840088,337.350464 
	C304.635803,339.116180 305.385071,340.529755 306.159393,342.310669 
	C306.557770,344.104950 306.931061,345.531830 307.304443,347.300110 
	C307.913361,349.075897 308.522186,350.510284 309.164246,352.291077 
	C309.528442,353.748108 309.859436,354.858795 310.215179,356.310303 
	C310.915985,358.105499 311.592072,359.559875 312.277100,361.286926 
	C312.473114,362.064728 312.660187,362.569855 312.869720,363.439453 
	C313.636963,365.516907 314.381714,367.229858 315.164368,369.315125 
	C316.940002,374.542084 319.145782,379.286835 320.316986,384.274506 
	C322.682007,394.346405 325.170807,393.032867 333.178101,393.140869 
	C333.913025,393.190491 334.464142,393.116699 335.460754,393.074005 
	C338.547821,393.245789 341.190369,393.523376 343.830811,393.504303 
	C357.878876,393.402863 371.926453,393.227081 386.164490,393.193481 
	C386.902985,393.206299 387.451202,393.102631 388.449707,393.016998 
	C391.589478,392.880432 394.278992,392.725830 397.363098,392.647186 
	C400.475769,392.084595 403.193787,391.446014 406.320465,390.811554 
	C409.473083,390.445740 412.217041,390.075836 415.330688,389.698975 
	C418.459778,388.777832 421.219147,387.863617 424.329254,386.943481 
	C425.782410,386.592987 426.884796,386.248505 428.285767,385.842651 
	C429.192535,385.256348 429.800720,384.731445 430.754181,384.192352 
	C432.393372,383.731842 433.687317,383.285522 435.276917,382.786224 
	C436.177094,382.220856 436.781677,381.708435 437.659363,381.175598 
	C438.281921,381.051025 438.631348,380.946930 439.277924,380.809875 
	C440.276428,380.144348 440.977753,379.511749 441.996277,378.761719 
	C443.489349,377.672852 444.665192,376.701477 445.841003,375.730103 
	C446.773468,374.951599 447.705933,374.173126 449.068115,372.977539 
	C450.302551,371.369232 451.107269,370.177979 451.911987,368.986725 
	C452.010864,368.654022 452.109711,368.321320 452.524292,367.552887 
	C454.544769,364.074707 456.249512,361.032257 457.954224,357.989807 
	C458.271332,356.883057 458.588440,355.776337 459.147156,354.092651 
	C459.845398,352.333313 460.301971,351.150848 460.758575,349.968414 
	C462.109558,337.093384 464.197266,324.243561 464.638641,311.337402 
	C465.298584,292.039581 464.800354,272.702179 464.794647,253.381592 
	C464.792175,244.945755 464.792023,244.942993 473.514862,244.940002 
	C512.156067,244.926804 550.797302,244.918274 589.438538,244.900650 
	C596.822754,244.897278 596.890015,244.881256 596.821350,237.374039 
	C596.681335,222.069336 596.454834,206.765457 596.279968,191.461044 
	C596.248230,188.683807 596.375183,186.114059 592.259338,186.174820 
	C582.289307,186.322006 572.315186,186.185440 562.342712,186.178482 
	C531.862915,186.157242 501.383087,186.144135 470.903290,186.125580 
	C464.960114,186.121964 464.344116,185.512863 464.229706,179.578873 
	C463.986908,166.985077 463.803528,166.668396 475.471924,159.911011 
	C497.399872,147.212173 518.616089,133.361832 537.637512,116.712463 
	C556.382446,100.305023 573.750122,82.325951 591.779724,65.096764 
	C593.750366,63.213600 596.101624,61.728695 598.637756,60.045017 
	C597.535034,62.660549 596.554688,65.761612 594.527222,67.842300 
	C582.467041,80.218994 570.800659,93.092674 557.780029,104.391129 
	C542.083862,118.011200 525.425049,130.574265 508.681519,142.914581 
	C499.233826,149.877716 488.770172,155.460358 478.780884,161.691635 
	C475.164734,163.947357 471.529205,166.185730 468.063171,168.657272 
	C467.346832,169.168045 467.094208,170.670090 467.057343,171.730179 
	C466.935913,175.222885 467.011597,178.722412 467.011597,182.989304 
	C468.872131,182.989304 470.618225,182.989304 472.364319,182.989288 
	C512.520630,182.989044 552.677124,183.056305 592.832825,182.896637 
	C597.458618,182.878250 599.151489,183.885376 599.145996,188.916336 
	C599.127380,205.841827 599.700562,222.767532 599.998779,239.694016 
	C600.151550,248.370148 598.007812,248.101334 591.540833,248.078903 
	C552.051514,247.941864 512.561462,248.010391 473.071655,248.010391 
	C471.324463,248.010391 469.577301,248.010376 467.011719,248.010376 
	C467.011719,270.594879 467.109741,292.401337 466.966095,314.206177 
	C466.904022,323.631317 466.863434,333.111847 465.810120,342.454132 
	C465.193329,347.924683 462.518646,353.148163 460.917419,358.526764 
	C459.046936,364.809784 456.224854,370.572266 451.836090,375.459351 
	C447.368347,380.434326 441.889099,383.905243 435.532074,386.066132 
	C433.420013,386.784088 431.553986,388.215729 429.448975,388.966370 
	C414.744202,394.209900 399.302887,395.378357 383.952728,397.012573 
	C366.801300,398.838531 349.752411,397.553192 332.584015,396.484436 
	C322.670074,395.867279 318.343384,392.404144 315.943939,383.511688 
	C313.474304,374.359253 310.085327,365.448151 306.941498,356.486542 
	C304.452057,349.390137 301.661499,342.399902 299.121613,335.320526 
	C296.612122,328.325958 298.260345,327.713715 303.955963,327.928223 
	C325.637115,328.744720 347.324310,329.484894 369.016052,329.873627 
	C374.341980,329.969055 379.792419,329.045319 385.004456,327.819794 
	C389.761902,326.701141 393.282135,322.839508 393.111450,317.174286 
	C392.724335,304.325958 392.990875,291.457947 392.991272,278.597931 
	C392.991577,268.541748 392.991333,258.485565 392.991333,248.339203 
	C381.771240,246.897049 381.134003,247.159546 372.477783,257.077972 
z"/>
<path fill="#54738B" opacity="1.000000" stroke="none" 
	d="
M101.906853,210.022690 
	C96.667450,205.290665 95.314751,200.529541 98.334259,195.305984 
	C99.760132,194.632355 101.032013,194.559250 101.524101,193.902176 
	C104.846611,189.465637 109.418747,189.054916 114.470352,189.115860 
	C134.780060,189.360916 155.092300,189.443298 175.403778,189.473373 
	C183.219635,189.484940 191.039993,189.301468 198.850235,188.998520 
	C202.543884,188.855240 203.987900,190.304077 203.843674,193.958206 
	C203.699295,197.615128 203.775696,201.294876 204.007797,204.948578 
	C204.237732,208.568237 202.826019,210.117508 199.139954,210.107864 
	C169.814850,210.031128 140.489532,210.038467 111.164284,210.020767 
	C108.078476,210.018906 104.992661,210.021927 101.906853,210.022690 
z"/>
<path fill="#95A9B8" opacity="1.000000" stroke="none" 
	d="
M567.919922,27.600357 
	C566.400574,28.014387 563.964539,28.877838 563.179749,28.092073 
	C558.506592,23.413059 553.291565,25.429489 548.104370,26.239866 
	C542.252991,27.154022 536.393433,28.761387 530.534851,28.772959 
	C439.717834,28.952332 348.900421,28.923861 258.083069,28.934752 
	C249.835129,28.935741 249.828903,28.907866 249.800385,36.991894 
	C249.744064,52.958344 249.783966,68.926041 249.564560,84.890198 
	C249.523483,87.879189 250.747269,88.774048 253.288040,88.873405 
	C254.452972,88.918953 255.620377,88.911774 256.786652,88.911537 
	C322.108521,88.898224 387.430420,88.889954 452.752289,88.846237 
	C455.741974,88.844238 458.741547,88.292519 461.717773,88.423309 
	C463.973785,88.522430 466.199951,89.301170 468.430389,90.441277 
	C466.183868,92.672874 465.331848,96.791389 460.999329,94.181709 
	C461.229675,93.105217 461.601349,92.315224 462.214417,91.012215 
	C460.565582,91.012215 458.834625,91.012207 457.103668,91.012222 
	C388.811035,91.012665 320.518250,90.955856 252.226074,91.128464 
	C247.078445,91.141479 245.784485,89.647995 245.869461,84.651428 
	C246.166763,67.166916 246.187027,49.670448 245.860001,32.186985 
	C245.762405,26.968498 247.461212,25.872072 252.389832,25.879908 
	C342.669128,26.023481 432.949005,26.089453 523.227844,25.841320 
	C533.398438,25.813368 543.762573,25.459167 553.569824,21.380697 
	C555.906616,20.408907 559.461365,19.472330 561.884277,23.090496 
	C563.138123,24.962896 565.761536,25.918140 567.919922,27.600357 
z"/>
<path fill="#537089" opacity="1.000000" stroke="none" 
	d="
M215.192703,242.873367 
	C217.930069,246.542664 220.630447,250.240479 223.425079,253.865646 
	C224.390121,255.117477 225.728821,256.089325 226.642181,257.370605 
	C227.524811,258.608795 228.899536,260.351685 228.560440,261.378082 
	C228.178925,262.532898 226.200150,263.647766 224.776733,263.864563 
	C222.170273,264.261627 219.461365,263.990143 216.795166,263.990326 
	C201.131165,263.991547 185.466660,263.919586 169.803452,264.031311 
	C164.725754,264.067505 160.140930,263.377197 157.243896,258.158295 
	C157.639160,256.550079 158.073227,255.569717 157.983856,254.639648 
	C156.849426,242.831863 160.350510,238.987610 172.271042,239.014755 
	C182.753128,239.038620 193.235809,239.093979 203.717102,239.003525 
	C207.257294,238.972977 210.298355,239.381851 212.027939,243.064270 
	C212.994659,245.122482 214.300858,245.639404 215.192703,242.873367 
z"/>
<path fill="#96A9B8" opacity="1.000000" stroke="none" 
	d="
M102.074409,210.365555 
	C104.992661,210.021927 108.078476,210.018906 111.164284,210.020767 
	C140.489532,210.038467 169.814850,210.031128 199.139954,210.107864 
	C202.826019,210.117508 204.237732,208.568237 204.007797,204.948578 
	C203.775696,201.294876 203.699295,197.615128 203.843674,193.958206 
	C203.987900,190.304077 202.543884,188.855240 198.850235,188.998520 
	C191.039993,189.301468 183.219635,189.484940 175.403778,189.473373 
	C155.092300,189.443298 134.780060,189.360916 114.470352,189.115860 
	C109.418747,189.054916 104.846611,189.465637 101.524101,193.902176 
	C101.032013,194.559250 99.760132,194.632355 98.490524,194.968292 
	C99.686661,189.286499 103.209518,186.047745 108.710762,186.032333 
	C139.833954,185.945129 170.957520,185.982056 202.080948,185.994049 
	C206.263947,185.995667 208.392609,187.764069 208.081024,192.338455 
	C207.765045,196.977081 208.019760,201.654099 208.010437,206.314270 
	C207.997803,212.630997 206.703247,213.977997 200.222351,213.998474 
	C185.576187,214.044769 170.929749,214.011383 156.283432,214.010788 
	C141.637115,214.010193 126.985954,214.211334 112.348083,213.859344 
	C108.956085,213.777786 105.609467,211.808868 102.074409,210.365555 
z"/>
<path fill="#53718A" opacity="1.000000" stroke="none" 
	d="
M86.883713,143.825073 
	C87.368759,142.953354 87.853806,142.081635 88.864578,141.360016 
	C92.041939,141.022476 94.687592,140.157867 97.346298,140.115646 
	C106.501465,139.970245 115.669449,139.890442 124.815956,140.231216 
	C129.972961,140.423355 134.311829,146.006134 133.912979,150.984650 
	C133.477646,156.418533 129.670807,159.922195 124.016747,159.954178 
	C115.856972,160.000336 107.696472,160.008804 99.536781,159.956558 
	C91.942642,159.907959 87.945229,155.551971 88.212181,148.069702 
	C88.262039,146.672409 87.351196,145.240829 86.883713,143.825073 
z"/>
<path fill="#54708A" opacity="1.000000" stroke="none" 
	d="
M135.976776,90.931152 
	C138.078064,89.958839 140.137711,88.273842 142.288498,88.148125 
	C148.682419,87.774384 155.120621,87.828369 161.523102,88.119804 
	C163.619507,88.215218 165.659485,89.550507 167.901550,91.053024 
	C168.696884,94.004967 169.424179,96.198982 169.915634,98.444611 
	C171.723618,106.705894 168.381638,110.860878 159.997330,110.850456 
	C154.852112,110.844063 149.703552,110.907738 144.562515,110.746773 
	C136.520645,110.494980 132.328949,103.806015 135.175140,96.191048 
	C135.782883,94.565033 135.726944,92.690956 135.976776,90.931152 
z"/>
<path fill="#96A9B8" opacity="1.000000" stroke="none" 
	d="
M355.940796,128.588623 
	C354.598694,128.939575 352.785339,129.550919 351.681519,128.920319 
	C342.136627,123.467316 332.507294,118.576569 321.441620,116.591309 
	C306.426910,113.897583 291.751495,113.923943 277.115936,118.613800 
	C260.136108,124.054871 245.983307,133.648163 235.129562,147.664093 
	C227.150085,157.968338 221.462280,169.522232 219.808731,182.761200 
	C219.192261,187.696686 217.197525,192.578705 217.293457,197.456345 
	C217.433212,204.562347 218.894669,211.642380 219.601120,219.280396 
	C218.991882,220.188126 218.574142,220.548950 218.156403,220.909790 
	C215.183395,216.492065 214.641296,211.571411 214.948563,206.398193 
	C215.145706,203.078949 215.190720,199.723953 214.951187,196.410507 
	C214.239777,186.570175 217.176270,177.632431 220.574860,168.541687 
	C225.645401,154.978729 232.893066,143.002457 243.928604,133.715012 
	C253.552536,125.615593 264.273773,119.514870 276.586609,115.652748 
	C285.938904,112.719246 295.134186,111.871559 304.632385,112.029724 
	C313.105011,112.170815 321.337311,112.899460 329.726440,115.435379 
	C338.001495,117.936829 345.118011,122.406738 352.941162,125.538376 
	C354.076599,125.992897 354.854950,127.339417 355.940796,128.588623 
z"/>
<path fill="#96AAB9" opacity="1.000000" stroke="none" 
	d="
M220.779144,136.987534 
	C223.069901,137.447540 224.887955,137.907501 226.706024,138.367462 
	C226.126785,140.318542 225.783493,142.381317 224.923080,144.199326 
	C222.549728,149.214188 219.933914,154.113708 217.465393,159.084366 
	C215.898529,162.239410 213.916077,164.161743 209.897919,164.098251 
	C195.604187,163.872498 181.304611,163.973007 167.007523,164.027145 
	C161.192444,164.049149 156.408722,160.464523 154.613068,156.320328 
	C152.836807,152.220795 152.580414,146.421036 156.556381,141.720520 
	C159.488464,138.254089 162.413269,136.828079 166.942368,136.889511 
	C184.727570,137.130692 202.517975,136.987762 220.779144,136.987534 
M218.864990,146.442444 
	C219.762085,144.760544 220.659180,143.078629 221.556274,141.396729 
	C220.385803,140.966522 219.217697,140.168823 218.044525,140.161301 
	C200.915924,140.051544 183.786270,139.975250 166.657745,140.062790 
	C161.649460,140.088379 156.048462,145.964615 156.281998,150.444229 
	C156.530853,155.217209 161.909576,160.048340 167.117889,160.051666 
	C179.258011,160.059387 191.407486,159.712509 203.534622,160.095810 
	C210.234818,160.307587 215.416428,159.593750 216.373306,151.556000 
	C216.557251,150.010956 217.800964,148.592072 218.864990,146.442444 
z"/>
<path fill="#96AAB9" opacity="1.000000" stroke="none" 
	d="
M132.269928,238.115814 
	C140.001587,240.992065 142.668381,246.517899 140.995956,255.421432 
	C140.301285,259.119781 132.375656,264.612915 127.533035,264.572113 
	C109.783943,264.422485 92.035782,264.128967 74.286545,264.048126 
	C67.719406,264.018188 64.420700,259.944275 62.059204,254.746094 
	C59.751019,249.665283 61.265602,244.910065 65.212112,241.539307 
	C67.470947,239.609985 70.948708,238.184341 73.901466,238.140671 
	C93.213760,237.855042 112.532570,238.009140 132.269928,238.115814 
M135.412781,244.134537 
	C132.908188,243.119659 130.415909,241.262314 127.897018,241.225479 
	C110.448181,240.970413 92.993729,241.066330 75.541237,241.110550 
	C68.963669,241.127213 64.993126,244.662704 64.922028,250.354080 
	C64.840118,256.910309 68.967484,261.040710 75.794434,261.054718 
	C92.748383,261.089508 109.705269,260.887390 126.654778,261.162323 
	C131.798569,261.245758 134.797012,258.601776 137.171371,254.922562 
	C139.430206,251.422379 138.247604,247.909546 135.412781,244.134537 
z"/>
<path fill="#96AAB9" opacity="1.000000" stroke="none" 
	d="
M19.389648,186.849625 
	C22.198343,186.472092 24.616575,186.036026 27.037245,186.022079 
	C39.351433,185.951050 51.666725,185.925064 63.980671,186.014664 
	C70.810509,186.064362 76.907272,187.546967 79.968781,194.768097 
	C83.802513,203.810669 77.929497,213.897797 67.996124,213.983002 
	C54.850422,214.095749 41.703018,214.010025 28.556347,214.008987 
	C21.746761,214.008453 13.600748,209.077972 12.053469,204.021759 
	C10.162831,197.843521 12.445469,192.245728 19.389648,186.849625 
M48.558216,189.167923 
	C40.924007,189.181549 33.288811,189.124542 25.655903,189.231125 
	C19.540077,189.316544 15.354598,192.925659 14.958961,198.204590 
	C14.543077,203.753647 18.672832,209.477203 24.465019,209.633453 
	C39.418125,210.036835 54.390686,209.911148 69.351479,209.705582 
	C73.225975,209.652344 76.444702,207.484573 77.512764,203.471848 
	C78.560165,199.536758 78.082016,195.421661 74.462723,193.163651 
	C71.356781,191.225922 67.610146,189.818176 63.990238,189.324600 
	C59.254436,188.678879 54.364548,189.163239 48.558216,189.167923 
z"/>
<path fill="#96A9B8" opacity="1.000000" stroke="none" 
	d="
M391.393341,185.999222 
	C389.999969,184.056808 388.841217,182.154175 388.034363,180.112473 
	C386.420563,176.028748 384.853912,171.913376 383.571014,167.718338 
	C383.064148,166.060806 383.366211,164.155899 383.584351,162.207382 
	C385.918762,166.734360 388.000183,171.404190 390.003845,176.107162 
	C390.859406,178.115326 391.552765,180.192581 392.319824,182.238449 
	C392.875824,182.076096 393.431824,181.913742 393.987823,181.751389 
	C393.987823,179.338257 393.987854,176.925140 393.987823,174.512009 
	C393.987549,158.733627 394.106110,142.953735 393.903809,127.177956 
	C393.852905,123.210045 395.425385,121.914589 399.040680,121.968407 
	C404.022217,122.042557 409.125732,121.295837 413.962738,122.135262 
	C423.308899,123.757202 429.384430,118.947128 435.470612,113.150085 
	C438.362640,110.395477 441.966064,108.387772 445.608704,106.028442 
	C444.835297,107.983940 443.964569,110.183403 442.498077,111.862495 
	C440.704468,113.916107 438.411377,115.533508 435.808502,117.688766 
	C433.559570,119.376434 431.836395,120.714859 430.113251,122.053284 
	C429.256012,122.691742 428.398773,123.330200 426.871704,124.173447 
	C418.498199,124.596397 410.788818,124.706985 403.095398,125.117577 
	C401.427673,125.206581 399.817474,126.372810 398.180786,127.042877 
	C398.138580,145.397339 398.096344,163.751801 397.879883,182.776642 
	C397.480530,183.966492 397.255402,184.485962 397.030273,185.005432 
	C395.282562,185.328995 393.534851,185.652542 391.393341,185.999222 
z"/>
<path fill="#96AAB9" opacity="1.000000" stroke="none" 
	d="
M86.539360,144.095062 
	C87.351196,145.240829 88.262039,146.672409 88.212181,148.069702 
	C87.945229,155.551971 91.942642,159.907959 99.536781,159.956558 
	C107.696472,160.008804 115.856972,160.000336 124.016747,159.954178 
	C129.670807,159.922195 133.477646,156.418533 133.912979,150.984650 
	C134.311829,146.006134 129.972961,140.423355 124.815956,140.231216 
	C115.669449,139.890442 106.501465,139.970245 97.346298,140.115646 
	C94.687592,140.157867 92.041939,141.022476 89.137421,141.210602 
	C91.522163,139.604050 94.110947,137.302063 96.806274,137.169693 
	C106.260094,136.705444 115.750687,136.965759 125.227158,136.997253 
	C129.804077,137.012466 136.179489,142.433884 137.020447,146.746109 
	C138.813034,155.938049 135.491760,159.478043 130.001053,161.854141 
	C119.140938,166.553818 107.538948,163.004364 96.306328,163.940887 
	C95.772758,163.985382 95.204735,163.348770 94.621368,163.104202 
	C85.973953,159.479034 84.776505,152.511826 86.539360,144.095062 
z"/>
<path fill="#96A9B8" opacity="1.000000" stroke="none" 
	d="
M268.463013,281.905060 
	C269.859589,281.497314 271.872253,280.457794 273.359192,280.963623 
	C287.940735,285.924103 302.800537,287.559296 318.017609,285.096619 
	C330.296051,283.109497 341.661194,278.733826 352.027344,271.730774 
	C354.196442,270.265381 356.978607,269.707458 359.779602,268.879761 
	C354.257416,273.018738 348.768280,277.676788 342.514984,280.809479 
	C336.434906,283.855347 329.706421,286.409149 323.020020,287.250488 
	C313.491730,288.449463 303.710449,288.440979 294.097412,287.892944 
	C287.225433,287.501160 280.437836,285.443939 273.645172,283.978790 
	C271.976501,283.618866 270.435059,282.669037 268.463013,281.905060 
z"/>
<path fill="#96A9B8" opacity="1.000000" stroke="none" 
	d="
M215.114502,242.480301 
	C214.300858,245.639404 212.994659,245.122482 212.027939,243.064270 
	C210.298355,239.381851 207.257294,238.972977 203.717102,239.003525 
	C193.235809,239.093979 182.753128,239.038620 172.271042,239.014755 
	C160.350510,238.987610 156.849426,242.831863 157.983856,254.639648 
	C158.073227,255.569717 157.639160,256.550079 157.179230,257.801819 
	C152.126404,254.203995 152.880508,248.400360 154.688278,244.389069 
	C156.694962,239.936340 160.487274,235.687241 167.071442,235.872391 
	C180.503128,236.250061 193.959152,236.218658 207.391953,235.860870 
	C212.299011,235.730164 214.892426,237.044174 215.114502,242.480301 
z"/>
<path fill="#96AAB9" opacity="1.000000" stroke="none" 
	d="
M135.639496,91.059761 
	C135.726944,92.690956 135.782883,94.565033 135.175140,96.191048 
	C132.328949,103.806015 136.520645,110.494980 144.562515,110.746773 
	C149.703552,110.907738 154.852112,110.844063 159.997330,110.850456 
	C168.381638,110.860878 171.723618,106.705894 169.915634,98.444611 
	C169.424179,96.198982 168.696884,94.004967 168.052429,91.399734 
	C173.140244,92.781067 174.663879,97.376961 174.775681,101.757080 
	C174.886887,106.113579 172.651825,110.214783 168.234039,112.318382 
	C158.528732,116.939758 148.439758,116.537949 138.860703,112.796150 
	C130.080246,109.366295 128.603317,97.869125 135.639496,91.059761 
z"/>
<path fill="#96A9B8" opacity="1.000000" stroke="none" 
	d="
M221.958878,228.789780 
	C223.718216,231.905914 225.337189,235.112061 227.265793,238.119659 
	C231.423691,244.603760 235.824188,250.933243 239.928558,257.449982 
	C240.849609,258.912384 240.962677,260.883667 241.175507,262.858521 
	C232.373367,254.457108 225.706406,244.612289 221.601730,233.129181 
	C221.229172,232.086929 221.180862,230.928787 221.221405,229.381485 
	C221.626831,228.888916 221.792847,228.839340 221.958878,228.789780 
z"/>
<path fill="#506F86" opacity="1.000000" stroke="none" 
	d="
M221.964096,228.397858 
	C221.792847,228.839340 221.626831,228.888916 221.204758,228.982941 
	C219.970123,226.583038 218.991531,224.138733 218.084671,221.302094 
	C218.574142,220.548950 218.991882,220.188126 219.635437,219.656494 
	C220.563919,222.325760 221.266617,225.165863 221.964096,228.397858 
z"/>
<path fill="#4F6E85" opacity="1.000000" stroke="none" 
	d="
M332.994293,393.017426 
	C325.170807,393.032867 322.682007,394.346405 320.316986,384.274506 
	C319.145782,379.286835 316.940002,374.542084 315.345947,369.005066 
	C316.189362,365.777588 316.627625,363.364197 312.847260,363.074951 
	C312.660187,362.569855 312.473114,362.064728 312.540802,361.155823 
	C314.867432,357.556244 312.155304,356.966370 310.190460,355.969452 
	C309.859436,354.858795 309.528442,353.748108 309.332550,352.018219 
	C308.746552,349.918915 308.025421,348.438812 307.304321,346.958740 
	C306.931061,345.531830 306.557770,344.104950 306.320526,342.056091 
	C305.568939,339.955566 304.681305,338.476959 303.793671,336.998322 
	C303.714783,336.851379 303.635925,336.704407 303.872192,336.192871 
	C304.807526,334.292267 305.427673,332.756226 306.047852,331.220215 
	C306.781464,331.208221 307.515137,331.196228 308.781311,331.527161 
	C312.857178,332.290771 316.400513,332.711456 319.943878,333.132141 
	C325.956604,333.202423 331.969360,333.272675 338.411957,333.718689 
	C337.452423,335.404297 336.032684,336.683685 334.680328,338.030762 
	C332.375244,340.326752 332.918213,342.744537 335.907898,343.664948 
	C342.573212,345.716949 349.180176,340.210052 348.106659,333.497314 
	C358.440155,333.358032 368.773651,333.218719 379.870850,333.277039 
	C383.213501,334.363220 385.220337,334.011139 386.000977,331.000000 
	C386.786774,330.688141 387.572571,330.376251 388.887268,330.182129 
	C390.274597,330.199097 391.133026,330.098236 391.991455,329.997406 
	C393.165253,330.599457 394.339081,331.201538 395.512878,331.803589 
	C394.631927,332.697693 393.750244,333.591034 392.870209,334.486053 
	C391.710083,335.665894 390.551300,336.847107 389.391907,338.027710 
	C390.848602,339.158875 392.199249,340.485229 393.798462,341.354156 
	C394.909882,341.958099 396.352570,342.029144 397.665344,342.172363 
	C402.869965,342.740051 407.978333,343.074860 407.682892,350.587067 
	C407.630524,351.918396 410.269226,354.049835 412.053864,354.643433 
	C421.688110,357.847687 429.807953,363.332275 437.304901,370.022430 
	C439.674500,372.137024 442.665619,373.555176 445.606659,375.511047 
	C444.665192,376.701477 443.489349,377.672852 441.706696,378.818481 
	C440.393524,379.609467 439.687134,380.226135 438.980743,380.842834 
	C438.631348,380.946930 438.281921,381.051025 437.335022,381.197449 
	C436.152130,381.772919 435.566711,382.306061 434.981293,382.839172 
	C433.687317,383.285522 432.393372,383.731842 430.424133,384.214600 
	C429.161621,384.802063 428.574432,385.353058 427.987244,385.904053 
	C426.884796,386.248505 425.782410,386.592987 424.038513,386.766754 
	C420.275208,386.792267 416.735199,385.854065 414.960999,389.705933 
	C412.217041,390.075836 409.473083,390.445740 405.999420,390.639099 
	C402.502625,391.165405 399.735565,391.868286 396.968475,392.571198 
	C394.278992,392.725830 391.589478,392.880432 388.266602,392.871063 
	C387.080200,392.830383 386.527191,392.953705 385.974182,393.077026 
	C371.926453,393.227081 357.878876,393.402863 343.830811,393.504303 
	C341.190369,393.523376 338.547821,393.245789 335.283386,392.921631 
	C334.105103,392.831238 333.549713,392.924347 332.994293,393.017426 
z"/>
<path fill="#5B788F" opacity="1.000000" stroke="none" 
	d="
M398.584290,127.034523 
	C399.817474,126.372810 401.427673,125.206581 403.095398,125.117577 
	C410.788818,124.706985 418.498199,124.596397 426.614685,124.367371 
	C425.374420,125.223618 423.747253,126.776550 422.063782,126.840225 
	C414.380432,127.130882 406.681274,127.003395 398.584290,127.034523 
z"/>
<path fill="#5B788F" opacity="1.000000" stroke="none" 
	d="
M457.598572,358.040222 
	C456.249512,361.032257 454.544769,364.074707 452.531097,367.292114 
	C453.895752,364.341583 455.569336,361.216125 457.598572,358.040222 
z"/>
<path fill="#5B788F" opacity="1.000000" stroke="none" 
	d="
M430.493530,122.040932 
	C431.836395,120.714859 433.559570,119.376434 435.610718,117.953918 
	C435.653595,120.965050 433.824341,122.179634 430.493530,122.040932 
z"/>
<path fill="#5B788F" opacity="1.000000" stroke="none" 
	d="
M460.467102,350.059021 
	C460.301971,351.150848 459.845398,352.333313 459.160645,353.744446 
	C459.346893,352.698639 459.761261,351.424164 460.467102,350.059021 
z"/>
<path fill="#5B788F" opacity="1.000000" stroke="none" 
	d="
M451.590271,369.073853 
	C451.107269,370.177979 450.302551,371.369232 449.214844,372.702820 
	C449.710724,371.617126 450.489624,370.389069 451.590271,369.073853 
z"/>
<path fill="#5B788F" opacity="1.000000" stroke="none" 
	d="
M391.998352,329.679382 
	C391.133026,330.098236 390.274597,330.199097 389.202911,330.138062 
	C389.799133,329.382751 390.608612,328.789307 391.720520,328.143555 
	C392.017029,328.514648 392.011139,328.938019 391.998352,329.679382 
z"/>
<path fill="#4F6E85" opacity="1.000000" stroke="none" 
	d="
M397.153076,326.108704 
	C396.987061,325.985962 396.997803,325.494232 397.004578,325.248444 
	C397.395844,325.386871 397.780304,325.771088 398.164764,326.155304 
	C397.882874,326.180695 397.600952,326.206085 397.153076,326.108704 
z"/>
<path fill="#5B788F" opacity="1.000000" stroke="none" 
	d="
M397.267334,184.945740 
	C397.255402,184.485962 397.480530,183.966492 397.911743,183.247284 
	C397.913391,183.660370 397.708923,184.273209 397.267334,184.945740 
z"/>
<path fill="#F6F8F9" opacity="1.000000" stroke="none" 
	d="
M313.547791,120.560997 
	C320.930054,122.388939 327.902863,124.169960 335.526886,126.117310 
	C331.723541,133.058258 328.127747,138.455902 325.671814,144.330109 
	C319.390930,159.353149 312.925751,174.460587 313.898956,191.280609 
	C314.305573,198.308105 312.798157,203.265015 304.875153,204.640106 
	C298.538940,205.739807 292.337433,207.595749 286.044037,208.968979 
	C282.305634,209.784714 280.775818,208.229218 280.470825,204.250168 
	C278.732117,181.568115 283.088318,160.253540 294.413879,140.496140 
	C297.866272,134.473434 301.576935,128.535751 305.826813,123.070396 
	C307.158081,121.358353 310.640564,121.319054 313.547791,120.560997 
z"/>
<path fill="#F5F7F8" opacity="1.000000" stroke="none" 
	d="
M314.007538,229.881256 
	C316.179321,223.752380 318.006592,217.884445 320.356354,212.233780 
	C320.862335,211.017029 323.759247,209.516052 324.696716,209.959595 
	C332.158203,213.489853 339.553619,217.225082 346.604614,221.499084 
	C347.920746,222.296860 348.550262,226.135864 347.882721,227.990494 
	C343.251984,240.856674 335.585846,251.919678 325.725342,261.260590 
	C319.729858,266.940186 312.907410,271.753357 306.398773,276.882568 
	C300.897614,281.217865 294.429993,280.958832 288.219666,279.645203 
	C282.226044,278.377380 276.414276,276.146423 270.642578,274.013916 
	C269.380096,273.547455 268.625702,271.706024 267.637299,270.497803 
	C268.586029,269.724792 269.420624,268.691986 270.500549,268.217590 
	C287.956543,260.549286 302.756439,249.787292 312.240570,232.747208 
	C312.725433,231.876038 313.311249,231.061081 314.007538,229.881256 
z"/>
<path fill="#F5F7F8" opacity="1.000000" stroke="none" 
	d="
M353.975830,217.015656 
	C345.732056,210.155716 337.185028,204.651764 326.858154,202.293335 
	C322.824677,201.372162 320.704926,198.702164 321.373291,194.188324 
	C322.467865,186.795914 323.057892,179.316864 324.433655,171.981812 
	C325.529602,166.138718 328.200684,165.113327 333.347137,167.994995 
	C343.128906,173.472076 353.599640,178.108688 362.334137,184.946609 
	C369.742157,190.746109 375.313171,198.991104 381.284302,206.482956 
	C384.038391,209.938461 384.837250,214.239960 383.076996,218.750473 
	C380.495422,225.365585 378.208832,232.096207 375.599701,238.699829 
	C375.113556,239.930344 373.700317,240.794571 372.101532,242.471039 
	C367.501984,232.518250 362.649353,223.557541 353.975830,217.015656 
z"/>
<path fill="#FAFBFB" opacity="1.000000" stroke="none" 
	d="
M271.656616,194.260559 
	C271.642090,197.225311 271.627594,200.190063 271.419647,203.844025 
	C269.463531,204.918243 267.372589,206.110657 265.994324,205.550278 
	C259.598114,202.949661 253.380432,199.903275 247.135941,196.938324 
	C241.680893,194.348206 240.858810,189.853531 241.910828,184.408081 
	C245.001495,168.410385 249.233536,152.763565 257.103058,138.405106 
	C258.913055,135.102661 262.015106,132.081848 265.237701,130.086395 
	C269.415802,127.499298 274.195709,125.693153 278.929962,124.251579 
	C283.237762,122.939857 287.830872,122.565102 292.298218,121.777336 
	C292.615204,122.241554 292.932190,122.705772 293.249176,123.169991 
	C291.038666,126.942665 288.723450,130.658478 286.637115,134.498611 
	C280.204620,146.338150 274.850006,158.686890 272.645935,172.006500 
	C271.442352,179.279938 271.931091,186.833389 271.656616,194.260559 
z"/>
<path fill="#FCFDFD" opacity="1.000000" stroke="none" 
	d="
M225.499084,217.767197 
	C225.436035,217.367111 225.373001,216.967026 225.495911,215.921417 
	C225.395782,211.651962 224.814713,208.019867 224.915146,204.406693 
	C224.998428,201.410889 225.884735,198.437424 226.415283,195.454056 
	C228.711639,196.920273 231.152359,198.203674 233.279938,199.883667 
	C243.697495,208.109665 255.024628,214.697403 268.311371,216.431656 
	C276.134705,217.452774 284.193542,217.055054 292.123657,216.733475 
	C297.181946,216.528351 302.198517,215.295120 307.851379,214.428131 
	C307.765015,216.276886 308.295929,218.385315 307.502594,219.686188 
	C302.688110,227.581024 297.724152,235.398544 292.420258,242.968735 
	C291.425842,244.388092 288.627533,245.298050 286.733398,245.189575 
	C281.288025,244.877731 275.818237,244.231323 270.467651,243.165787 
	C252.732193,239.633881 235.668335,234.758926 225.499084,217.767197 
z"/>
<path fill="#F1F3F5" opacity="1.000000" stroke="none" 
	d="
M332.871643,148.819305 
	C336.619263,138.549820 338.035431,137.982742 348.563171,142.368652 
	C351.614410,143.639816 354.512329,145.379974 357.656647,146.309433 
	C372.566071,150.716614 376.610840,163.719696 381.425507,176.078415 
	C382.744293,179.463593 383.649445,183.042847 384.396240,186.606018 
	C384.872375,188.877838 384.708221,191.283859 384.831116,193.629700 
	C384.382355,193.783813 383.933563,193.937927 383.484772,194.092041 
	C382.298706,193.036743 380.905731,192.139847 379.958008,190.902054 
	C368.310638,175.690079 351.879974,167.514297 334.858185,160.265732 
	C329.669250,158.056061 329.283447,156.817184 332.871643,148.819305 
z"/>
<path fill="#EBEFF1" opacity="1.000000" stroke="none" 
	d="
M322.842712,276.343811 
	C329.728271,268.441742 337.025696,261.213013 343.293335,253.180771 
	C348.212280,246.876907 351.858063,239.579590 356.270050,232.397095 
	C361.819366,237.316910 363.708374,244.176056 365.614899,250.929276 
	C365.919678,252.008881 364.811768,253.819916 363.878143,254.865097 
	C354.492798,265.371796 342.913269,272.597656 329.588745,276.948120 
	C327.574310,277.605804 325.081940,276.799774 322.842712,276.343811 
z"/>
<path fill="#B8C5CE" opacity="1.000000" stroke="none" 
	d="
M225.366272,218.138947 
	C235.668335,234.758926 252.732193,239.633881 270.467651,243.165787 
	C275.818237,244.231323 281.288025,244.877731 286.733398,245.189575 
	C288.627533,245.298050 291.425842,244.388092 292.420258,242.968735 
	C297.724152,235.398544 302.688110,227.581024 307.502594,219.686188 
	C308.295929,218.385315 307.765015,216.276886 307.851379,214.428131 
	C302.198517,215.295120 297.181946,216.528351 292.123657,216.733475 
	C284.193542,217.055054 276.134705,217.452774 268.311371,216.431656 
	C255.024628,214.697403 243.697495,208.109665 233.279938,199.883667 
	C231.152359,198.203674 228.711639,196.920273 226.415283,195.454056 
	C225.884735,198.437424 224.998428,201.410889 224.915146,204.406693 
	C224.814713,208.019867 225.395782,211.651962 225.486481,215.617554 
	C221.338562,208.673828 221.954269,200.821304 222.727478,193.047333 
	C223.063766,189.666214 225.174088,189.565491 228.466949,192.323517 
	C233.160217,196.254517 237.686127,200.459991 242.739426,203.873260 
	C262.476868,217.204971 283.956573,218.094833 306.300079,212.214279 
	C307.870575,211.800980 309.654327,212.197815 311.338898,212.217926 
	C311.057007,213.774246 310.969086,215.397049 310.462036,216.876190 
	C306.980225,227.033508 302.240448,236.535690 294.314209,243.964249 
	C292.365875,245.790268 289.172119,247.228745 286.546387,247.236145 
	C270.835236,247.280380 255.784012,244.156052 242.317337,235.653259 
	C237.063934,232.336288 232.118668,228.457642 227.408768,224.398880 
	C226.022064,223.203888 225.922760,220.514954 225.366272,218.138947 
z"/>
<path fill="#9CAFBD" opacity="1.000000" stroke="none" 
	d="
M271.907227,193.990631 
	C271.931091,186.833389 271.442352,179.279938 272.645935,172.006500 
	C274.850006,158.686890 280.204620,146.338150 286.637115,134.498611 
	C288.723450,130.658478 291.038666,126.942665 293.249176,123.169991 
	C292.932190,122.705772 292.615204,122.241554 292.298218,121.777336 
	C287.830872,122.565102 283.237762,122.939857 278.929962,124.251579 
	C274.195709,125.693153 269.415802,127.499298 265.237701,130.086395 
	C262.015106,132.081848 258.913055,135.102661 257.103058,138.405106 
	C249.233536,152.763565 245.001495,168.410385 241.910828,184.408081 
	C240.858810,189.853531 241.680893,194.348206 247.135941,196.938324 
	C253.380432,199.903275 259.598114,202.949661 265.994324,205.550278 
	C267.372589,206.110657 269.463531,204.918243 271.464020,204.265900 
	C273.186798,207.758942 271.467712,209.153015 268.001160,208.364914 
	C258.641602,206.237198 250.046921,202.299500 242.829651,195.922028 
	C241.222977,194.502289 239.751663,191.525970 240.070328,189.567734 
	C241.657501,179.814102 243.250198,169.980576 246.034714,160.526764 
	C248.497452,152.165421 252.387436,144.202820 255.958099,136.202896 
	C256.997345,133.874496 258.672668,131.158264 260.794830,130.098938 
	C271.050598,124.979492 281.371155,119.744400 293.312897,119.932884 
	C294.261566,119.947853 295.204834,120.305260 297.183105,120.719963 
	C294.644073,125.028725 292.424530,128.934052 290.074615,132.759293 
	C279.410004,150.119370 273.873596,169.033157 272.783813,189.318726 
	C272.704620,190.793015 272.372437,192.253693 271.907227,193.990631 
z"/>
<path fill="#E2E6EA" opacity="1.000000" stroke="none" 
	d="
M274.576843,256.651123 
	C268.960999,259.543243 263.485107,262.181854 257.892151,264.543121 
	C256.873749,264.973083 254.880264,264.746246 254.180191,264.015137 
	C248.706238,258.298431 243.404892,252.414001 238.159561,246.484665 
	C237.650131,245.908798 237.879822,244.679077 237.651443,242.813782 
	C242.078110,244.367126 245.835968,245.809464 249.671143,247.003510 
	C255.945892,248.957123 262.320068,250.602463 268.548309,252.688339 
	C270.747803,253.424973 272.642639,255.071335 274.576843,256.651123 
z"/>
<path fill="#D2DAE0" opacity="1.000000" stroke="none" 
	d="
M236.274734,154.398254 
	C237.505920,153.345322 238.490738,152.525848 240.545166,150.816345 
	C239.364273,156.026810 238.400314,160.046646 237.550400,164.090469 
	C236.532425,168.933884 235.711380,173.820877 234.593613,178.639969 
	C234.216507,180.265671 233.193802,181.741638 232.466141,183.286041 
	C230.941528,182.209427 229.187531,181.348755 227.933990,180.017014 
	C223.635345,175.450241 227.676315,171.133179 229.061203,167.132492 
	C230.597778,162.693542 233.641113,158.776169 236.274734,154.398254 
z"/>
<path fill="#4F6E85" opacity="1.000000" stroke="none" 
	d="
M350.635956,173.623260 
	C349.724396,172.774689 349.111237,172.080963 348.498077,171.387238 
	C348.809937,170.923584 349.121826,170.459946 349.433685,169.996292 
	C353.935791,172.623413 358.437927,175.250534 362.940033,177.877655 
	C362.547272,178.591675 362.154480,179.305679 361.761719,180.019684 
	C358.152588,177.939163 354.543488,175.858643 350.635956,173.623260 
z"/>
<path fill="#4F6E85" opacity="1.000000" stroke="none" 
	d="
M346.014709,168.835449 
	C346.272217,169.229431 346.328125,169.616684 346.384003,170.003952 
	C346.120331,169.996048 345.856628,169.988144 345.592957,169.980240 
	C345.666351,169.596405 345.739716,169.212585 346.014709,168.835449 
z"/>
<path fill="#E2E6EA" opacity="1.000000" stroke="none" 
	d="
M236.516769,241.524384 
	C236.504105,241.515915 236.529434,241.532837 236.516769,241.524384 
z"/>
<path fill="#5B788F" opacity="1.000000" stroke="none" 
	d="
M347.652863,333.395813 
	C349.180176,340.210052 342.573212,345.716949 335.907898,343.664948 
	C332.918213,342.744537 332.375244,340.326752 334.680328,338.030762 
	C336.032684,336.683685 337.452423,335.404297 338.868927,333.782471 
	C341.663696,333.411774 344.431396,333.353058 347.652863,333.395813 
z"/>
<path fill="#5B788F" opacity="1.000000" stroke="none" 
	d="
M319.627869,332.921875 
	C316.400513,332.711456 312.857178,332.290771 309.145782,331.574524 
	C312.422455,331.756531 315.867126,332.234070 319.627869,332.921875 
z"/>
<path fill="#5B788F" opacity="1.000000" stroke="none" 
	d="
M397.363098,392.647186 
	C399.735565,391.868286 402.502625,391.165405 405.590759,390.634949 
	C403.193787,391.446014 400.475769,392.084595 397.363098,392.647186 
z"/>
<path fill="#5B788F" opacity="1.000000" stroke="none" 
	d="
M305.680481,331.151489 
	C305.427673,332.756226 304.807526,334.292267 303.812927,335.949829 
	C302.105469,333.672760 300.667236,331.234589 305.680481,331.151489 
z"/>
<path fill="#5B788F" opacity="1.000000" stroke="none" 
	d="
M415.330688,389.698975 
	C416.735199,385.854065 420.275208,386.792267 423.687744,386.772705 
	C421.219147,387.863617 418.459778,388.777832 415.330688,389.698975 
z"/>
<path fill="#5B788F" opacity="1.000000" stroke="none" 
	d="
M312.869720,363.439453 
	C316.627625,363.364197 316.189362,365.777588 315.308014,368.632751 
	C314.381714,367.229858 313.636963,365.516907 312.869720,363.439453 
z"/>
<path fill="#5B788F" opacity="1.000000" stroke="none" 
	d="
M385.645905,331.060120 
	C385.220337,334.011139 383.213501,334.363220 380.342194,333.294739 
	C381.796844,332.449982 383.543823,331.785126 385.645905,331.060120 
z"/>
<path fill="#5B788F" opacity="1.000000" stroke="none" 
	d="
M310.215179,356.310303 
	C312.155304,356.966370 314.867432,357.556244 312.531860,360.883118 
	C311.592072,359.559875 310.915985,358.105499 310.215179,356.310303 
z"/>
<path fill="#5B788F" opacity="1.000000" stroke="none" 
	d="
M307.304443,347.300110 
	C308.025421,348.438812 308.746552,349.918915 309.299316,351.671814 
	C308.522186,350.510284 307.913361,349.075897 307.304443,347.300110 
z"/>
<path fill="#5B788F" opacity="1.000000" stroke="none" 
	d="
M303.840088,337.350464 
	C304.681305,338.476959 305.568939,339.955566 306.295441,341.688751 
	C305.385071,340.529755 304.635803,339.116180 303.840088,337.350464 
z"/>
<path fill="#5B788F" opacity="1.000000" stroke="none" 
	d="
M439.277924,380.809875 
	C439.687134,380.226135 440.393524,379.609467 441.389465,378.935974 
	C440.977753,379.511749 440.276428,380.144348 439.277924,380.809875 
z"/>
<path fill="#5B788F" opacity="1.000000" stroke="none" 
	d="
M386.164490,393.193512 
	C386.527191,392.953705 387.080200,392.830383 387.816315,392.852997 
	C387.451202,393.102631 386.902985,393.206299 386.164490,393.193512 
z"/>
<path fill="#5B788F" opacity="1.000000" stroke="none" 
	d="
M333.178101,393.140869 
	C333.549713,392.924347 334.105103,392.831238 334.837891,392.890564 
	C334.464142,393.116699 333.913025,393.190491 333.178101,393.140869 
z"/>
<path fill="#5B788F" opacity="1.000000" stroke="none" 
	d="
M428.285797,385.842651 
	C428.574432,385.353058 429.161621,384.802063 430.078857,384.228821 
	C429.800720,384.731445 429.192535,385.256348 428.285797,385.842651 
z"/>
<path fill="#5B788F" opacity="1.000000" stroke="none" 
	d="
M435.276917,382.786255 
	C435.566711,382.306061 436.152130,381.772919 437.061890,381.217896 
	C436.781677,381.708435 436.177094,382.220856 435.276917,382.786255 
z"/>
<path fill="#517089" opacity="1.000000" stroke="none" 
	d="
M218.710388,146.778717 
	C217.800964,148.592072 216.557251,150.010956 216.373306,151.556000 
	C215.416428,159.593750 210.234818,160.307587 203.534622,160.095810 
	C191.407486,159.712509 179.258011,160.059387 167.117889,160.051666 
	C161.909576,160.048340 156.530853,155.217209 156.281998,150.444229 
	C156.048462,145.964615 161.649460,140.088379 166.657745,140.062790 
	C183.786270,139.975250 200.915924,140.051544 218.044525,140.161301 
	C219.217697,140.168823 220.385803,140.966522 221.556274,141.396729 
	C220.659180,143.078629 219.762085,144.760544 218.710388,146.778717 
z"/>
<path fill="#54708A" opacity="1.000000" stroke="none" 
	d="
M135.643524,244.449982 
	C138.247604,247.909546 139.430206,251.422379 137.171371,254.922562 
	C134.797012,258.601776 131.798569,261.245758 126.654778,261.162323 
	C109.705269,260.887390 92.748383,261.089508 75.794434,261.054718 
	C68.967484,261.040710 64.840118,256.910309 64.922028,250.354080 
	C64.993126,244.662704 68.963669,241.127213 75.541237,241.110550 
	C92.993729,241.066330 110.448181,240.970413 127.897018,241.225479 
	C130.415909,241.262314 132.908188,243.119659 135.643524,244.449982 
z"/>
<path fill="#53718A" opacity="1.000000" stroke="none" 
	d="
M49.049580,189.164688 
	C54.364548,189.163239 59.254436,188.678879 63.990238,189.324600 
	C67.610146,189.818176 71.356781,191.225922 74.462723,193.163651 
	C78.082016,195.421661 78.560165,199.536758 77.512764,203.471848 
	C76.444702,207.484573 73.225975,209.652344 69.351479,209.705582 
	C54.390686,209.911148 39.418125,210.036835 24.465019,209.633453 
	C18.672832,209.477203 14.543077,203.753647 14.958961,198.204590 
	C15.354598,192.925659 19.540077,189.316544 25.655903,189.231125 
	C33.288811,189.124542 40.924007,189.181549 49.049580,189.164688 
z"/>
</svg>