<?xml version="1.0" encoding="UTF-8"?>
<svg version="1.1" xmlns="http://www.w3.org/2000/svg" width="199" height="133">
<path d="M0 0 C65.67 0 131.34 0 199 0 C199 43.89 199 87.78 199 133 C133.33 133 67.66 133 0 133 C0 89.11 0 45.22 0 0 Z " fill="#FDFDFC" transform="translate(0,0)"/>
<path d="M0 0 C4.3013833 0.19726057 6.52385948 2.33846048 9.5438385 5.14245605 C10.08460022 5.61940918 10.62536194 6.0963623 11.18251038 6.58776855 C12.504153 7.7573638 13.80723376 8.94787699 15.1063385 10.14245605 C11.59694115 14.32720135 8.01801537 18.32391435 4.1063385 22.14245605 C3.61391663 22.69159668 3.12149475 23.2407373 2.614151 23.80651855 C-4.94778831 31.97341301 -14.87582254 39.18768174 -24.85850525 44.12683105 C-25.86010681 44.7919873 -26.86170837 45.45714355 -27.8936615 46.14245605 C-28.2236615 48.12245605 -28.5536615 50.10245605 -28.8936615 52.14245605 C-14.7036615 52.14245605 -0.5136615 52.14245605 14.1063385 52.14245605 C14.1063385 58.74245605 14.1063385 65.34245605 14.1063385 72.14245605 C-0.0836615 72.14245605 -14.2736615 72.14245605 -28.8936615 72.14245605 C-28.73651819 81.52050674 -28.73651819 81.52050674 -28.53330994 90.89758301 C-28.458137 99.85710596 -28.99137321 108.55152866 -35.0186615 115.64245605 C-43.96034008 120.30767966 -52.58606591 120.52942631 -62.5186615 120.32995605 C-63.80901306 120.3164209 -65.09936462 120.30288574 -66.42881775 120.28894043 C-69.58421178 120.2538805 -72.73870727 120.2047375 -75.8936615 120.14245605 C-76.89853045 117.18575387 -77.89672174 114.22684029 -78.8936615 111.26745605 C-79.17983337 110.42569824 -79.46600525 109.58394043 -79.760849 108.7166748 C-80.03155212 107.91101074 -80.30225525 107.10534668 -80.5811615 106.27526855 C-80.83252869 105.53164062 -81.08389587 104.7880127 -81.34288025 104.02185059 C-81.8936615 102.14245605 -81.8936615 102.14245605 -81.8936615 100.14245605 C-81.12699158 100.13311035 -80.36032166 100.12376465 -79.57041931 100.11413574 C-76.09418047 100.06042833 -72.61928676 99.9767803 -69.1436615 99.89245605 C-67.937099 99.87827637 -66.7305365 99.86409668 -65.4874115 99.8494873 C-64.32725525 99.81726074 -63.167099 99.78503418 -61.9717865 99.75183105 C-60.36932068 99.72041016 -60.36932068 99.72041016 -58.73448181 99.68835449 C-55.17582854 99.00451565 -53.99399519 98.07401721 -51.8936615 95.14245605 C-51.2572964 92.45007619 -51.2572964 92.45007619 -51.2842865 89.50183105 C-51.25205994 88.43190918 -51.21983337 87.3619873 -51.18663025 86.25964355 C-51.17245056 85.14847168 -51.15827087 84.0372998 -51.1436615 82.89245605 C-51.09918884 81.20249512 -51.09918884 81.20249512 -51.05381775 79.47839355 C-50.98317238 76.69967585 -50.93044873 73.92179457 -50.8936615 71.14245605 C-53.2036615 71.14245605 -55.5136615 71.14245605 -57.8936615 71.14245605 C-57.58322126 68.74633967 -57.27037792 66.3505777 -56.9561615 63.95495605 C-56.82564392 62.94465332 -56.82564392 62.94465332 -56.69248962 61.91394043 C-56.21540673 58.2916444 -55.66354115 54.71442021 -54.8936615 51.14245605 C-53.5736615 51.47245605 -52.2536615 51.80245605 -50.8936615 52.14245605 C-50.8936615 45.54245605 -50.8936615 38.94245605 -50.8936615 32.14245605 C-48.758974 32.17339355 -48.758974 32.17339355 -46.5811615 32.20495605 C-39.311505 31.31810344 -39.311505 31.31810344 -29.8936615 22.14245605 C-52.9936615 21.81245605 -76.0936615 21.48245605 -99.8936615 21.14245605 C-99.8936615 14.54245605 -99.8936615 7.94245605 -99.8936615 1.14245605 C-87.49771492 1.01168318 -75.10176517 0.88122137 -62.70580959 0.75130463 C-56.94965856 0.69096447 -51.19350901 0.63048888 -45.43736267 0.56970215 C-39.88067007 0.51102672 -34.32397381 0.45270919 -28.76727486 0.39463806 C-26.64904204 0.37243858 -24.53081057 0.35011092 -22.41258049 0.32765198 C-19.44200353 0.29617792 -16.47142211 0.26516276 -13.50083923 0.23425293 C-12.62833527 0.22490219 -11.7558313 0.21555145 -10.85688782 0.20591736 C-9.25799648 0.18945831 -7.65906693 0.17624244 -6.06011772 0.16697693 C-4.03944126 0.14410605 -2.01945474 0.0738851 0 0 Z " fill="#612926" transform="translate(179.89366149902344,7.8575439453125)"/>
<path d="M0 0 C4.9104643 2.77889125 8.4039492 5.73409182 11.5 10.4375 C12.16 11.345 12.82 12.2525 13.5 13.1875 C15.02574466 18.14617016 13.72393044 22.48894673 12.5 27.4375 C11.778125 26.695 11.05625 25.9525 10.3125 25.1875 C5.04014092 20.03230446 0.26682628 17.2654274 -6.5 14.4375 C-6.5 18.0675 -6.5 21.6975 -6.5 25.4375 C-4.953125 26.13875 -3.40625 26.84 -1.8125 27.5625 C3.54081341 30.23915671 7.30112118 32.93308498 9.3125 38.8125 C9.4053125 39.616875 9.4053125 39.616875 9.5 40.4375 C8.51 40.4375 7.52 40.4375 6.5 40.4375 C5.84 39.1175 5.18 37.7975 4.5 36.4375 C3.94570312 37.20835938 3.39140625 37.97921875 2.8203125 38.7734375 C2.09585938 39.77632812 1.37140625 40.77921875 0.625 41.8125 C-0.09429687 42.81023437 -0.81359375 43.80796875 -1.5546875 44.8359375 C-3.5 47.4375 -3.5 47.4375 -5.5 49.4375 C-4.18 50.0975 -2.86 50.7575 -1.5 51.4375 C-7.10525574 54.94430573 -14.17044027 54.04983012 -20.5 53.4375 C-28.89058091 51.05758589 -34.61720399 45.58718308 -38.81640625 38.0859375 C-41.94184305 31.22522257 -42.8452341 24.35675844 -40.83984375 17.0234375 C-37.49427032 8.59433041 -31.68967884 1.99499378 -23.36328125 -1.70703125 C-15.25433563 -4.12975852 -7.65207889 -3.53172872 0 0 Z " fill="#74413D" transform="translate(111.5,39.5625)"/>
<path d="M0 0 C7.18356969 2.32409608 11.75154407 6.89219248 15.23046875 13.44140625 C16.63295967 18.10451058 15.33975505 22.43459266 14 27 C13.278125 26.2575 12.55625 25.515 11.8125 24.75 C6.54014092 19.59480446 1.76682628 16.8279274 -5 14 C-5 17.63 -5 21.26 -5 25 C-3.453125 25.70125 -1.90625 26.4025 -0.3125 27.125 C5.04081341 29.80165671 8.80112118 32.49558498 10.8125 38.375 C10.9053125 39.179375 10.9053125 39.179375 11 40 C10.01 40 9.02 40 8 40 C7.34 38.68 6.68 37.36 6 36 C5.44570312 36.77085938 4.89140625 37.54171875 4.3203125 38.3359375 C3.59585938 39.33882812 2.87140625 40.34171875 2.125 41.375 C1.40570313 42.37273437 0.68640625 43.37046875 -0.0546875 44.3984375 C-2 47 -2 47 -4 49 C-2.68 49.66 -1.36 50.32 0 51 C-5.58556158 54.49448451 -12.68997622 53.65716122 -19 53 C-22.6330936 51.72996606 -25.79035006 50.1145929 -29 48 C-29 47.34 -29 46.68 -29 46 C-26.09399739 44.74335022 -24.20395416 44 -21 44 C-21 43.34 -21 42.68 -21 42 C-22.65 41.67 -24.3 41.34 -26 41 C-26 40.67 -26 40.34 -26 40 C-25.25234375 39.99742188 -24.5046875 39.99484375 -23.734375 39.9921875 C-20.71964805 39.87380817 -17.94583379 39.66217589 -15 39 C-12.27120617 36.01132104 -11.26513143 33.79539429 -10 30 C-10.75925781 30.02320312 -11.51851562 30.04640625 -12.30078125 30.0703125 C-13.29464844 30.08835937 -14.28851563 30.10640625 -15.3125 30.125 C-16.79169922 30.15980469 -16.79169922 30.15980469 -18.30078125 30.1953125 C-21 30 -21 30 -24 28 C-23.01 28 -22.02 28 -21 28 C-21 24.04 -21 20.08 -21 16 C-20.34 15.67 -19.68 15.34 -19 15 C-19 19.29 -19 23.58 -19 28 C-15.7 27.01 -12.4 26.02 -9 25 C-8.91363281 24.17757812 -8.82726562 23.35515625 -8.73828125 22.5078125 C-7.69736123 14.23775065 -6.10080859 6.10080859 0 0 Z " fill="#713B37" transform="translate(110,40)"/>
<path d="M0 0 C7.41846181 1.48369236 13.2066691 5.11416516 18.0078125 11.03125 C19.8437513 14.67421519 18.9978186 18.18611558 18 22 C17.67 22.99 17.34 23.98 17 25 C19.31 25 21.62 25 24 25 C24 32.92 24 40.84 24 49 C23.67 49 23.34 49 23 49 C23 41.41 23 33.82 23 26 C21.02 26 19.04 26 17 26 C16.74089844 26.59425781 16.48179688 27.18851563 16.21484375 27.80078125 C14.91195824 30.15938107 13.61934696 31.46682588 11.5625 33.1875 C10.96566406 33.69667969 10.36882812 34.20585938 9.75390625 34.73046875 C8 36 8 36 5 37 C2.3125 36.5625 2.3125 36.5625 0 36 C0.38671875 35.50371094 0.7734375 35.00742188 1.171875 34.49609375 C4.50270951 30.15116853 7.39257462 25.81370839 10 21 C11.5 22.375 11.5 22.375 13 24 C13 24.66 13 25.32 13 26 C13.66 25.67 14.32 25.34 15 25 C11.36587274 17.27747957 6.44992476 14.72496238 -1 11 C-0.67 7.37 -0.34 3.74 0 0 Z " fill="#F8F6F6" transform="translate(105,54)"/>
<path d="M0 0 C2.64 0.33 5.28 0.66 8 1 C9 4 9 4 8.29296875 5.8046875 C7.92816406 6.48789062 7.56335938 7.17109375 7.1875 7.875 C5.23207577 11.90516248 4.59647142 15.42828006 4.125 19.875 C3.35597953 25.70730572 3.35597953 25.70730572 0.1875 28.3125 C-2.69055126 28.93325615 -5.07894929 29.05455273 -8 29 C-8.69405059 17.95302815 -6.74152757 8.90844714 0 0 Z " fill="#F8F6F5" transform="translate(99,39)"/>
<path d="M0 0 C1.43352212 0.00015908 2.86704998 0.00585132 4.30053711 0.01586914 C5.43041298 0.01799156 5.43041298 0.01799156 6.58311462 0.02015686 C8.99807646 0.02577163 11.41294687 0.03832656 13.82788086 0.05102539 C15.46134307 0.05603849 17.09480672 0.06060173 18.72827148 0.06469727 C22.74067671 0.07574585 26.75301326 0.09302033 30.76538086 0.11352539 C30.76538086 2.75352539 30.76538086 5.39352539 30.76538086 8.11352539 C26.10231072 8.16289818 21.43939213 8.19923166 16.77612305 8.22338867 C15.18918203 8.23345727 13.60225961 8.24711306 12.01538086 8.2644043 C9.73668839 8.2886154 7.4582408 8.29999961 5.17944336 8.30883789 C4.46793121 8.31916046 3.75641907 8.32948303 3.02334595 8.34011841 C1.26906421 8.34051961 -0.48458623 8.23554748 -2.23461914 8.11352539 C-4.23461914 6.11352539 -4.23461914 6.11352539 -4.42211914 3.55102539 C-4.13593385 -0.16938333 -3.83976627 0.13476423 0 0 Z " fill="#733E3B" transform="translate(36.234619140625,60.886474609375)"/>
<path d="M0 0 C2.52829612 1.21773226 4.71773465 2.48337231 7.0625 4.0625 C11.790802 7.18116727 15.70827498 7.12470954 21.1875 7.0625 C22.31188477 7.05573242 22.31188477 7.05573242 23.45898438 7.04882812 C25.30602383 7.03706354 27.15302213 7.01912865 29 7 C25.02173913 16.31521739 25.02173913 16.31521739 23 18 C15.28633549 19.55880304 8.83935408 16.49558015 2.5 12.375 C0.0959765 8.56862946 0.16878175 4.4220819 0 0 Z " fill="#F7F4F4" transform="translate(72,62)"/>
<path d="M0 0 C3.40312738 1.05875074 6.01353231 2.00902154 9 4 C8.01512045 11.17194342 3.05712782 16.64948673 -2.5 21.0625 C-6.00626063 23.34747884 -8.82499146 23.55141622 -13 23 C-15.4375 22 -15.4375 22 -17 21 C-17 20.34 -17 19.68 -17 19 C-15.20703125 17.703125 -15.20703125 17.703125 -12.8125 16.25 C-6.17719655 11.94799007 -2.80317186 7.37676806 0 0 Z " fill="#F7F4F4" transform="translate(104,68)"/>
<path d="M0 0 C-0.42152344 0.83144531 -0.84304687 1.66289063 -1.27734375 2.51953125 C-1.82519531 3.60621094 -2.37304688 4.69289063 -2.9375 5.8125 C-3.48277344 6.89144531 -4.02804688 7.97039063 -4.58984375 9.08203125 C-6.59794512 13.23729918 -7.21854748 16.61784513 -7.5625 21.1875 C-7.64628906 22.27417969 -7.73007813 23.36085938 -7.81640625 24.48046875 C-7.87699219 25.31191406 -7.93757813 26.14335938 -8 27 C-11.01290437 26.6576245 -13.6270022 26.15302474 -16.4375 25 C-18.33041348 22.57707075 -18.18766314 21.86653419 -17.9375 18.875 C-16.95146002 12.89042069 -15.95131132 7.05678761 -11.6875 2.5625 C-7.59901133 0.1854717 -4.62535014 -1.54178338 0 0 Z " fill="#F9F7F7" transform="translate(96,40)"/>
<path d="M0 0 C0.91644287 0.00523682 1.83288574 0.01047363 2.77709961 0.01586914 C3.76645508 0.0190918 4.75581055 0.02231445 5.77514648 0.02563477 C6.81606445 0.03401367 7.85698242 0.04239258 8.92944336 0.05102539 C10.49662109 0.05779297 10.49662109 0.05779297 12.09545898 0.06469727 C14.68600996 0.07652627 17.27644895 0.0930085 19.86694336 0.11352539 C20.49194336 2.48852539 20.49194336 2.48852539 20.86694336 5.11352539 C18.37637085 7.6040979 17.58221677 7.37010669 14.14819336 7.37915039 C13.21620117 7.38172852 12.28420898 7.38430664 11.32397461 7.38696289 C10.3481543 7.37922852 9.37233398 7.37149414 8.36694336 7.36352539 C7.39112305 7.37125977 6.41530273 7.37899414 5.40991211 7.38696289 C4.47791992 7.38438477 3.54592773 7.38180664 2.58569336 7.37915039 C1.72911133 7.37689453 0.8725293 7.37463867 -0.01000977 7.37231445 C-2.13305664 7.11352539 -2.13305664 7.11352539 -4.13305664 5.11352539 C-3.38558115 0.18018716 -3.38558115 0.18018716 0 0 Z " fill="#67302C" transform="translate(24.133056640625,77.886474609375)"/>
<path d="M0 0 C1.07507813 -0.0937793 1.07507813 -0.0937793 2.171875 -0.18945312 C4.45555388 -0.25871912 6.09157686 -0.20717457 8.25 0.5625 C10.43024642 2.99667332 11.87786303 5.60857086 13.25 8.5625 C9.79173658 8.62039006 6.33359707 8.65605821 2.875 8.6875 C1.89015625 8.70425781 0.9053125 8.72101563 -0.109375 8.73828125 C-1.05039062 8.74472656 -1.99140625 8.75117187 -2.9609375 8.7578125 C-4.26490479 8.77352295 -4.26490479 8.77352295 -5.59521484 8.78955078 C-7.75 8.5625 -7.75 8.5625 -9.75 6.5625 C-8.91223657 -0.30716009 -6.27916947 0.23767983 0 0 Z " fill="#6C3531" transform="translate(59.75,76.4375)"/>
<path d="M0 0 C0.78955078 -0.01224609 1.57910156 -0.02449219 2.39257812 -0.03710938 C4.45057435 -0.04237279 6.50812009 0.06543715 8.5625 0.1875 C9.2225 0.8475 9.8825 1.5075 10.5625 2.1875 C10.00694444 6.74305556 10.00694444 6.74305556 8.5625 8.1875 C5.73833618 8.31413091 2.94955207 8.37270548 0.125 8.375 C-0.66455078 8.38724609 -1.45410156 8.39949219 -2.26757812 8.41210938 C-4.32557435 8.41737279 -6.38312009 8.30956285 -8.4375 8.1875 C-9.0975 7.5275 -9.7575 6.8675 -10.4375 6.1875 C-9.55404742 -1.05681112 -6.4923885 0.00527408 0 0 Z " fill="#723B39" transform="translate(14.4375,60.8125)"/>
<path d="M0 0 C0.86931152 0.01047363 1.73862305 0.02094727 2.63427734 0.03173828 C3.57529297 0.03818359 4.51630859 0.04462891 5.48583984 0.05126953 C6.47068359 0.06802734 7.45552734 0.08478516 8.47021484 0.10205078 C9.46279297 0.11107422 10.45537109 0.12009766 11.47802734 0.12939453 C13.93399618 0.15300962 16.38948653 0.18594279 18.84521484 0.22705078 C17.52521484 2.53705078 16.20521484 4.84705078 14.84521484 7.22705078 C8.90521484 7.22705078 2.96521484 7.22705078 -3.15478516 7.22705078 C-3.48478516 5.57705078 -3.81478516 3.92705078 -4.15478516 2.22705078 C-2.15478516 0.22705078 -2.15478516 0.22705078 0 0 Z " fill="#67322E" transform="translate(54.15478515625,44.77294921875)"/>
<path d="M0 0 C1.5 1.375 1.5 1.375 3 3 C3 3.66 3 4.32 3 5 C3.515625 4.649375 4.03125 4.29875 4.5625 3.9375 C7 3 7 3 14 4 C14 11.92 14 19.84 14 28 C13.67 28 13.34 28 13 28 C13 20.41 13 12.82 13 5 C11.02 5 9.04 5 7 5 C6.74089844 5.59425781 6.48179688 6.18851562 6.21484375 6.80078125 C4.91195824 9.15938107 3.61934696 10.46682588 1.5625 12.1875 C0.66724609 12.95126953 0.66724609 12.95126953 -0.24609375 13.73046875 C-2 15 -2 15 -5 16 C-7.6875 15.5625 -7.6875 15.5625 -10 15 C-9.61328125 14.50371094 -9.2265625 14.00742188 -8.828125 13.49609375 C-5.49729049 9.15116853 -2.60742538 4.81370839 0 0 Z " fill="#8F6664" transform="translate(115,75)"/>
<path d="M0 0 C9.97674419 2.81395349 9.97674419 2.81395349 13 7 C16.16898476 13.11941885 16.16898476 13.11941885 15.57421875 16.21875 C15.38472656 16.8065625 15.19523437 17.394375 15 18 C14.52691406 17.54109375 14.05382812 17.0821875 13.56640625 16.609375 C8.74244095 12.13333702 4.16068699 9.29599677 -2 7 C-1.125 2.25 -1.125 2.25 0 0 Z " fill="#F2EEED" transform="translate(109,45)"/>
<path d="M0 0 C0.66 1.32 1.32 2.64 2 4 C-0.31 6.64 -2.62 9.28 -5 12 C-3.68 12.66 -2.36 13.32 -1 14 C-6.51479674 17.5043392 -13.7247592 16.46161153 -20 16 C-22.72275613 15.27532798 -24.55816165 14.42936879 -27 13 C-26.34 12.67 -25.68 12.34 -25 12 C-24.67 11.34 -24.34 10.68 -24 10 C-24 10.66 -24 11.32 -24 12 C-20.22921777 13.20665031 -16.93649061 13.45925724 -13 13 C-7.17700474 9.90030671 -3.50353917 5.47427995 0 0 Z " fill="#75423E" transform="translate(111,77)"/>
<path d="M0 0 C1.08152344 0.01417969 2.16304687 0.02835938 3.27734375 0.04296875 C4.90349609 0.05263672 4.90349609 0.05263672 6.5625 0.0625 C9.21484375 0.23046875 9.21484375 0.23046875 10.21484375 1.23046875 C10.33984375 3.73046875 10.33984375 3.73046875 10.21484375 6.23046875 C9.21484375 7.23046875 9.21484375 7.23046875 6.2734375 7.328125 C4.48099609 7.31072266 4.48099609 7.31072266 2.65234375 7.29296875 C0.85603516 7.27943359 0.85603516 7.27943359 -0.9765625 7.265625 C-1.90339844 7.25402344 -2.83023437 7.24242187 -3.78515625 7.23046875 C-4.41015625 4.85546875 -4.41015625 4.85546875 -4.78515625 2.23046875 C-2.78515625 0.23046875 -2.78515625 0.23046875 0 0 Z " fill="#67322D" transform="translate(32.78515625,44.76953125)"/>
<path d="M0 0 C4.84659077 0.59104765 8.60748167 1.97944157 13 4 C12.67 4.66 12.34 5.32 12 6 C13.32 6.33 14.64 6.66 16 7 C16 7.66 16 8.32 16 9 C11.545 10.485 11.545 10.485 7 12 C0.28571429 4.71428571 0.28571429 4.71428571 0 0 Z " fill="#733E3B" transform="translate(73,75)"/>
<path d="M0 0 C0.33 0 0.66 0 1 0 C1.33 3.63 1.66 7.26 2 11 C-2 10 -2 10 -5 8 C-4.01 12.29 -3.02 16.58 -2 21 C-2.99 21 -3.98 21 -5 21 C-6.67451765 17.33865386 -7.27236525 14.4576529 -7.25 10.4375 C-7.25773437 9.04337891 -7.25773437 9.04337891 -7.265625 7.62109375 C-6.99438101 4.9445538 -6.36116595 3.29561718 -5 1 C-3.68 2.32 -2.36 3.64 -1 5 C-0.67 3.35 -0.34 1.7 0 0 Z " fill="#74403E" transform="translate(77,54)"/>
<path d="M0 0 C0.80308594 0.01417969 1.60617188 0.02835938 2.43359375 0.04296875 C3.64208984 0.05263672 3.64208984 0.05263672 4.875 0.0625 C6.87109375 0.23046875 6.87109375 0.23046875 7.87109375 1.23046875 C7.99609375 3.73046875 7.99609375 3.73046875 7.87109375 6.23046875 C6.87109375 7.23046875 6.87109375 7.23046875 4.5859375 7.328125 C3.21115234 7.31072266 3.21115234 7.31072266 1.80859375 7.29296875 C0.88949219 7.28394531 -0.02960937 7.27492188 -0.9765625 7.265625 C-1.68683594 7.25402344 -2.39710937 7.24242187 -3.12890625 7.23046875 C-3.75390625 4.85546875 -3.75390625 4.85546875 -4.12890625 2.23046875 C-2.12890625 0.23046875 -2.12890625 0.23046875 0 0 Z " fill="#6B3531" transform="translate(47.12890625,28.76953125)"/>
<path d="M0 0 C2.14015445 1.69428894 2.92592939 2.68725741 3.5625 5.375 C2.70220086 9.38972933 0.25884924 10.68120343 -3 13 C-5.1875 14.375 -5.1875 14.375 -7 15 C-7.99 14.67 -8.98 14.34 -10 14 C-9.52949219 13.49210937 -9.05898437 12.98421875 -8.57421875 12.4609375 C-4.98265595 8.49014136 -2.0977575 4.93590001 0 0 Z " fill="#F1ECEC" transform="translate(115,75)"/>
<path d="M0 0 C0.99 0.33 1.98 0.66 3 1 C3 1.66 3 2.32 3 3 C3.66 3 4.32 3 5 3 C4.67 5.31 4.34 7.62 4 10 C3.34 9.67 2.68 9.34 2 9 C1.67 9.66 1.34 10.32 1 11 C0.01 10.67 -0.98 10.34 -2 10 C-3.06351675 6.61608307 -3.21442982 5.4195366 -1.5625 2.1875 C-1.046875 1.465625 -0.53125 0.74375 0 0 Z " fill="#A88482" transform="translate(75,48)"/>
<path d="M0 0 C0.33 0.66 0.66 1.32 1 2 C1.66 2 2.32 2 3 2 C2.67 2.66 2.34 3.32 2 4 C1.67 4 1.34 4 1 4 C0.67 8.62 0.34 13.24 0 18 C-5.28798182 17.58525633 -8.11690718 16.64775386 -12 13 C-8.59068103 11.86356034 -7.99664544 12.13252236 -4.8125 13.4375 C-4.09707031 13.72496094 -3.38164063 14.01242188 -2.64453125 14.30859375 C-2.10183594 14.53675781 -1.55914062 14.76492187 -1 15 C-1.01740234 13.75283203 -1.01740234 13.75283203 -1.03515625 12.48046875 C-1.04869141 10.85044922 -1.04869141 10.85044922 -1.0625 9.1875 C-1.07410156 8.10855469 -1.08570312 7.02960937 -1.09765625 5.91796875 C-1 3 -1 3 0 0 Z " fill="#804E4B" transform="translate(89,52)"/>
<path d="M0 0 C5.40489519 1.52012677 8.98492628 5.27385218 13 9 C12.34 10.32 11.68 11.64 11 13 C10.56429687 12.45730469 10.12859375 11.91460937 9.6796875 11.35546875 C6.1359731 7.09840925 3.28824368 4.06370485 -2 2 C-1.34 1.34 -0.68 0.68 0 0 Z " fill="#794542" transform="translate(112,54)"/>
<path d="M0 0 C5.94 1.485 5.94 1.485 12 3 C12 3.66 12 4.32 12 5 C9.69 5.66 7.38 6.32 5 7 C3.29115995 5.37660195 1.62553283 3.70680947 0 2 C0 1.34 0 0.68 0 0 Z " fill="#E7DEDD" transform="translate(77,79)"/>
<path d="M0 0 C1.8125 0.0625 1.8125 0.0625 4 1 C5.75 4.5625 5.75 4.5625 7 8 C6.01 8 5.02 8 4 8 C3.34 6.68 2.68 5.36 2 4 C1.01 5.485 1.01 5.485 0 7 C-0.66 7 -1.32 7 -2 7 C-1.125 2.25 -1.125 2.25 0 0 Z " fill="#6A3632" transform="translate(114,72)"/>
<path d="M0 0 C-1.19899698 3.0831351 -2.47700477 6.06279492 -4 9 C-5.32 8.67 -6.64 8.34 -8 8 C-7.32253522 3.25774652 -4.9532836 0 0 0 Z " fill="#723D3A" transform="translate(84,42)"/>
<path d="M0 0 C0.33 0.66 0.66 1.32 1 2 C3.34907875 2.68931344 3.34907875 2.68931344 6.0625 3.125 C6.98160156 3.29257813 7.90070313 3.46015625 8.84765625 3.6328125 C9.91306641 3.81457031 9.91306641 3.81457031 11 4 C10.34 4.66 9.68 5.32 9 6 C4.41462451 5.74525692 1.41338353 5.14031285 -2 2 C-1.34 2 -0.68 2 0 2 C0 1.34 0 0.68 0 0 Z " fill="#804D4A" transform="translate(86,87)"/>
<path d="M0 0 C4.54541121 2.2727056 5.14145639 3.44656817 7 8 C7 8.99 7 9.98 7 11 C6.34 11 5.68 11 5 11 C3.35 7.37 1.7 3.74 0 0 Z " fill="#75423F" transform="translate(119,48)"/>
<path d="M0 0 C0.99 0.66 1.98 1.32 3 2 C2.01 3.98 1.02 5.96 0 8 C-0.99 8 -1.98 8 -3 8 C-2.690625 7.236875 -2.38125 6.47375 -2.0625 5.6875 C-1.32106407 3.81210323 -0.63771783 1.91315348 0 0 Z " fill="#774440" transform="translate(100,70)"/>
<path d="M0 0 C-2.93720508 1.52299523 -5.9168649 2.80100302 -9 4 C-9.66 3.34 -10.32 2.68 -11 2 C-6.89657963 -0.38570952 -4.61380251 -1.49270081 0 0 Z " fill="#8B5E5A" transform="translate(93,39)"/>
<path d="M0 0 C2.31 0.66 4.62 1.32 7 2 C6.67 2.99 6.34 3.98 6 5 C4.02 4.34 2.04 3.68 0 3 C0 2.01 0 1.02 0 0 Z " fill="#7B4945" transform="translate(79,77)"/>
<path d="M0 0 C1.32 1.32 2.64 2.64 4 4 C3.01 5.485 3.01 5.485 2 7 C0.68 5.02 -0.64 3.04 -2 1 C-1.34 0.67 -0.68 0.34 0 0 Z " fill="#804E4A" transform="translate(121,60)"/>
<path d="M0 0 C1 3 1 3 0.0625 5.1875 C-0.4634375 6.0846875 -0.4634375 6.0846875 -1 7 C-1.66 7 -2.32 7 -3 7 C-2.25 2.25 -2.25 2.25 0 0 Z " fill="#652E2B" transform="translate(81,44)"/>
</svg>
