<svg id="svg" version="1.1" viewBox="0 0 300 200" width="300" height="200" xmlns="http://www.w3.org/2000/svg"><svg xmlns="http://www.w3.org/2000/svg"><defs><clipPath id="clip-1"><rect x="0" y="0" transform="scale(0.14648,0.14652)" width="2048" height="1365" fill="none"/></clipPath><linearGradient x1="274.30957" y1="44.92542" x2="275.89746" y2="46.5159" gradientUnits="userSpaceOnUse" id="color-1"><stop offset="0" stop-color="#768998"/><stop offset="1" stop-color="#abb2b5"/></linearGradient><linearGradient x1="120.00542" y1="28.19839" x2="122.15933" y2="28.07238" gradientUnits="userSpaceOnUse" id="color-2"><stop offset="0" stop-color="#7e8ea1"/><stop offset="1" stop-color="#6b7890"/></linearGradient><linearGradient x1="247.57617" y1="67.90051" x2="248.60156" y2="69.13802" gradientUnits="userSpaceOnUse" id="color-3"><stop offset="0" stop-color="#83979e"/><stop offset="1" stop-color="#a2a9b2"/></linearGradient><linearGradient x1="23.3666" y1="96.1981" x2="24.48018" y2="104.49436" gradientUnits="userSpaceOnUse" id="color-4"><stop offset="0" stop-color="#848e9e"/><stop offset="1" stop-color="#9aa7b2"/></linearGradient><linearGradient x1="76.18682" y1="45.12952" x2="75.50449" y2="54.91868" gradientUnits="userSpaceOnUse" id="color-5"><stop offset="0" stop-color="#88909f"/><stop offset="1" stop-color="#9aa8b3"/></linearGradient></defs><g clip-path="url(#clip-1)" fill="none" fill-rule="nonzero" stroke="none" stroke-width="1" stroke-linecap="butt" stroke-linejoin="miter" stroke-miterlimit="10" stroke-dasharray="" stroke-dashoffset="0" font-family="none" font-weight="none" font-size="none" text-anchor="none" style="mix-blend-mode: normal"><path d="M260.44922,12.64623c2.58252,-0.16302 4.92627,-0.5954 7.45752,-1.12347c1.56738,-0.32697 3.60498,-1.14117 5.15332,-1.1423c0.99609,-0.00072 3.58594,2.55027 4.22021,3.32318c0.52734,0.86775 1.91455,1.73754 2.54004,2.36289c2.26611,2.26447 12.73535,9.16484 13.54834,11.22462c-0.18018,0.61158 -0.31201,0.97275 -0.55811,1.56161c-1.6626,4.33538 -27.95361,28.98432 -33.08643,31.92205c-0.37793,0.59165 -4.18945,3.40967 -4.92041,3.83912c-3.34717,2.05875 -6.61816,5.01172 -10.08398,7.02256c-1.02246,0.59311 -2.0918,1.52264 -3.14648,2.03341c-4.02979,2.36073 -8.0625,4.94022 -12.03223,7.40132c-0.57568,0.35619 -1.42529,0.62535 -1.55859,1.22227c-0.25635,1.14022 -0.02783,4.41319 -0.06885,5.38359l0.05566,2.26462c2.92822,-0.22901 6.69287,-0.10286 9.71191,-0.10139l16.79736,0.00366l17.12109,-0.00103c2.21045,-0.00059 6.2915,-0.13304 8.39502,0.01143c3.56982,-0.02198 9.12451,-0.16967 12.62549,0.0526c0.22266,4.30242 0.14355,8.98037 0.25635,13.33758c0.01318,2.23487 0.24023,16.04469 -0.22266,16.9011l-0.57568,0.36996c-0.9624,-0.19414 -2.67334,-0.01377 -3.71045,-0.0989c-2.28369,0.09538 -5.16504,0.02198 -7.47949,0.02344l-14.52686,-0.00117c-11.39941,-0.00264 -23.04199,0.12864 -34.41211,-0.01978c-1.32861,0.02007 -2.58691,-0.02051 -3.87891,0.28689c0.14648,2.56733 0.18457,5.13963 0.11719,7.71018l-0.22998,19.52073c-0.04102,5.22344 0.31201,11.43004 -0.20947,16.65495c-0.61963,6.22271 -3.51709,14.56557 -7.90869,19.11355c-1.72119,1.78315 -7.29199,5.25128 -9.59619,5.68205c-0.854,0.30476 -1.49121,0.52308 -2.36719,0.74579c-2.61621,1.04615 -4.45752,1.17656 -7.2041,1.70842c-3.24756,0.95531 -6.46582,1.02125 -9.83643,1.21758c-8.15625,1.42564 -19.85303,0.52454 -28.12061,0.02051c-1.40332,-0.09084 -4.16748,0.21099 -5.35254,-0.60073c-1.20117,-0.82198 -7.83252,-21.37582 -8.75977,-24.14652c-0.8291,-2.47619 -1.81934,-4.80293 -2.49771,-7.34212c0.49087,-0.05714 1.0314,-0.08938 1.52798,-0.12894c4.50732,-0.08498 7.92334,0.41172 12.33691,0.87912c4.32129,0.45861 9.10547,0.1304 13.4458,0.19487c5.82129,-0.1011 9.30176,0.47912 14.98975,-1.16777c2.69824,-1.03004 3.90674,-2.04542 4.45898,-5.01099c0.42773,-5.53993 0.25342,-11.01451 0.24902,-16.5622c0.05273,-6.1219 0.06152,-12.24425 0.0249,-18.3663c-0.23877,-0.33245 -0.46875,-0.29919 -0.94482,-0.4315c-0.7998,0.14447 -4.83252,-0.06139 -5.90918,-0.11297c-0.2373,0.08615 -0.45557,0.18755 -0.70459,0.19619c-1.29199,1.05143 -2.76709,3.92703 -4.04883,4.8041c-2.35254,2.34227 -5.19873,5.4485 -7.7915,7.36147c-5.46533,4.03341 -13.35352,7.37407 -20.18262,7.5307c-2.15625,0.04952 -8.30273,0.79326 -10.19268,0.07604c-3.23262,-0.00967 -6.35625,-1.35868 -9.60937,-2.03223c-0.11558,-0.0337 -0.23979,-0.06799 -0.35464,-0.11927c-8.18437,-3.6548 -15.63164,-9.32513 -20.80049,-16.69568c-1.12251,-1.60073 -1.90034,-3.54579 -2.70249,-5.25612c-1.59492,-3.40088 -1.84644,-6.23941 -3.37617,-9.76659c-1.20146,-2.55897 -1.59976,-10.5622 -1.06187,-13.11531c-0.10488,-1.42476 0.8625,-5.03238 1.24966,-6.54256c0.17388,-1.54784 0.85928,-3.22403 1.40156,-4.67824c2.74102,-7.40527 7.57471,-13.85407 13.91294,-18.56176c4.14873,-3.12 8.15698,-5.16059 13.08208,-6.6463c1.39087,-0.39473 3.16714,-1.22637 4.59712,-1.36396c4.05352,-0.3896 10.02964,-0.88132 14.03599,-0.30681c3.05127,0.39604 6.06299,1.05758 9,1.9767c2.45947,0.7789 9.59326,4.17524 11.03613,6.09143c1.14551,1.42916 3.15088,2.38388 4.38574,3.7326c5.44482,5.95048 10.6582,12.93641 12.45996,20.937c0.30176,1.06286 0.64893,2.36762 2.19287,1.68103c0.21826,-0.2778 0.33984,-0.49201 0.35742,-0.85641c0.48486,-9.4567 -0.28564,-19.24762 0.20215,-28.66886l1.62158,-0.18154c3.88477,-0.32059 9.1875,0.24132 13.08545,-0.097c0.46143,-0.28147 1.06787,-0.78974 1.50732,-1.13714c0.54492,-0.76059 7.52344,-6.14725 8.40381,-6.43883c1.02393,-0.46901 6.79541,-5.11678 7.61719,-5.99282c0.53906,-1.10051 1.23486,-1.33626 2.19873,-2.10608l0.00439,-0.22212c-0.91846,-0.29744 -5.00391,-0.24015 -6.19189,-0.24777c-2.11816,0.17377 -7.04004,0.03941 -9.28564,0.03897l-18.71338,-0.00777l-48.57759,-0.0044c-7.80278,-0.00073 -16.47979,-0.19223 -24.20156,-0.00469c-0.32271,-0.57993 -0.29224,-3.51194 -0.3063,-4.32513c-0.05581,-3.50081 -0.06943,-7.0022 -0.04102,-10.50344c0.00747,-1.50989 -0.09741,-15.15095 0.27686,-15.70267c0.68643,-0.29458 1.67813,-0.28683 2.44673,-0.3301c9.28916,0.19622 19.02729,-0.01875 28.38237,-0.01544l59.0332,0.00404l31.9248,-0.00658c5.06104,0.00856 13.14551,0.28379 17.8916,-0.13424z" fill="#506f86"/><path d="M230.11816,119.57231c1.01953,-0.29993 7.60254,-0.10784 9.15088,-0.10081l17.72021,0.03209c7.78711,-0.07487 15.57422,-0.10711 23.36133,-0.09641c2.69531,-0.00103 7.68311,-0.19531 10.20703,0.01509l1.31836,0.13773l-0.31348,0.54374c0.19922,0.30637 0.15234,0.21729 0.51563,0.41187c-0.9624,-0.19414 -2.67334,-0.01377 -3.71045,-0.0989c-2.28369,0.09538 -5.16504,0.02198 -7.47949,0.02344l-14.52686,-0.00117c-11.39941,-0.00264 -23.04199,0.12864 -34.41211,-0.01978c0.93896,-0.24835 2.90186,-0.02813 3.30469,-0.28689c-1.06787,-0.79297 -3.64893,-0.54857 -5.13574,-0.56z" fill="#6c8094"/><path d="M290.55762,119.42227l1.31836,0.13773l-0.31348,0.54374c0.19922,0.30637 0.15234,0.21729 0.51563,0.41187c-0.9624,-0.19414 -2.67334,-0.01377 -3.71045,-0.0989c-0.74268,-0.23604 -1.5249,-0.09289 -2.41846,-0.21802l0.00879,-0.08601c0.73975,-0.03253 0.77051,-0.30608 1.05322,-0.37949c0.95801,-0.24938 2.30127,-0.13377 3.39404,-0.28835z" fill="#8593a2"/><path d="M194.36426,120.00733c0.36328,9.71018 0.03369,19.50403 0.1582,29.22491c0.0293,2.23297 -0.16406,3.71722 -0.50098,5.87106c-0.30615,0.3326 -0.49951,0.64469 -0.91846,0.70916l-0.23877,-0.05568c0.42773,-5.53993 0.25342,-11.01451 0.24902,-16.5622c0.05273,-6.1219 0.06152,-12.24425 0.0249,-18.3663c-0.23877,-0.33245 -0.46875,-0.29919 -0.94482,-0.4315c0.89502,-0.38344 1.19092,-0.34989 2.1709,-0.38945z" fill="#98a6b2"/><path d="M291.64014,29.13084c0.43359,-0.29363 0.64453,-0.25421 1.17041,-0.2781c-1.6626,4.33538 -27.95361,28.98432 -33.08643,31.92205l-0.25781,-0.04015c-0.53613,0.38784 -0.99316,0.73011 -1.50439,1.14857l-0.14648,-0.03751l-0.0542,-0.2315c0.37207,-0.29099 0.71045,-0.58286 1.06641,-0.89026v-0.28352c6.24902,-5.20264 12.46143,-9.87678 18.06885,-15.87604c2.4624,-2.6356 5.40967,-5.01685 7.83691,-7.74051c2.24854,-2.52176 4.94385,-4.94007 6.90674,-7.69304z" fill="url(#color-1)"/><path d="M193.37256,60.06095l1.62158,-0.18154c-0.1875,0.48396 -0.41016,1.08923 -0.4248,1.61245c-0.26367,9.49363 0.25342,19.16454 -0.08789,28.64322c-1.88086,0.34491 -2.47559,0.39678 -4.42529,0.19839c-0.07324,-0.65626 -0.20068,-1.30828 -0.03662,-1.94037c0.13623,0.19473 0.17578,0.2589 0.28271,0.47136l0.16406,-0.04396c-0.06006,-0.64703 -0.13916,-0.46432 0.15381,-0.91531c0.30176,1.06286 0.64893,2.36762 2.19287,1.68103c0.21826,-0.2778 0.33984,-0.49201 0.35742,-0.85641c0.48486,-9.4567 -0.28564,-19.24762 0.20215,-28.66886z" fill="#98a6b2"/><path d="M147.63281,160.86154c4.50732,-0.08498 7.92334,0.41172 12.33691,0.87912c4.32129,0.45861 9.10547,0.1304 13.4458,0.19487c5.82129,-0.1011 9.30176,0.47912 14.98975,-1.16777l0.29443,0.24908c-0.5376,1.27326 -4.45605,1.36264 -4.81494,1.74066c-2.66748,0.25201 -7.41211,0.09231 -10.22168,0.09231c-5.30713,0 -10.74902,0.08791 -16.04004,-0.10696c-2.82422,-0.10403 -6.11719,-0.91136 -9.02197,-1.07399c-0.45557,-0.02637 -0.73828,-0.16703 -1.00928,-0.52454z" fill="#8d9ba8"/><path d="M227.49609,90.7074c0.28418,-1.08293 0.13477,-1.94095 0.41748,-3.03033l0.05566,2.26462c2.92822,-0.22901 6.69287,-0.10286 9.71191,-0.10139l16.79736,0.00366l17.12109,-0.00103c2.21045,-0.00059 6.2915,-0.13304 8.39502,0.01143c0.84668,0.22916 7.22021,0.13744 8.74072,0.20557c-0.58008,0.45099 -36.36475,-0.13289 -39.84229,0.14007c-0.375,0.02945 -1.1543,0.01099 -1.66113,0.12791c1.33154,0.36996 6.9126,0.22505 8.65576,0.22447l21.06885,-0.00806c2.14453,-0.00117 8.26611,-0.14886 10.16016,0.06418c-1.94824,0.31531 -6.5127,0.1956 -8.63818,0.19267l-15.30469,-0.05538c-11.89746,-0.11311 -23.76416,0.10535 -35.67773,-0.03839z" fill="#6c8094"/><path d="M120.84097,43.65978c-0.32271,-0.57993 -0.29224,-3.51194 -0.3063,-4.32513c-0.05581,-3.50081 -0.06943,-7.0022 -0.04102,-10.50344c0.00747,-1.50989 -0.09741,-15.15095 0.27686,-15.70267c0.68643,-0.29458 1.67813,-0.28683 2.44673,-0.3301c-0.4355,0.44674 -0.779,0.33549 -1.53955,0.47124c0.075,0.45748 0.33809,0.97128 0.33838,1.11178c0.00718,2.71172 -0.26821,5.62747 -0.28696,8.32813l0.02886,16.28938c0.00498,1.45275 -0.08965,2.90007 -0.07427,4.337c-0.22983,0.23971 -0.5061,0.25099 -0.84272,0.32381z" fill="url(#color-2)"/><path d="M162.71484,193.07985c-0.12158,-0.14212 -0.06738,-0.07912 -0.09375,-0.32088c0.22559,-0.23443 0.3252,-0.35311 0.7251,-0.3619c2.24854,-0.04542 4.62305,-0.01905 6.86426,-0.01172l12.84229,0.02491c2.18555,-0.0044 4.87646,0.04689 7.02393,-0.08645l0.75879,0.73553c-8.15625,1.42564 -19.85303,0.52454 -28.12061,0.02051z" fill="#98a6b2"/><path d="M106.70859,86.72454c0.85737,1.06022 0.53774,3.05348 0.23745,4.31868c-0.14678,1.69685 -0.45352,3.2022 -0.57393,4.98418c-0.1894,2.80454 1.24937,8.1622 0.14868,10.35502c-1.20146,-2.55897 -1.59976,-10.5622 -1.06187,-13.11531c-0.10488,-1.42476 0.8625,-5.03238 1.24966,-6.54256z" fill="#8593a2"/><path d="M106.70859,86.72454c0.85737,1.06022 0.53774,3.05348 0.23745,4.31868c-0.54976,1.78813 -1.31382,3.54667 -1.41533,5.36132c-0.01377,-0.8485 0.0019,-2.34315 -0.07178,-3.13744c-0.10488,-1.42476 0.8625,-5.03238 1.24966,-6.54256z" fill="#8d9ba8"/><path d="M153.73828,55.16747c3.05127,0.39604 6.06299,1.05758 9,1.9767c2.45947,0.7789 9.59326,4.17524 11.03613,6.09143c-1.22021,0.80923 -2.32031,-0.94901 -3.51562,-1.47531c-3.16699,-1.39575 -6.1875,-3.39267 -9.55811,-4.25846c-2.28076,-0.58579 -4.57031,-1.10081 -6.8833,-1.53714c-0.34424,-0.06564 -0.41602,-0.23429 -0.5376,-0.51136z" fill="#8d9ba8"/><path d="M254.72021,63.50593c0.14502,0.5074 0.13916,0.58081 0.0835,1.10799c-3.34717,2.05875 -6.61816,5.01172 -10.08398,7.02256c-1.02246,0.59311 -2.0918,1.52264 -3.14648,2.03341c-0.30029,-0.41392 -0.24463,-0.22374 -0.26074,-0.71429c0.67529,-0.83692 4.20996,-3.01319 5.23975,-3.7515c2.61035,-1.87136 5.64697,-3.73905 8.16797,-5.69817z" fill="url(#color-3)"/><path d="M260.44922,12.64623c2.58252,-0.16302 4.92627,-0.5954 7.45752,-1.12347c1.56738,-0.32697 3.60498,-1.14117 5.15332,-1.1423c0.99609,-0.00072 3.58594,2.55027 4.22021,3.32318l-0.47021,0.2839c-0.70605,-0.01027 -2.31738,-1.72695 -3.48486,-2.38744c-3.28125,-0.13981 -5.68213,1.16779 -8.80518,1.72491c-1.18506,0.2114 -2.55615,0.12736 -3.76611,0.04936c1.54248,-0.02503 4.06348,-0.0996 5.47852,-0.70475c-1.30664,-0.7155 -3.62256,0.47903 -5.67041,0.24404z" fill="#8593a2"/><path d="M291.87598,119.56c0.13477,-0.95604 0.104,-3.38256 0.10254,-4.39663l-0.00146,-7.78388c0.00879,-0.87751 0.0293,-3.057 0.20654,-3.88645c0.15967,0.53949 0.06152,1.6756 0.03809,2.29348l0.15674,0.0885c0.6958,-0.4778 -0.17578,-2.06095 0.21387,-2.77802l0.28418,0.14755c0.01318,2.23487 0.24023,16.04469 -0.22266,16.9011l-0.57568,0.36996c-0.36328,-0.19458 -0.31641,-0.10549 -0.51562,-0.41187z" fill="#98a6b2"/><path d="M230.11816,119.57231c1.48682,0.01143 4.06787,-0.23297 5.13574,0.56c-0.40283,0.25875 -2.36572,0.03853 -3.30469,0.28689c-1.32861,0.02007 -2.58691,-0.02051 -3.87891,0.28689c0.14648,2.56733 0.18457,5.13963 0.11719,7.71018c-0.10107,0.37817 -0.14941,1.28147 -0.22412,1.7685l-0.19629,0.04645l-0.30176,-0.35194c-0.30908,-1.10359 -0.25488,-8.6548 -0.07764,-9.97612c0.84375,-0.17421 1.86035,-0.24586 2.73047,-0.33084z" fill="#8d9ba8"/><path d="M209.58691,58.64527c0.54492,-0.76059 7.52344,-6.14725 8.40381,-6.43883c-0.24609,1.84234 -5.77734,5.25832 -7.32715,6.52425c-0.30469,0.24835 -0.95801,0.40117 -1.2583,0.67179c0.06152,-0.22608 0.15967,-0.53377 0.18164,-0.75722z" fill="#8593a2"/><path d="M190.07666,192.32381c0.30176,-0.07766 2.69824,-0.12601 3.36768,-0.22418c2.07422,-0.30037 4.15283,-0.65201 6.22266,-0.9641l1.00488,0.70623c-3.24756,0.95531 -6.46582,1.02125 -9.83643,1.21758z" fill="#8593a2"/><path d="M192.86426,155.75678l0.23877,0.05568c0.41895,-0.06447 0.6123,-0.37656 0.91846,-0.70916c-0.35742,1.35678 -0.98877,3.49597 -1.93506,4.49084c-1.48535,1.5619 -6.14941,3.48425 -8.20166,3.16337c0.35889,-0.37802 4.27734,-0.4674 4.81494,-1.74066l-0.29443,-0.24908c2.69824,-1.03004 3.90674,-2.04542 4.45898,-5.01099z" fill="#8593a2"/><path d="M133.75459,138.22007c1.21465,-1.12777 8.35122,0.85846 9.60937,2.03223c-3.23262,-0.00967 -6.35625,-1.35868 -9.60937,-2.03223z" fill="#8593a2"/><path d="M205.63184,189.72894c0.48193,0.10696 2.00391,0.32674 2.24414,0.4044c-2.61621,1.04615 -4.45752,1.17656 -7.2041,1.70842l-1.00488,-0.70623c2.82129,-0.3707 3.30615,-0.62418 5.96484,-1.40659z" fill="#6c8094"/><path d="M188.43457,119.42828c1.70801,0.02769 4.36084,0.0548 5.92969,0.57905c-0.97998,0.03956 -1.27588,0.00601 -2.1709,0.38945c-0.7998,0.14447 -4.83252,-0.06139 -5.90918,-0.11297c0.81152,-0.51575 1.40186,-0.03853 2.15039,-0.85553z" fill="#8593a2"/><path d="M254.72021,63.50593c1.2041,-0.87868 2.91357,-2.33158 4.10742,-3.06549v0.28352c-0.35596,0.3074 -0.69434,0.59927 -1.06641,0.89026l0.0542,0.2315l0.14648,0.03751c0.51123,-0.41846 0.96826,-0.76073 1.50439,-1.14857l0.25781,0.04015c-0.37793,0.59165 -4.18945,3.40967 -4.92041,3.83912c0.05566,-0.52718 0.06152,-0.60059 -0.0835,-1.10799z" fill="#6c8094"/><path d="M184.81201,120.02447c0.30615,0.13626 0.54639,0.20806 0.76758,0.45553c-1.29199,1.05143 -2.76709,3.92703 -4.04883,4.8041l-0.06299,-0.37201c0.38525,-1.04703 2.5459,-4.15678 3.34424,-4.88762z" fill="#98a6b2"/><path d="M221.61914,43.63766c1.60693,-0.1685 6.30322,-0.94491 7.40186,0.21011c0.05859,0.7304 -0.49365,0.91414 -1.06494,1.26432c-0.38086,-0.30945 -0.21533,-0.56015 -0.14941,-1.00454l0.00439,-0.22212c-0.91846,-0.29744 -5.00391,-0.24015 -6.19189,-0.24777z" fill="#98a6b2"/><path d="M291.64014,29.13084c0.00439,-0.07018 0.01025,-0.14037 0.01611,-0.21055c0.07324,-0.79209 0.07764,-1.703 0.65479,-2.18652c0.61963,0.09304 0.50684,0.1307 1.05762,0.55736c-0.18018,0.61158 -0.31201,0.97275 -0.55811,1.56161c-0.52588,0.02388 -0.73682,-0.01553 -1.17041,0.2781z" fill="#6c8094"/><path d="M205.63184,189.72894c1.45166,-0.41319 3.11719,-0.7326 4.61133,-0.34139c-0.854,0.30476 -1.49121,0.52308 -2.36719,0.74579c-0.24023,-0.07766 -1.76221,-0.29744 -2.24414,-0.4044z" fill="#6c7891"/><path d="M184.81201,120.02447c1.12793,-0.92234 2.25732,-0.69905 3.62256,-0.59619c-0.74854,0.817 -1.33887,0.33978 -2.15039,0.85553c-0.2373,0.08615 -0.45557,0.18755 -0.70459,0.19619c-0.22119,-0.24747 -0.46143,-0.31927 -0.76758,-0.45553z" fill="#8d9ba8"/><path d="M227.80664,44.10755c-0.06592,0.4444 -0.23145,0.69509 0.14941,1.00454c-0.44385,0.43736 -1.21436,1.02168 -1.78857,1.26623c-0.20068,-0.05289 -0.36475,-0.08923 -0.55957,-0.16469c0.53906,-1.10051 1.23486,-1.33626 2.19873,-2.10608z" fill="#8d9ba8"/><path d="M149.96484,58.47707c4.54688,-0.23502 10.27002,1.43678 14.44922,3.20835c-4.43848,4.34828 -10.00635,19.61919 -10.7373,26.14154c-0.29297,2.62564 0.05713,7.48161 -0.64746,10.08835c-0.22559,0.8359 -3.12891,1.64571 -4.09131,1.96923c-5.07847,1.71429 -6.71104,1.9285 -11.83301,2.36161c-0.28799,-2.81538 -0.14355,-5.72967 -0.2272,-8.49773c-0.30044,-9.95912 3.32886,-19.303 8.16094,-27.85304c1.46616,-2.5937 3.52427,-4.55736 4.92612,-7.41832z" fill="#fefefe"/><path d="M108.88433,91.81348c0.83584,0.48571 3.76597,3.41099 4.56782,4.15502c6.49058,6.02256 15.05728,9.70022 23.97158,9.42491c5.53184,-0.17084 10.2252,-0.31897 15.12217,-2.84645c-0.98437,3.81201 -2.89453,7.8 -4.90576,11.177c-1.47407,2.43399 -3.34263,4.90022 -5.5708,6.68879c-9.52427,1.15502 -22.89404,-3.53714 -30.00835,-9.83473c-3.60513,-3.19121 -3.35962,-14.25158 -3.17666,-18.76454z" fill="#fefefe"/><path d="M156.84668,101.76234c5.80518,1.69201 8.8916,3.21612 13.75488,6.91311c-0.67383,9.14579 -15.25049,25.33216 -24.60469,28.16879c-0.47432,0.14374 -1.80278,0.12337 -2.36997,0.11912c-5.10029,-0.36264 -8.19653,-1.97026 -13.02407,-3.4589c-0.23789,-0.79326 -0.51489,-1.54974 -0.79424,-2.32747c2.41992,-0.22623 3.11924,-0.35048 5.32412,-1.52879c9.24771,-4.94212 16.28379,-11.33773 19.87559,-21.43399c0.76172,-2.14212 1.21436,-4.24381 1.83838,-6.45187z" fill="#fefefe"/><path d="M144.72085,58.53875l0.16348,0.00249c0.01904,0.28659 -1.26753,1.97978 -1.55889,2.43736c-2.51587,3.95033 -4.56914,7.7493 -6.3936,12.07839c-4.20776,9.98344 -4.26035,18.09465 -4.22212,28.56176c-4.74727,-1.27722 -6.69141,-1.55077 -10.90576,-4.23883c-1.37432,-0.83106 -3.24463,-2.47824 -4.45107,-3.03678c0.09829,-8.23619 3.17637,-17.66022 6.61758,-25.06886c2.0417,-4.6844 3.04219,-5.57333 7.49443,-7.50505c5.30566,-2.30198 7.53647,-2.76542 13.25596,-3.23048z" fill="#fefefe"/><path d="M159.44238,80.98359c1.18066,-0.0233 1.78271,0.14491 2.90186,0.56234c10.72266,4.00073 20.77002,11.41861 25.64063,22.04073c-0.78369,5.50476 -2.08447,8.32777 -4.46191,13.35004c-0.36328,0.52073 -1.28174,1.69421 -1.91016,1.8044c-0.31055,-0.32923 -0.56104,-1.83927 -0.83936,-2.53875c-2.99561,-7.40894 -9.74414,-12.86286 -16.86328,-16.08161c-1.0957,-0.49582 -6.79834,-2.12908 -6.85693,-2.91971c-0.30908,-4.23106 0.63281,-12.44674 2.38916,-16.21744z" fill="#fefefe"/><path d="M164.59717,67.55385c4.28027,1.2822 14.28662,4.4211 16.79736,7.88923c3.51709,4.85685 7.62451,14.83282 6.6123,20.84103c-0.4834,-0.70183 -0.95215,-1.41333 -1.40625,-2.13407c-5.52979,-7.48264 -11.50781,-10.6504 -19.72266,-14.72718c-1.79004,-0.8885 -4.40625,-1.62476 -5.8418,-2.8019c0.71924,-2.90168 2.79492,-6.25289 3.56104,-9.06711z" fill="#fefefe"/><path d="M173.80225,112.57524c1.6875,0.6841 4.47949,8.30462 5.33643,10.14608c-1.45898,2.3452 -5.58398,5.99516 -7.89697,7.59385c-2.78174,1.92249 -7.62891,4.27018 -10.87793,5.16689c-1.57764,0.45158 -3.27686,0.80264 -4.88379,1.13553c6.41309,-4.76894 16.4502,-16.24571 18.32227,-24.04234z" fill="#fefefe"/><path d="M116.67012,118.5559c7.63901,3.61216 10.26079,4.49436 18.51226,5.42388c-0.31758,0.55897 -0.76597,1.40308 -1.14814,1.87941c-3.19863,1.13495 -6.49893,2.84601 -9.35684,3.75443c-3.35728,-3.17245 -6.68174,-6.13114 -8.92822,-10.15209c0.21357,-0.42066 0.54111,-0.61114 0.92095,-0.90564z" fill="#fefefe"/><path d="M115.50278,75.06344c0.64819,-0.92381 1.33462,-1.67165 2.07949,-2.51458c-0.29077,1.71004 -0.70532,3.39678 -1.24028,5.04689c-1.54219,4.74535 -1.9292,7.63853 -2.0855,12.52073c-2.34639,-1.39487 -2.4356,-1.47121 -3.91743,-3.79663c0.72686,-3.55253 3.09331,-8.31092 5.16372,-11.25641z" fill="#fefefe"/><path d="M115.50278,75.06344c0.64819,-0.92381 1.33462,-1.67165 2.07949,-2.51458c-0.29077,1.71004 -0.70532,3.39678 -1.24028,5.04689c-0.11748,-0.73656 -0.25107,-2.08674 -0.83921,-2.53231z" fill="#d4dadb"/><path d="M115.74917,119.46154c-0.48281,-0.57685 -1.08999,-1.09436 -0.93237,-1.88366l0.30615,-0.12322c0.62373,0.15106 1.0519,0.65084 1.54717,1.10125c-0.37983,0.29451 -0.70737,0.48498 -0.92095,0.90564z" fill="#d4dadb"/><path d="M91.2,91.43604c2.59673,-0.18813 6.50068,-0.40659 8.95107,0.26418c0.51782,0.14168 0.26265,4.58183 0.30981,5.19194c0.18677,2.41949 0.59429,4.12337 0.12847,6.54212c-2.63218,0.52806 -6.43652,0.35048 -9.23892,0.34755l-13.58467,-0.0148l-17.21865,0.0315c-2.51074,-0.01187 -5.02925,0.01773 -7.53691,-0.06696c-0.88066,-0.02974 -1.54556,-0.35179 -2.21851,-0.89978c-2.89102,-2.56762 -4.18857,-6.97582 -1.27896,-10.16103c1.56973,-1.71839 6.67734,-1.28322 9.06885,-1.30198c4.42339,-0.03399 8.84692,-0.03121 13.27031,0.00821c4.10493,0.03546 8.21016,0.04557 12.31538,0.03033c2.21338,-0.00322 4.84644,-0.07487 7.03271,0.02872z" fill="#506f86"/><path d="M91.2,91.43604c2.59673,-0.18813 6.50068,-0.40659 8.95107,0.26418c0.51782,0.14168 0.26265,4.58183 0.30981,5.19194c0.18677,2.41949 0.59429,4.12337 0.12847,6.54212c-2.63218,0.52806 -6.43652,0.35048 -9.23892,0.34755l-13.58467,-0.0148l-17.21865,0.0315c-2.51074,-0.01187 -5.02925,0.01773 -7.53691,-0.06696c-0.88066,-0.02974 -1.54556,-0.35179 -2.21851,-0.89978c0.10781,-0.07824 0.69155,-0.46828 0.7626,-0.46505c1.02612,0.04689 2.3458,0.11077 3.34014,0.14037c2.26143,0.04791 4.52344,0.06901 6.7853,0.06359c12.33853,0.01612 25.49297,-0.31414 37.74683,0.05714c0.22603,-1.58579 -0.04131,-3.62095 -0.08613,-5.24234c-0.04819,-1.74564 -0.05552,-3.4674 -0.06138,-5.21348c-2.45068,-0.07106 -4.88701,0.00264 -7.3749,-0.0926c0.18984,-0.10945 6.02432,-0.0589 6.88066,-0.15209c-0.8083,-0.62916 -5.5645,-0.04088 -7.58481,-0.49128z" fill="#98a6b2"/><path d="M55.46411,128.33128l-13.15078,0.03004c-2.29746,0.00366 -4.92495,0.09451 -7.18638,-0.12747c-1.67432,-0.16425 -2.4769,-0.63839 -3.44692,-1.97304c-1.07241,-1.4756 -1.75488,-3.12894 -1.47861,-4.98799c0.19614,-1.36908 0.93325,-2.6022 2.04609,-3.423c0.51123,-0.37685 1.5353,-0.89421 2.15405,-0.9433c2.45918,-0.19502 5.02661,-0.02667 7.50337,-0.05245c5.11172,-0.07429 10.22432,-0.07473 15.33604,-0.00161c2.3061,0.01685 4.67241,-0.18696 6.95405,0.12645c3.00864,0.41348 4.36948,3.8126 3.92183,6.54271c0.03706,1.83414 -1.71255,3.45055 -3.13535,4.40293c-2.89863,0.70491 -6.47813,0.44938 -9.51738,0.40674z" fill="#506f86"/><path d="M64.37549,127.27092l0.60601,0.65363c-2.89863,0.70491 -6.47813,0.44938 -9.51738,0.40674c-0.33926,-0.07077 -0.35479,-0.01612 -0.57026,-0.21963c1.43467,0.06579 3.23906,-0.30974 4.71738,-0.3978c1.32642,-0.07897 3.61099,0.08703 4.76426,-0.44293z" fill="#8593a2"/><path d="M64.37549,127.27092c1.27266,-1.1433 2.40718,-2.37538 3.08423,-3.97597l0.05303,-0.1285c0.13579,0.20864 0.25562,0.39165 0.40166,0.59443c0.06694,-0.0737 0.1377,-0.16205 0.20244,-0.23927c0.03706,1.83414 -1.71255,3.45055 -3.13535,4.40293z" fill="#8d9ba8"/><path d="M8.20563,102.05949c-2.95778,-2.50755 -3.32426,-7.05201 -0.15625,-9.54769c1.19266,-1.04894 2.45251,-1.17055 4.00786,-1.14579c4.82963,0.07663 9.67915,0.0104 14.51064,-0.03062c1.51699,-0.01275 3.16802,-0.04366 4.67432,0.10623c2.77764,-0.09612 4.0377,0.33524 5.91123,2.39121c3.02461,3.88571 1.53149,8.72205 -3.51958,9.80703c-1.09834,0.2359 -3.0813,0.11912 -4.25186,0.12147l-7.01792,0.01099c-3.49819,0.00366 -7.40229,0.09656 -10.88657,-0.11692c-0.96458,-0.05919 -2.50261,-1.00059 -3.27186,-1.5959z" fill="#506f86"/><path d="M8.20563,102.05949c1.16694,-0.35443 4.01626,0.40835 5.67611,0.42813c3.32666,-0.14681 6.97676,0.25319 10.28525,-0.02066c3.60381,-0.29817 12.13374,1.37333 13.33594,-3.01245c0.87026,-2.97553 -1.31777,-6.3578 -4.37754,-6.90022c-5.80957,-1.02974 -12.14517,0.09363 -18.0501,-0.2019c-3.17421,-0.15868 -4.08144,-0.43795 -6.83219,1.12615c0.14477,-0.3496 1.34493,-1.21788 1.72803,-1.26242c1.86558,-0.21685 3.73282,-0.20835 5.61202,-0.20366c5.1665,0.01289 10.3437,-0.07092 15.50918,0.0274c1.4874,0.02842 3.26777,0.45538 4.50996,1.30227c0.51973,0.35443 0.80859,0.91927 1.35864,1.28366l0.0769,-0.50535l0.11558,-0.28762c3.02461,3.88571 1.53149,8.72205 -3.51958,9.80703c-1.09834,0.2359 -3.0813,0.11912 -4.25186,0.12147l-7.01792,0.01099c-3.49819,0.00366 -7.40229,0.09656 -10.88657,-0.11692c-0.96458,-0.05919 -2.50261,-1.00059 -3.27186,-1.5959z" fill="url(#color-4)"/><path d="M31.24219,91.44161c2.77764,-0.09612 4.0377,0.33524 5.91123,2.39121l-0.11558,0.28762c-0.42363,-0.33187 -2.26011,-1.64586 -2.70044,-1.99941c-0.18384,-0.14769 -2.56421,-0.38799 -3.09521,-0.67941z" fill="#8d9ba8"/><path d="M98.42461,115.67956c1.89082,-0.04527 3.25532,-0.21788 5.0603,0.33099c0.7166,1.20571 0.90117,2.49289 1.49883,3.80923c0.9542,2.10227 2.81821,4.28264 4.28672,6.07868c0.56045,0.68542 1.18623,0.67634 1.05,1.78198c-0.26865,0.23311 -0.41572,0.37114 -0.825,0.38271c-2.28735,0.0652 -4.74067,0.04059 -7.01748,0.04205l-15.24653,-0.00322c-1.25815,-0.00615 -2.51631,-0.00044 -3.77432,0.01714c-2.62236,0.03707 -3.93223,0.24103 -5.99048,-1.69084c-4.28467,-4.02154 -1.40977,-10.65114 4.30078,-10.7307c1.68091,-0.02344 3.44868,-0.00674 5.15889,-0.00322c3.83276,0.01788 7.66553,0.01289 11.49829,-0.0148z" fill="#506f86"/><path d="M102.62183,67.28894c1.51069,-0.02139 6.21182,-0.27341 7.27661,0.41875c0.43711,1.34403 -2.12622,3.80293 -2.91519,5.31033c-1.04487,1.99634 -1.08691,4.5915 -2.75229,5.99092c-0.49014,0.16498 -2.62661,0.22168 -3.15483,0.16952c-5.08799,-0.50227 -18.7084,1.19297 -22.72632,-0.86154c-0.34248,-0.14725 -0.65786,-0.42007 -0.9252,-0.66212c-2.76094,-2.57011 -2.91782,-6.14462 -0.20654,-8.82227c1.88232,-1.85919 3.00293,-1.55414 5.48013,-1.57905c1.28745,-0.01289 2.66162,0.0044 3.96079,0.00659z" fill="#506f86"/><path d="M78.3498,78.31692c0.04702,-0.04015 0.43315,-0.32015 0.46348,-0.31927c1.65879,0.04601 3.3085,0.07326 4.96831,0.07341l18.39419,-0.1052c0.652,0.18564 1.50937,0.08498 1.93726,0.38139c0.16172,0.32425 0.15278,0.29978 0.11792,0.66168c-0.49014,0.16498 -2.62661,0.22168 -3.15483,0.16952c-5.08799,-0.50227 -18.7084,1.19297 -22.72632,-0.86154z" fill="#98a6b2"/><path d="M102.62183,67.28894c1.51069,-0.02139 6.21182,-0.27341 7.27661,0.41875c0.43711,1.34403 -2.12622,3.80293 -2.91519,5.31033c-1.04487,1.99634 -1.08691,4.5915 -2.75229,5.99092c0.03486,-0.3619 0.0438,-0.33744 -0.11792,-0.66168c-0.42788,-0.29641 -1.28525,-0.19575 -1.93726,-0.38139c0.19702,-0.00703 1.36714,-0.04322 1.45107,-0.10696c1.40215,-1.06462 1.66714,-4.0907 2.579,-5.5644c0.97749,-1.57993 1.68486,-2.3811 2.40044,-3.90608c-2.42432,-0.12484 -6.48135,-0.02007 -8.66104,-0.33832c0.91069,-0.11868 2.47588,-0.05158 3.42407,-0.04425c1.15503,0.00894 4.46309,-0.45773 5.33276,0.14359c0.61875,1.7915 -2.75962,3.79663 -2.15845,4.90564l0.24961,-0.15004c0.39976,-2.06227 2.73955,-2.93289 2.8585,-4.7937c-1.17363,-1.10242 -7.82358,-0.07136 -8.69268,-0.64015c0.64307,-0.0359 1.02773,-0.07634 1.66274,-0.18227z" fill="#6c8094"/><path d="M42.45396,70.25993c1.34971,-1.46769 2.70806,-3.14168 4.84834,-2.97963c4.26182,0.32293 11.00977,-0.66256 14.9918,0.31238c4.17437,1.02198 5.95913,8.38139 0.99229,10.73275c-1.63813,0.70696 -4.03257,0.92044 -5.80796,0.78608c-3.60747,-0.27297 -10.56797,0.97978 -13.35879,-1.41905c-2.37085,-2.49421 -2.41333,-4.00645 -1.66567,-7.43253z" fill="#506f86"/><path d="M44.11963,77.69245c0.49775,-0.223 3.5978,0.25201 4.57471,0.26374c4.73188,0.057 9.53936,-0.18447 14.23931,0.13421c0.06416,0.00454 0.29663,0.18755 0.35273,0.23502c-1.63813,0.70696 -4.03257,0.92044 -5.80796,0.78608c-3.60747,-0.27297 -10.56797,0.97978 -13.35879,-1.41905z" fill="#98a6b2"/><path d="M66.30864,44.84718c3.49512,-2.01963 9.24082,-1.22813 13.22563,-1.05875c0.47754,0.02037 1.81787,0.89993 2.37129,1.05949c2.15537,0.90344 2.96982,4.44571 2.08389,6.53612c-0.60747,1.44733 -1.77334,2.58784 -3.23335,3.16308c-2.14995,0.84396 -11.01562,0.83297 -13.35132,-0.33304c-1.09438,-0.54637 -1.37417,-1.06066 -2.00991,-2.0485c-1.19517,-0.93143 -0.82646,-4.16044 -0.64541,-5.48454c0.32769,-1.10271 0.55986,-1.34183 1.55918,-1.83385z" fill="#506f86"/><path d="M81.90557,44.84791c2.15537,0.90344 2.96982,4.44571 2.08389,6.53612c-0.60747,1.44733 -1.77334,2.58784 -3.23335,3.16308c-2.14995,0.84396 -11.01562,0.83297 -13.35132,-0.33304c-1.09438,-0.54637 -1.37417,-1.06066 -2.00991,-2.0485c0.57305,-0.32293 1.90078,1.27575 2.71011,1.33949c3.10811,0.24513 9.70269,0.46066 12.61641,0.13949c0.65918,-0.47399 1.19971,-0.85875 1.67637,-1.52747c1.65396,-2.32 -0.16377,-5.02857 -0.49219,-7.26916z" fill="url(#color-5)"/><path d="M64.74946,46.68103c0.32769,-1.10271 0.55986,-1.34183 1.55918,-1.83385c0.19146,0.82886 -0.24214,1.65626 -0.9208,2.15604c-0.21475,0.01875 -0.2707,0.017 -0.47007,0.10901z" fill="#6c7891"/></g></svg></svg>