<svg version="1.1" id="Layer_1" xmlns="http://www.w3.org/2000/svg" xmlns:xlink="http://www.w3.org/1999/xlink" x="0px" y="0px"
	 width="100%" viewBox="0 0 463 319" enable-background="new 0 0 463 319" xml:space="preserve">
<path fill="#F2F2F2" opacity="1.000000" stroke="none" 
	d="
M342.000000,320.000000 
	C228.000015,320.000000 114.500038,320.000000 1.000046,320.000000 
	C1.000031,213.666702 1.000031,107.333412 1.000015,1.000088 
	C155.333267,1.000059 309.666534,1.000059 463.999817,1.000030 
	C463.999878,107.333252 463.999878,213.666504 463.999939,319.999878 
	C423.500000,320.000000 383.000000,320.000000 342.000000,320.000000 
M355.999054,258.413513 
	C356.482239,234.694672 356.965424,210.975830 357.459473,186.722321 
	C391.436890,186.722321 425.338593,186.722321 459.435394,186.722321 
	C459.435394,170.614334 459.435394,155.044601 459.435394,138.819351 
	C425.119141,138.819351 391.106873,138.819351 356.720612,138.819351 
	C357.117920,136.330551 357.726257,134.522278 357.633209,132.750854 
	C357.258484,125.616592 361.672577,122.140038 367.236908,119.182442 
	C373.553497,115.825035 379.720459,112.181252 385.901978,108.575394 
	C411.322174,93.746956 431.106171,72.529793 450.766785,51.190025 
	C454.548309,47.085526 458.090790,42.760799 462.045715,38.188347 
	C455.700714,32.594765 449.659973,27.623978 444.037354,22.218290 
	C437.735870,16.159946 430.397003,13.786562 421.791443,14.013585 
	C405.472900,14.444084 389.147247,14.634011 372.823395,14.825645 
	C341.501740,15.193344 310.179596,15.526839 278.857086,15.809196 
	C253.363205,16.039011 227.868164,16.139446 202.374390,16.378281 
	C197.125488,16.427456 191.879944,16.835363 186.615723,17.078716 
	C186.615723,33.249870 186.615723,48.826920 186.615723,64.726631 
	C242.303589,65.492874 297.654572,66.254486 353.005554,67.016090 
	C353.188568,67.405777 353.371552,67.795464 353.554535,68.185158 
	C346.396790,74.291786 340.032990,81.996651 331.858887,86.057312 
	C323.620483,90.149902 313.584137,90.623222 303.690643,92.825874 
	C303.690643,107.403198 303.690643,122.971848 303.690643,138.540497 
	C303.291901,138.872696 302.893158,139.204895 302.494415,139.537094 
	C300.609131,137.969589 297.126007,136.420959 297.107239,134.831406 
	C297.011200,126.701019 293.578247,120.200081 289.140350,113.778900 
	C265.576660,79.684822 215.312042,72.089310 188.181808,96.471306 
	C176.338638,107.114777 166.685226,118.853592 163.248474,134.400238 
	C157.923294,158.489349 164.524460,179.757919 180.783386,198.147308 
	C196.002472,215.360626 215.311050,221.283401 237.752884,219.355637 
	C246.229431,218.627502 253.836563,215.928452 261.359131,212.262680 
	C271.811188,207.169342 280.335754,200.167343 285.905762,189.794189 
	C286.523743,188.643265 287.754730,187.110687 288.802765,187.027222 
	C292.860413,186.704041 296.959106,186.895828 301.295044,186.895828 
	C301.295044,204.236481 301.139343,220.727036 301.387451,237.211487 
	C301.464508,242.330826 299.516296,246.264084 295.449432,248.460724 
	C291.484009,250.602554 286.885986,252.296387 282.438690,252.668457 
	C273.827911,253.388794 265.125427,252.945709 256.465515,253.165237 
	C247.543304,253.391434 238.626526,253.832489 229.045242,254.205276 
	C229.863770,258.027710 230.293930,261.325623 231.290894,264.442230 
	C233.925766,272.679321 236.823517,280.832031 239.584961,289.028992 
	C243.935287,301.942352 243.926544,302.192230 257.309143,302.069916 
	C276.752045,301.892273 296.369171,304.186157 315.577209,299.894440 
	C342.163025,293.954315 347.568665,291.655396 355.388092,261.723358 
	C355.598114,260.919495 355.734314,260.096344 355.999054,258.413513 
M110.499763,141.050903 
	C99.518631,141.057388 88.537025,141.125549 77.556610,141.040115 
	C73.139488,141.005768 71.294441,143.174515 70.995743,147.372620 
	C70.322212,156.838776 73.944633,160.996109 83.372406,160.985397 
	C105.502068,160.960251 127.631645,160.834396 149.761154,160.729172 
	C151.385605,160.721451 153.009293,160.552200 154.756226,160.450928 
	C154.756226,153.884033 154.756226,147.696960 154.756226,141.071350 
	C140.065872,141.071350 125.782745,141.071350 110.499763,141.050903 
M51.799133,181.855545 
	C48.457554,182.047607 45.328415,182.007401 43.893112,186.276855 
	C40.566437,196.172394 46.580753,199.475693 54.217487,199.599548 
	C66.039154,199.791290 77.875992,199.919891 89.685051,199.489609 
	C93.263680,199.359207 97.278061,198.009506 100.193420,195.946991 
	C104.551140,192.864014 101.280220,188.328506 100.772141,184.444412 
	C100.307594,180.893173 97.305237,182.046555 95.198669,182.028656 
	C81.043701,181.908493 66.887833,181.894623 51.799133,181.855545 
M164.523834,189.023300 
	C161.211731,184.333878 158.776978,178.191498 151.897644,178.158203 
	C142.597702,178.113205 133.253723,178.440567 124.007057,179.380051 
	C118.457550,179.943893 113.927963,187.547302 114.816795,193.088654 
	C115.395233,196.694870 119.692772,199.157288 125.602432,199.138702 
	C138.595001,199.097839 151.587494,199.013611 164.579788,198.916565 
	C165.984528,198.906067 167.387756,198.694717 169.483749,198.518280 
	C167.755981,195.177551 166.326706,192.414001 164.523834,189.023300 
M7.054582,145.711182 
	C6.755368,146.305954 6.455144,146.900208 6.157092,147.495560 
	C1.625768,156.546982 7.356472,161.317703 15.014464,161.043869 
	C25.502230,160.668839 36.021122,161.061172 46.496666,160.531281 
	C48.686756,160.420486 51.223133,158.086304 52.712971,156.108551 
	C53.877365,154.562851 53.779011,151.996475 54.047447,149.859238 
	C54.669624,144.905609 51.615154,141.177872 46.670895,141.093887 
	C36.840683,140.926849 26.990299,140.583328 17.185184,141.064865 
	C13.883746,141.227005 10.694205,143.667587 7.054582,145.711182 
M128.531448,119.874084 
	C137.663528,119.874100 146.796158,119.924820 155.927155,119.824852 
	C157.472260,119.807938 159.788849,119.653290 160.420364,118.690666 
	C163.609314,113.829704 166.358704,108.680389 170.005081,102.340767 
	C156.976608,102.340767 145.535294,102.280060 134.095215,102.372040 
	C129.796265,102.406601 125.438583,102.423080 121.218864,103.120529 
	C116.326385,103.929146 114.371483,107.360207 115.326927,112.122818 
	C116.882065,119.874695 116.882065,119.874695 125.054123,119.874023 
	C125.884315,119.873955 126.714500,119.873978 128.531448,119.874084 
M81.496780,102.340942 
	C78.513870,102.410408 75.504463,102.250435 72.552872,102.591187 
	C62.615055,103.738480 60.904297,106.306641 63.083427,115.890335 
	C63.721104,118.694801 64.811882,120.083702 68.043495,119.958519 
	C74.338158,119.714653 80.652283,120.028931 86.957726,119.995255 
	C97.683411,119.937973 98.471764,118.955338 98.019707,108.263580 
	C97.880653,104.974747 96.449463,103.270569 93.369255,102.980789 
	C89.743774,102.639725 86.095253,102.543732 81.496780,102.340942 
M113.444893,81.674545 
	C126.616592,81.849960 127.045975,81.385963 126.908501,70.861870 
	C126.853607,66.659798 124.942398,64.665535 121.080086,64.354263 
	C117.446930,64.061470 113.787994,64.044655 110.139229,63.997799 
	C99.663368,63.863277 96.659653,67.669777 99.019142,77.694283 
	C99.689125,80.540787 100.805199,82.052139 104.012573,81.731750 
	C106.806419,81.452675 109.650208,81.673706 113.444893,81.674545 
z"/>
<path fill="#5C7D9A" opacity="1.000000" stroke="none" 
	d="
M355.951965,258.847839 
	C355.734314,260.096344 355.598114,260.919495 355.388092,261.723358 
	C347.568665,291.655396 342.163025,293.954315 315.577209,299.894440 
	C296.369171,304.186157 276.752045,301.892273 257.309143,302.069916 
	C243.926544,302.192230 243.935287,301.942352 239.584961,289.028992 
	C236.823517,280.832031 233.925766,272.679321 231.290894,264.442230 
	C230.293930,261.325623 229.863770,258.027710 229.045242,254.205276 
	C238.626526,253.832489 247.543304,253.391434 256.465515,253.165237 
	C265.125427,252.945709 273.827911,253.388794 282.438690,252.668457 
	C286.885986,252.296387 291.484009,250.602554 295.449432,248.460724 
	C299.516296,246.264084 301.464508,242.330826 301.387451,237.211487 
	C301.139343,220.727036 301.295044,204.236481 301.295044,186.895828 
	C296.959106,186.895828 292.860413,186.704041 288.802765,187.027222 
	C287.754730,187.110687 286.523743,188.643265 285.905762,189.794189 
	C280.335754,200.167343 271.811188,207.169342 261.359131,212.262680 
	C253.836563,215.928452 246.229431,218.627502 237.752884,219.355637 
	C215.311050,221.283401 196.002472,215.360626 180.783386,198.147308 
	C164.524460,179.757919 157.923294,158.489349 163.248474,134.400238 
	C166.685226,118.853592 176.338638,107.114777 188.181808,96.471306 
	C215.312042,72.089310 265.576660,79.684822 289.140350,113.778900 
	C293.578247,120.200081 297.011200,126.701019 297.107239,134.831406 
	C297.126007,136.420959 300.609131,137.969589 302.494415,139.537094 
	C302.893158,139.204895 303.291901,138.872696 303.690643,138.540497 
	C303.690643,122.971848 303.690643,107.403198 303.690643,92.825874 
	C313.584137,90.623222 323.620483,90.149902 331.858887,86.057312 
	C340.032990,81.996651 346.396790,74.291786 353.554535,68.185158 
	C353.371552,67.795464 353.188568,67.405777 353.005554,67.016090 
	C297.654572,66.254486 242.303589,65.492874 186.615723,64.726631 
	C186.615723,48.826920 186.615723,33.249870 186.615723,17.078716 
	C191.879944,16.835363 197.125488,16.427456 202.374390,16.378281 
	C227.868164,16.139446 253.363205,16.039011 278.857086,15.809196 
	C310.179596,15.526839 341.501740,15.193344 372.823395,14.825645 
	C389.147247,14.634011 405.472900,14.444084 421.791443,14.013585 
	C430.397003,13.786562 437.735870,16.159946 444.037354,22.218290 
	C449.659973,27.623978 455.700714,32.594765 462.045715,38.188347 
	C458.090790,42.760799 454.548309,47.085526 450.766785,51.190025 
	C431.106171,72.529793 411.322174,93.746956 385.901978,108.575394 
	C379.720459,112.181252 373.553497,115.825035 367.236908,119.182442 
	C361.672577,122.140038 357.258484,125.616592 357.633209,132.750854 
	C357.726257,134.522278 357.117920,136.330551 356.720612,138.819351 
	C391.106873,138.819351 425.119141,138.819351 459.435394,138.819351 
	C459.435394,155.044601 459.435394,170.614334 459.435394,186.722321 
	C425.338593,186.722321 391.436890,186.722321 357.459473,186.722321 
	C356.965424,210.975830 356.482239,234.694672 355.951965,258.847839 
M219.413635,105.982201 
	C212.423492,121.868217 210.387054,138.464584 211.842148,155.664917 
	C216.248978,155.664917 220.253860,156.067261 224.150253,155.587845 
	C234.897034,154.265549 238.687805,150.144730 240.044113,139.289978 
	C240.744766,133.682373 241.007370,127.923111 242.546600,122.540863 
	C244.634628,115.239700 247.517990,108.132538 250.500626,101.129753 
	C253.692566,93.635567 251.668320,89.310455 243.896301,88.285835 
	C240.763351,87.872803 237.601822,87.116737 234.493561,87.280647 
	C232.545044,87.383408 229.920456,88.395798 228.901962,89.888786 
	C225.542114,94.813881 222.775253,100.143517 219.413635,105.982201 
M257.325897,184.786011 
	C259.398071,179.910828 261.501251,175.048492 263.531342,170.155853 
	C264.848450,166.981506 263.860565,164.747360 260.652496,163.423019 
	C256.055206,161.525192 251.433228,159.671509 246.928864,157.569504 
	C243.611542,156.021454 242.242920,157.353043 241.045364,160.375443 
	C237.009048,170.562271 231.384186,179.823792 222.851898,186.828583 
	C217.090561,191.558487 210.659637,195.466934 204.593353,199.833313 
	C200.727463,202.615891 200.891602,206.196854 205.081955,208.347000 
	C215.928726,213.912628 227.106964,213.932404 236.621414,206.491272 
	C244.235870,200.536118 250.233917,192.514191 257.325897,184.786011 
M169.368393,165.898193 
	C171.864944,172.660110 177.058060,175.666107 183.874207,176.984314 
	C188.568634,177.892166 195.037308,178.271469 197.231293,181.360153 
	C200.238373,185.593521 203.816269,185.422592 207.170959,185.671646 
	C213.260513,186.123734 220.555023,187.893097 224.569824,181.478760 
	C228.907257,174.548935 232.015060,166.849472 236.421753,157.944824 
	C222.868591,157.944824 210.541397,159.912552 199.211197,157.394394 
	C187.756531,154.848572 177.289352,147.859619 166.055344,142.662384 
	C166.371277,147.054993 166.517105,151.515228 167.068665,155.924713 
	C167.458023,159.037460 168.397629,162.081390 169.368393,165.898193 
M181.168900,144.059494 
	C184.488342,150.123825 195.072235,154.106384 203.713821,152.817352 
	C205.522797,141.703934 206.196289,130.417282 209.398819,119.900764 
	C212.606064,109.368729 218.339111,99.605843 223.670975,87.964577 
	C218.256561,88.271492 213.454803,87.846710 209.025757,88.936600 
	C199.126678,91.372528 191.754623,97.331879 187.886063,107.015602 
	C183.237259,118.652420 179.714890,130.531754 181.168900,144.059494 
M288.044434,176.464340 
	C288.968079,169.570892 289.891754,162.677460 290.852905,155.504211 
	C284.343536,149.632706 278.235718,143.094391 271.106689,137.979446 
	C263.831207,132.759430 255.552505,128.937637 246.698746,123.930038 
	C246.698746,132.297424 246.923279,138.939560 246.612839,145.556610 
	C246.432434,149.402084 247.545731,151.376938 251.263184,153.008270 
	C264.927307,159.004456 278.074463,165.815201 283.732635,181.169495 
	C283.997223,181.887543 285.175964,182.879547 285.681396,182.753250 
	C286.418488,182.569061 287.172302,181.576248 287.478973,180.762375 
	C287.877991,179.703354 287.845795,178.481888 288.044434,176.464340 
M264.269958,124.190926 
	C273.220154,130.392929 282.170319,136.594940 291.050293,142.748260 
	C297.523041,129.760239 284.147217,103.464394 253.961014,101.576569 
	C252.611557,106.759613 251.218979,112.108376 249.837906,117.412895 
	C254.880356,119.784966 259.237152,121.834488 264.269958,124.190926 
M271.120331,174.615494 
	C268.888092,172.350235 268.685120,174.665634 267.828491,175.971268 
	C263.366913,182.771561 258.969360,189.622086 254.251175,196.242477 
	C251.779678,199.710449 248.696274,202.742355 245.826096,206.043793 
	C249.930420,209.071289 253.793793,209.113419 257.628693,206.602692 
	C261.940765,203.779510 266.370239,201.073135 270.367371,197.844025 
	C279.381592,190.561783 279.663818,183.462509 271.120331,174.615494 
M302.998047,196.412140 
	C302.998047,198.840637 302.998047,201.269119 302.998047,203.697617 
	C304.986572,189.244339 304.439850,185.185959 301.215363,184.466644 
	C304.662903,187.609589 302.310852,191.796021 302.998047,196.412140 
z"/>
<path fill="#5E7E9B" opacity="1.000000" stroke="none" 
	d="
M110.999695,141.061127 
	C125.782745,141.071350 140.065872,141.071350 154.756226,141.071350 
	C154.756226,147.696960 154.756226,153.884033 154.756226,160.450928 
	C153.009293,160.552200 151.385605,160.721451 149.761154,160.729172 
	C127.631645,160.834396 105.502068,160.960251 83.372406,160.985397 
	C73.944633,160.996109 70.322212,156.838776 70.995743,147.372620 
	C71.294441,143.174515 73.139488,141.005768 77.556610,141.040115 
	C88.537025,141.125549 99.518631,141.057388 110.999695,141.061127 
z"/>
<path fill="#5E7F9B" opacity="1.000000" stroke="none" 
	d="
M52.265694,181.850922 
	C66.887833,181.894623 81.043701,181.908493 95.198669,182.028656 
	C97.305237,182.046555 100.307594,180.893173 100.772141,184.444412 
	C101.280220,188.328506 104.551140,192.864014 100.193420,195.946991 
	C97.278061,198.009506 93.263680,199.359207 89.685051,199.489609 
	C77.875992,199.919891 66.039154,199.791290 54.217487,199.599548 
	C46.580753,199.475693 40.566437,196.172394 43.893112,186.276855 
	C45.328415,182.007401 48.457554,182.047607 52.265694,181.850922 
z"/>
<path fill="#5C7D9A" opacity="1.000000" stroke="none" 
	d="
M164.710632,189.336884 
	C166.326706,192.414001 167.755981,195.177551 169.483749,198.518280 
	C167.387756,198.694717 165.984528,198.906067 164.579788,198.916565 
	C151.587494,199.013611 138.595001,199.097839 125.602432,199.138702 
	C119.692772,199.157288 115.395233,196.694870 114.816795,193.088654 
	C113.927963,187.547302 118.457550,179.943893 124.007057,179.380051 
	C133.253723,178.440567 142.597702,178.113205 151.897644,178.158203 
	C158.776978,178.191498 161.211731,184.333878 164.710632,189.336884 
z"/>
<path fill="#5D7E9A" opacity="1.000000" stroke="none" 
	d="
M7.254052,145.389008 
	C10.694205,143.667587 13.883746,141.227005 17.185184,141.064865 
	C26.990299,140.583328 36.840683,140.926849 46.670895,141.093887 
	C51.615154,141.177872 54.669624,144.905609 54.047447,149.859238 
	C53.779011,151.996475 53.877365,154.562851 52.712971,156.108551 
	C51.223133,158.086304 48.686756,160.420486 46.496666,160.531281 
	C36.021122,161.061172 25.502230,160.668839 15.014464,161.043869 
	C7.356472,161.317703 1.625768,156.546982 6.157092,147.495560 
	C6.455144,146.900208 6.755368,146.305954 7.254052,145.389008 
z"/>
<path fill="#5F7F9B" opacity="1.000000" stroke="none" 
	d="
M128.038071,119.874023 
	C126.714500,119.873978 125.884315,119.873955 125.054123,119.874023 
	C116.882065,119.874695 116.882065,119.874695 115.326927,112.122818 
	C114.371483,107.360207 116.326385,103.929146 121.218864,103.120529 
	C125.438583,102.423080 129.796265,102.406601 134.095215,102.372040 
	C145.535294,102.280060 156.976608,102.340767 170.005081,102.340767 
	C166.358704,108.680389 163.609314,113.829704 160.420364,118.690666 
	C159.788849,119.653290 157.472260,119.807938 155.927155,119.824852 
	C146.796158,119.924820 137.663528,119.874100 128.038071,119.874023 
z"/>
<path fill="#5F7F9B" opacity="1.000000" stroke="none" 
	d="
M81.976746,102.341202 
	C86.095253,102.543732 89.743774,102.639725 93.369255,102.980789 
	C96.449463,103.270569 97.880653,104.974747 98.019707,108.263580 
	C98.471764,118.955338 97.683411,119.937973 86.957726,119.995255 
	C80.652283,120.028931 74.338158,119.714653 68.043495,119.958519 
	C64.811882,120.083702 63.721104,118.694801 63.083427,115.890335 
	C60.904297,106.306641 62.615055,103.738480 72.552872,102.591187 
	C75.504463,102.250435 78.513870,102.410408 81.976746,102.341202 
z"/>
<path fill="#61819D" opacity="1.000000" stroke="none" 
	d="
M112.958412,81.674149 
	C109.650208,81.673706 106.806419,81.452675 104.012573,81.731750 
	C100.805199,82.052139 99.689125,80.540787 99.019142,77.694283 
	C96.659653,67.669777 99.663368,63.863277 110.139229,63.997799 
	C113.787994,64.044655 117.446930,64.061470 121.080086,64.354263 
	C124.942398,64.665535 126.853607,66.659798 126.908501,70.861870 
	C127.045975,81.385963 126.616592,81.849960 112.958412,81.674149 
z"/>
<path fill="#F6F4F4" opacity="1.000000" stroke="none" 
	d="
M219.597168,105.650017 
	C222.775253,100.143517 225.542114,94.813881 228.901962,89.888786 
	C229.920456,88.395798 232.545044,87.383408 234.493561,87.280647 
	C237.601822,87.116737 240.763351,87.872803 243.896301,88.285835 
	C251.668320,89.310455 253.692566,93.635567 250.500626,101.129753 
	C247.517990,108.132538 244.634628,115.239700 242.546600,122.540863 
	C241.007370,127.923111 240.744766,133.682373 240.044113,139.289978 
	C238.687805,150.144730 234.897034,154.265549 224.150253,155.587845 
	C220.253860,156.067261 216.248978,155.664917 211.842148,155.664917 
	C210.387054,138.464584 212.423492,121.868217 219.597168,105.650017 
z"/>
<path fill="#F5F2F3" opacity="1.000000" stroke="none" 
	d="
M257.137634,185.097778 
	C250.233917,192.514191 244.235870,200.536118 236.621414,206.491272 
	C227.106964,213.932404 215.928726,213.912628 205.081955,208.347000 
	C200.891602,206.196854 200.727463,202.615891 204.593353,199.833313 
	C210.659637,195.466934 217.090561,191.558487 222.851898,186.828583 
	C231.384186,179.823792 237.009048,170.562271 241.045364,160.375443 
	C242.242920,157.353043 243.611542,156.021454 246.928864,157.569504 
	C251.433228,159.671509 256.055206,161.525192 260.652496,163.423019 
	C263.860565,164.747360 264.848450,166.981506 263.531342,170.155853 
	C261.501251,175.048492 259.398071,179.910828 257.137634,185.097778 
z"/>
<path fill="#F5F2F3" opacity="1.000000" stroke="none" 
	d="
M169.229980,165.527115 
	C168.397629,162.081390 167.458023,159.037460 167.068665,155.924713 
	C166.517105,151.515228 166.371277,147.054993 166.055344,142.662384 
	C177.289352,147.859619 187.756531,154.848572 199.211197,157.394394 
	C210.541397,159.912552 222.868591,157.944824 236.421753,157.944824 
	C232.015060,166.849472 228.907257,174.548935 224.569824,181.478760 
	C220.555023,187.893097 213.260513,186.123734 207.170959,185.671646 
	C203.816269,185.422592 200.238373,185.593521 197.231293,181.360153 
	C195.037308,178.271469 188.568634,177.892166 183.874207,176.984314 
	C177.058060,175.666107 171.864944,172.660110 169.229980,165.527115 
z"/>
<path fill="#F7F6F6" opacity="1.000000" stroke="none" 
	d="
M181.061676,143.682739 
	C179.714890,130.531754 183.237259,118.652420 187.886063,107.015602 
	C191.754623,97.331879 199.126678,91.372528 209.025757,88.936600 
	C213.454803,87.846710 218.256561,88.271492 223.670975,87.964577 
	C218.339111,99.605843 212.606064,109.368729 209.398819,119.900764 
	C206.196289,130.417282 205.522797,141.703934 203.713821,152.817352 
	C195.072235,154.106384 184.488342,150.123825 181.061676,143.682739 
z"/>
<path fill="#F1F1F1" opacity="1.000000" stroke="none" 
	d="
M288.021790,176.897339 
	C287.845795,178.481888 287.877991,179.703354 287.478973,180.762375 
	C287.172302,181.576248 286.418488,182.569061 285.681396,182.753250 
	C285.175964,182.879547 283.997223,181.887543 283.732635,181.169495 
	C278.074463,165.815201 264.927307,159.004456 251.263184,153.008270 
	C247.545731,151.376938 246.432434,149.402084 246.612839,145.556610 
	C246.923279,138.939560 246.698746,132.297424 246.698746,123.930038 
	C255.552505,128.937637 263.831207,132.759430 271.106689,137.979446 
	C278.235718,143.094391 284.343536,149.632706 290.852905,155.504211 
	C289.891754,162.677460 288.968079,169.570892 288.021790,176.897339 
z"/>
<path fill="#EFECEC" opacity="1.000000" stroke="none" 
	d="
M263.931946,124.037468 
	C259.237152,121.834488 254.880356,119.784966 249.837906,117.412895 
	C251.218979,112.108376 252.611557,106.759613 253.961014,101.576569 
	C284.147217,103.464394 297.523041,129.760239 291.050293,142.748260 
	C282.170319,136.594940 273.220154,130.392929 263.931946,124.037468 
z"/>
<path fill="#EDE9EA" opacity="1.000000" stroke="none" 
	d="
M271.384003,174.834045 
	C279.663818,183.462509 279.381592,190.561783 270.367371,197.844025 
	C266.370239,201.073135 261.940765,203.779510 257.628693,206.602692 
	C253.793793,209.113419 249.930420,209.071289 245.826096,206.043793 
	C248.696274,202.742355 251.779678,199.710449 254.251175,196.242477 
	C258.969360,189.622086 263.366913,182.771561 267.828491,175.971268 
	C268.685120,174.665634 268.888092,172.350235 271.384003,174.834045 
z"/>
<path fill="#61819D" opacity="1.000000" stroke="none" 
	d="
M302.997864,195.935745 
	C302.310852,191.796021 304.662903,187.609589 301.215363,184.466644 
	C304.439850,185.185959 304.986572,189.244339 302.998047,203.697617 
	C302.998047,201.269119 302.998047,198.840637 302.997864,195.935745 
z"/>
</svg>